<svg width="79" height="87" viewBox="0 0 79 87" fill="none" xmlns="http://www.w3.org/2000/svg">
<circle cx="39.8261" cy="39.5214" r="38.0262" fill="url(#paint0_radial_153_18761)" stroke="#2B2B2B" stroke-width="2.02909"/>
<path d="M51.7399 10.813L47.7451 12.8791C50.8169 14.5432 53.4958 15.9992 57.8012 19.9036C61.2918 23.0691 63.8616 26.3313 65.239 28.3055L67.3056 23.8922C65.9653 21.971 63.4689 19.0941 60.2804 16.4602C55.9455 12.8791 53.7905 11.8359 51.7399 10.813Z" fill="white"/>
<mask id="mask0_153_18761" style="mask-type:alpha" maskUnits="userSpaceOnUse" x="2" y="2" width="75" height="75">
<circle cx="39.8261" cy="39.5214" r="37.0117" fill="#010411"/>
</mask>
<g mask="url(#mask0_153_18761)">
<path d="M36.5179 24.9173C19.9833 25.5676 16.887 52.3331 16.3574 69.0893C18.2719 71.8755 25.3362 77.4787 38.2778 77.602C51.2194 77.7252 60.0049 73.1277 62.7799 70.8135C61.0114 57.5498 60.1272 23.9888 36.5179 24.9173Z" fill="white" stroke="#2B2B2B" stroke-width="2.02909" stroke-linecap="round"/>
<path d="M37.9047 35.4515C36.6974 34.611 33.9945 33.7673 31.5242 35.4515C28.0566 37.8157 28.293 42.2802 28.0566 44.4338" stroke="#2B2B2B" stroke-width="2.02909" stroke-linecap="round"/>
<path d="M49.6531 33.8497C49.0855 33.1874 47.6601 32.3004 45.9915 32.8988C43.6493 33.7387 43.1196 36.336 42.663 37.5366" stroke="#2B2B2B" stroke-width="2.02909" stroke-linecap="round"/>
<path d="M53.3943 44.9529C47.6028 44.4532 45.1044 42.1392 42.8575 42.8971C40.6105 43.655 40.0113 47.0106 37.1347 49.4074C34.2581 51.8042 31.3331 51.8466 31.1414 53.1224C30.9017 54.7173 37.2035 63.0692 44.2047 63.0692C49.5986 63.0692 53.5895 58.8491 54.8065 57.1585C66.7556 54.5888 68.6829 43.7963 66.7556 41.7405C64.8284 39.6848 59.1859 45.4526 53.3943 44.9529Z" fill="#EF7802"/>
<path d="M54.8065 57.1585C66.7555 54.5888 68.6829 43.7963 66.7556 41.7405C64.8284 39.6848 59.1859 45.4526 53.3943 44.9529C47.6028 44.4532 45.1044 42.1392 42.8575 42.8971C40.6105 43.655 40.0113 47.0106 37.1347 49.4074C34.2581 51.8042 31.3331 51.8466 31.1414 53.1224C30.9017 54.7173 37.2035 63.0692 44.2047 63.0692C49.5986 63.0692 53.5895 58.8491 54.8065 57.1585ZM54.8065 57.1585C45.2473 59.2143 39.6881 56.3876 38.1034 54.7173" stroke="#2B2B2B" stroke-width="2.02909" stroke-linecap="round"/>
<ellipse cx="35.3419" cy="39.5215" rx="2.64072" ry="3.51754" fill="black"/>
<ellipse cx="48.3146" cy="37.0516" rx="2.1584" ry="3.06278" transform="rotate(-12.7567 48.3146 37.0516)" fill="black"/>
<path d="M31.2066 18.1029C33.9165 17.5356 33.2815 22.8041 32.6254 25.5092C32.2284 25.6955 31.1178 26.2309 29.8513 26.8828C28.5848 27.5346 27.3904 28.655 26.9515 29.1338C24.7192 28.3196 20.617 26.0609 22.0668 23.5395C23.3327 21.3378 26.1731 22.3804 27.9223 23.4671C28.1798 23.627 28.541 23.4123 28.5266 23.1096C28.4391 21.278 28.8809 18.5898 31.2066 18.1029Z" fill="white" stroke="#2B2B2B" stroke-width="2.02909"/>
</g>
<path d="M65.3923 74.6336C65.7434 72.8308 64.8113 70.942 62.7397 70.942C60.2956 70.942 54.2189 76.1442 44.7429 77.2621C30.7118 78.9175 24.5633 74.583 21.6467 72.8479C17.5192 70.3925 15.5834 67.6228 13.3152 70.942C10.3175 75.3289 20.409 86.3133 40.6681 85.1306C60.9269 83.9479 64.968 76.8125 65.3923 74.6336Z" fill="white" stroke="#2B2B2B" stroke-width="2.02909"/>
<path d="M19.3599 71.8027C18.0721 73.0794 15.7627 76.3644 16.8278 79.2911" stroke="#2B2B2B" stroke-width="2.02909"/>
<path d="M24.181 74.6662C22.9262 75.9753 20.7015 79.3183 21.8409 82.2168" stroke="#2B2B2B" stroke-width="2.02909"/>
<path d="M59.06 71.8027C60.3478 73.0794 62.6572 76.3644 61.5921 79.2911" stroke="#2B2B2B" stroke-width="2.02909"/>
<path d="M54.2351 74.6662C55.4898 75.9753 57.7145 79.3183 56.5751 82.2168" stroke="#2B2B2B" stroke-width="2.02909"/>
<path d="M47.0749 76.5324C48.3297 77.8415 50.5544 81.1845 49.4149 84.0831" stroke="#2B2B2B" stroke-width="2.02909"/>
<path d="M29.6869 76.6145C28.6186 78.0798 26.8613 81.6904 28.3784 84.4104" stroke="#2B2B2B" stroke-width="2.02909"/>
<path d="M35.9706 77.6959C35.0545 79.2608 33.6676 83.0293 35.4496 85.5837" stroke="#2B2B2B" stroke-width="2.02909"/>
<path d="M41.8087 77.7517C41.2203 79.3341 40.5547 83.0128 42.5996 85.0685" stroke="#2B2B2B" stroke-width="2.02909"/>
<defs>
<radialGradient id="paint0_radial_153_18761" cx="0" cy="0" r="1" gradientUnits="userSpaceOnUse" gradientTransform="translate(39.8261 39.5214) rotate(90) scale(42.8405)">
<stop offset="0.2" stop-color="#010411" stop-opacity="0"/>
<stop offset="1" stop-color="#B7E5FF"/>
</radialGradient>
</defs>
</svg>
