<svg width="787" height="162" viewBox="0 0 787 162" fill="none" xmlns="http://www.w3.org/2000/svg">
<path d="M94.9598 30.3543H101.44L100.495 42.5943H94.9598V30.3543ZM97.8398 31.3443C99.0098 30.6843 99.9998 29.8443 100.81 28.8243C101.65 27.8043 102.34 26.5443 102.88 25.0443C103.45 23.5143 103.9 21.6993 104.23 19.5993C104.59 17.4693 104.875 15.0093 105.085 12.2193C105.325 9.42933 105.52 6.24933 105.67 2.67934H111.565C111.385 6.57934 111.175 10.0143 110.935 12.9843C110.695 15.9243 110.395 18.5043 110.035 20.7243C109.675 22.9143 109.195 24.8043 108.595 26.3943C108.025 27.9543 107.29 29.3193 106.39 30.4893C105.49 31.6293 104.395 32.6193 103.105 33.4593L97.8398 31.3443ZM107.65 2.67934H133.075V7.53933H107.65V2.67934ZM97.8398 30.3543H141.94V34.9443H97.8398V30.3543ZM131.275 34.9443V2.67934H137.665V34.9443H131.275ZM138.205 42.5943L137.305 30.3543H143.785V42.5943H138.205ZM164.886 30.9393C167.136 30.9393 169.131 30.6693 170.871 30.1293C172.611 29.5893 173.976 28.7643 174.966 27.6543C175.986 26.5143 176.496 25.0443 176.496 23.2443C176.496 21.4743 175.986 20.0343 174.966 18.9243C173.976 17.7843 172.611 16.9443 170.871 16.4043C169.131 15.8343 167.136 15.5493 164.886 15.5493C162.726 15.5493 160.776 15.8343 159.036 16.4043C157.296 16.9443 155.916 17.7843 154.896 18.9243C153.876 20.0643 153.366 21.5043 153.366 23.2443C153.366 25.0143 153.876 26.4693 154.896 27.6093C155.916 28.7493 157.296 29.5893 159.036 30.1293C160.776 30.6693 162.726 30.9393 164.886 30.9393ZM164.886 35.3943C161.496 35.3943 158.451 34.9443 155.751 34.0443C153.081 33.1143 150.981 31.7493 149.451 29.9493C147.921 28.1493 147.156 25.9143 147.156 23.2443C147.156 20.6043 147.921 18.3843 149.451 16.5843C150.981 14.7843 153.081 13.4343 155.751 12.5343C158.451 11.6043 161.496 11.1393 164.886 11.1393C168.336 11.1393 171.396 11.6043 174.066 12.5343C176.766 13.4343 178.881 14.7843 180.411 16.5843C181.971 18.3843 182.751 20.6043 182.751 23.2443C182.751 25.9143 181.971 28.1493 180.411 29.9493C178.881 31.7493 176.766 33.1143 174.066 34.0443C171.366 34.9443 168.306 35.3943 164.886 35.3943ZM206.289 11.6793C209.409 11.6793 212.184 12.1143 214.614 12.9843C217.044 13.8543 218.949 15.1443 220.329 16.8543C221.709 18.5643 222.399 20.7243 222.399 23.3343C222.399 26.0343 221.649 28.2843 220.149 30.0843C218.649 31.8543 216.564 33.1893 213.894 34.0893C211.224 34.9593 208.104 35.3943 204.534 35.3943C201.084 35.3943 198.024 34.8843 195.354 33.8643C192.684 32.8443 190.584 31.3143 189.054 29.2743C187.524 27.2343 186.759 24.6693 186.759 21.5793C186.759 20.0193 186.819 18.5493 186.939 17.1693C187.059 15.7593 187.284 14.4243 187.614 13.1643C187.944 11.9043 188.439 10.7343 189.099 9.65433C189.789 8.54433 190.674 7.55433 191.754 6.68433C192.864 5.81434 194.244 5.04934 195.894 4.38934C197.064 3.93934 198.264 3.59434 199.494 3.35433C200.754 3.08433 202.014 2.87433 203.274 2.72434C204.564 2.57434 205.854 2.48433 207.144 2.45433C208.464 2.39433 209.769 2.34933 211.059 2.31933C212.589 2.25933 213.894 2.16933 214.974 2.04934C216.054 1.92934 216.984 1.79434 217.764 1.64434C218.544 1.46433 219.219 1.23933 219.789 0.969333V5.69433C219.189 5.99433 218.514 6.23433 217.764 6.41434C217.014 6.56434 216.114 6.68433 215.064 6.77433C214.014 6.83433 212.724 6.90933 211.194 6.99933C209.544 7.05933 207.939 7.14934 206.379 7.26934C204.819 7.35933 203.334 7.50933 201.924 7.71934C200.544 7.89933 199.254 8.18433 198.054 8.57433C196.164 9.32433 194.739 10.3443 193.779 11.6343C192.849 12.9243 192.219 14.4093 191.889 16.0893C191.559 17.7693 191.364 19.6143 191.304 21.6243L190.404 23.0193C190.464 20.6193 191.094 18.5793 192.294 16.8993C193.524 15.1893 195.309 13.8993 197.649 13.0293C199.989 12.1293 202.869 11.6793 206.289 11.6793ZM204.489 30.9393C206.859 30.9393 208.914 30.6993 210.654 30.2193C212.394 29.7393 213.744 28.9443 214.704 27.8343C215.664 26.7243 216.144 25.2543 216.144 23.4243C216.144 21.5943 215.664 20.1393 214.704 19.0593C213.774 17.9493 212.454 17.1543 210.744 16.6743C209.034 16.1943 206.994 15.9543 204.624 15.9543C202.404 15.9543 200.409 16.2243 198.639 16.7643C196.899 17.2743 195.519 18.0843 194.499 19.1943C193.509 20.2743 193.014 21.6543 193.014 23.3343C193.014 25.0743 193.509 26.5143 194.499 27.6543C195.489 28.7643 196.854 29.5893 198.594 30.1293C200.334 30.6693 202.299 30.9393 204.489 30.9393ZM228.378 11.5893H233.913L234.363 16.1793L234.408 18.2943L233.643 22.8843L234.453 27.7443V42.9093H228.378V11.5893ZM232.068 23.2893V21.8943C232.218 20.3943 232.653 18.9993 233.373 17.7093C234.123 16.3893 235.143 15.2493 236.433 14.2893C237.753 13.3293 239.358 12.5643 241.248 11.9943C243.138 11.4243 245.298 11.1393 247.728 11.1393C250.848 11.1393 253.638 11.5743 256.098 12.4443C258.588 13.2843 260.553 14.6043 261.993 16.4043C263.433 18.1743 264.153 20.4543 264.153 23.2443C264.153 26.0343 263.433 28.3293 261.993 30.1293C260.553 31.9293 258.573 33.2643 256.053 34.1343C253.563 34.9743 250.758 35.3943 247.638 35.3943C245.148 35.3943 242.928 35.0793 240.978 34.4493C239.058 33.7893 237.438 32.9043 236.118 31.7943C234.798 30.6543 233.793 29.3643 233.103 27.9243C232.413 26.4543 232.068 24.9093 232.068 23.2893ZM257.853 23.2443C257.853 21.4743 257.373 20.0343 256.413 18.9243C255.483 17.7843 254.133 16.9443 252.363 16.4043C250.623 15.8343 248.568 15.5493 246.198 15.5493C243.948 15.5493 241.923 15.8343 240.123 16.4043C238.353 16.9743 236.943 17.8293 235.893 18.9693C234.873 20.0793 234.363 21.5043 234.363 23.2443C234.363 24.9543 234.873 26.3943 235.893 27.5643C236.943 28.7043 238.353 29.5593 240.123 30.1293C241.923 30.6693 243.948 30.9393 246.198 30.9393C248.568 30.9393 250.623 30.6693 252.363 30.1293C254.103 29.5893 255.453 28.7643 256.413 27.6543C257.373 26.5143 257.853 25.0443 257.853 23.2443ZM285.515 30.9393C287.765 30.9393 289.76 30.6693 291.5 30.1293C293.24 29.5893 294.605 28.7643 295.595 27.6543C296.615 26.5143 297.125 25.0443 297.125 23.2443C297.125 21.4743 296.615 20.0343 295.595 18.9243C294.605 17.7843 293.24 16.9443 291.5 16.4043C289.76 15.8343 287.765 15.5493 285.515 15.5493C283.355 15.5493 281.405 15.8343 279.665 16.4043C277.925 16.9443 276.545 17.7843 275.525 18.9243C274.505 20.0643 273.995 21.5043 273.995 23.2443C273.995 25.0143 274.505 26.4693 275.525 27.6093C276.545 28.7493 277.925 29.5893 279.665 30.1293C281.405 30.6693 283.355 30.9393 285.515 30.9393ZM285.515 35.3943C282.125 35.3943 279.08 34.9443 276.38 34.0443C273.71 33.1143 271.61 31.7493 270.08 29.9493C268.55 28.1493 267.785 25.9143 267.785 23.2443C267.785 20.6043 268.55 18.3843 270.08 16.5843C271.61 14.7843 273.71 13.4343 276.38 12.5343C279.08 11.6043 282.125 11.1393 285.515 11.1393C288.965 11.1393 292.025 11.6043 294.695 12.5343C297.395 13.4343 299.51 14.7843 301.04 16.5843C302.6 18.3843 303.38 20.6043 303.38 23.2443C303.38 25.9143 302.6 28.1493 301.04 29.9493C299.51 31.7493 297.395 33.1143 294.695 34.0443C291.995 34.9443 288.935 35.3943 285.515 35.3943ZM326.237 11.5893H349.592V15.9093H326.237V11.5893ZM328.892 11.5893V34.9443H322.817V11.5893H328.892ZM346.442 11.5893H352.472V34.9443H346.442V11.5893ZM376.219 30.9393C378.469 30.9393 380.464 30.6693 382.204 30.1293C383.944 29.5893 385.309 28.7643 386.299 27.6543C387.319 26.5143 387.829 25.0443 387.829 23.2443C387.829 21.4743 387.319 20.0343 386.299 18.9243C385.309 17.7843 383.944 16.9443 382.204 16.4043C380.464 15.8343 378.469 15.5493 376.219 15.5493C374.059 15.5493 372.109 15.8343 370.369 16.4043C368.629 16.9443 367.249 17.7843 366.229 18.9243C365.209 20.0643 364.699 21.5043 364.699 23.2443C364.699 25.0143 365.209 26.4693 366.229 27.6093C367.249 28.7493 368.629 29.5893 370.369 30.1293C372.109 30.6693 374.059 30.9393 376.219 30.9393ZM376.219 35.3943C372.829 35.3943 369.784 34.9443 367.084 34.0443C364.414 33.1143 362.314 31.7493 360.784 29.9493C359.254 28.1493 358.489 25.9143 358.489 23.2443C358.489 20.6043 359.254 18.3843 360.784 16.5843C362.314 14.7843 364.414 13.4343 367.084 12.5343C369.784 11.6043 372.829 11.1393 376.219 11.1393C379.669 11.1393 382.729 11.6043 385.399 12.5343C388.099 13.4343 390.214 14.7843 391.744 16.5843C393.304 18.3843 394.084 20.6043 394.084 23.2443C394.084 25.9143 393.304 28.1493 391.744 29.9493C390.214 31.7493 388.099 33.1143 385.399 34.0443C382.699 34.9443 379.639 35.3943 376.219 35.3943ZM417.108 25.5393H410.898L410.988 21.2193H417.108V25.5393ZM395.238 34.9443L409.683 21.6243L408.693 24.0543L395.688 11.5893H402.888L415.173 23.4243L402.888 34.9443H395.238ZM416.748 11.5893H422.688V34.9443H416.748V11.5893ZM444.243 34.9443H436.683L424.308 23.4243L436.863 11.5893H443.793L430.653 23.8743L429.978 21.3543L444.243 34.9443ZM422.328 25.5393V21.2193H428.583V25.5393H422.328ZM460.97 15.5493C459.41 15.5493 457.865 15.6693 456.335 15.9093C454.835 16.1193 453.44 16.3893 452.15 16.7193C450.86 17.0493 449.72 17.4393 448.73 17.8893V13.4343C450.08 12.8343 451.91 12.3093 454.22 11.8593C456.56 11.3793 459.14 11.1393 461.96 11.1393C464.9 11.1393 467.405 11.4243 469.475 11.9943C471.575 12.5343 473.18 13.4043 474.29 14.6043C475.4 15.8043 475.955 17.3793 475.955 19.3293V31.1643C475.955 31.6743 475.985 32.3343 476.045 33.1443C476.135 33.9243 476.225 34.5243 476.315 34.9443H470.69C470.57 34.5243 470.45 33.9393 470.33 33.1893C470.24 32.4093 470.165 31.7343 470.105 31.1643L469.88 28.7343V19.9593C469.88 18.8193 469.565 17.9343 468.935 17.3043C468.335 16.6443 467.375 16.1943 466.055 15.9543C464.735 15.6843 463.04 15.5493 460.97 15.5493ZM469.88 25.5393L471.275 27.6993C471.215 28.0893 471.035 28.5993 470.735 29.2293C470.465 29.8593 470.015 30.5343 469.385 31.2543C468.755 31.9743 467.93 32.6493 466.91 33.2793C465.89 33.9093 464.63 34.4193 463.13 34.8093C461.63 35.1993 459.845 35.3943 457.775 35.3943C455.465 35.3943 453.47 35.1243 451.79 34.5843C450.14 34.0443 448.85 33.2493 447.92 32.1993C446.99 31.1193 446.525 29.7843 446.525 28.1943C446.525 26.4243 447.08 24.9843 448.19 23.8743C449.3 22.7643 450.98 21.9393 453.23 21.3993C455.51 20.8293 458.375 20.5443 461.825 20.5443H470.42V24.1443H461.78C459.41 24.1443 457.55 24.2793 456.2 24.5493C454.85 24.7893 453.89 25.1793 453.32 25.7193C452.78 26.2293 452.51 26.8893 452.51 27.6993C452.51 28.5393 452.78 29.2293 453.32 29.7693C453.89 30.2793 454.7 30.6693 455.75 30.9393C456.8 31.1793 458.045 31.2993 459.485 31.2993C461.375 31.2993 462.98 31.0743 464.3 30.6243C465.62 30.1743 466.685 29.6193 467.495 28.9593C468.305 28.2993 468.905 27.6543 469.295 27.0243C469.685 26.3943 469.88 25.8993 469.88 25.5393ZM506.822 11.5893H512.897V34.9443H506.822V11.5893ZM489.767 11.5893H510.287V15.9093H489.767V11.5893ZM480.812 30.0393C482.312 30.1893 483.512 29.9943 484.412 29.4543C485.342 28.8843 486.092 27.9243 486.662 26.5743C486.962 25.8543 487.202 25.0293 487.382 24.0993C487.592 23.1393 487.742 22.0593 487.832 20.8593C487.952 19.6293 488.027 18.2493 488.057 16.7193C488.087 15.1893 488.102 13.4793 488.102 11.5893H493.727C493.727 13.3293 493.697 14.9793 493.637 16.5393C493.607 18.0993 493.532 19.5843 493.412 20.9943C493.322 22.4043 493.157 23.7243 492.917 24.9543C492.707 26.1843 492.422 27.2943 492.062 28.2843C491.522 29.9643 490.787 31.3293 489.857 32.3793C488.927 33.4293 487.727 34.1793 486.257 34.6293C484.787 35.0493 482.972 35.1693 480.812 34.9893V30.0393ZM536.663 30.9393C538.913 30.9393 540.908 30.6693 542.648 30.1293C544.388 29.5893 545.753 28.7643 546.743 27.6543C547.763 26.5143 548.273 25.0443 548.273 23.2443C548.273 21.4743 547.763 20.0343 546.743 18.9243C545.753 17.7843 544.388 16.9443 542.648 16.4043C540.908 15.8343 538.913 15.5493 536.663 15.5493C534.503 15.5493 532.553 15.8343 530.813 16.4043C529.073 16.9443 527.693 17.7843 526.673 18.9243C525.653 20.0643 525.143 21.5043 525.143 23.2443C525.143 25.0143 525.653 26.4693 526.673 27.6093C527.693 28.7493 529.073 29.5893 530.813 30.1293C532.553 30.6693 534.503 30.9393 536.663 30.9393ZM536.663 35.3943C533.273 35.3943 530.228 34.9443 527.528 34.0443C524.858 33.1143 522.758 31.7493 521.228 29.9493C519.698 28.1493 518.933 25.9143 518.933 23.2443C518.933 20.6043 519.698 18.3843 521.228 16.5843C522.758 14.7843 524.858 13.4343 527.528 12.5343C530.228 11.6043 533.273 11.1393 536.663 11.1393C540.113 11.1393 543.173 11.6043 545.843 12.5343C548.543 13.4343 550.658 14.7843 552.188 16.5843C553.748 18.3843 554.528 20.6043 554.528 23.2443C554.528 25.9143 553.748 28.1493 552.188 29.9493C550.658 31.7493 548.543 33.1143 545.843 34.0443C543.143 34.9443 540.083 35.3943 536.663 35.3943ZM566.591 11.5893V34.9443H560.561V11.5893H566.591ZM575.366 34.9443H564.296V30.8493H575.366C577.166 30.8493 578.666 30.8043 579.866 30.7143C581.096 30.5943 582.026 30.3243 582.656 29.9043C583.286 29.4843 583.601 28.8243 583.601 27.9243C583.601 27.0543 583.316 26.4093 582.746 25.9893C582.206 25.5393 581.306 25.2393 580.046 25.0893C578.816 24.9393 577.196 24.8643 575.186 24.8643H564.296V21.0843H575.051C577.361 21.0843 579.116 20.9043 580.316 20.5443C581.546 20.1843 582.161 19.4643 582.161 18.3843C582.161 17.1543 581.606 16.4043 580.496 16.1343C579.416 15.8343 577.691 15.6843 575.321 15.6843H564.386V11.5893H575.366C578.426 11.5893 580.886 11.7693 582.746 12.1293C584.636 12.4893 586.016 13.1043 586.886 13.9743C587.786 14.8143 588.236 15.9693 588.236 17.4393C588.236 19.2993 587.456 20.6343 585.896 21.4443C584.366 22.2243 582.206 22.7793 579.416 23.1093V22.3443C582.806 22.4943 585.386 23.0193 587.156 23.9193C588.926 24.7893 589.811 26.2443 589.811 28.2843C589.811 29.9643 589.241 31.2993 588.101 32.2893C586.991 33.2493 585.356 33.9393 583.196 34.3593C581.066 34.7493 578.456 34.9443 575.366 34.9443ZM609.373 15.5493C607.813 15.5493 606.268 15.6693 604.738 15.9093C603.238 16.1193 601.843 16.3893 600.553 16.7193C599.263 17.0493 598.123 17.4393 597.133 17.8893V13.4343C598.483 12.8343 600.313 12.3093 602.623 11.8593C604.963 11.3793 607.543 11.1393 610.363 11.1393C613.303 11.1393 615.808 11.4243 617.878 11.9943C619.978 12.5343 621.583 13.4043 622.693 14.6043C623.803 15.8043 624.358 17.3793 624.358 19.3293V31.1643C624.358 31.6743 624.388 32.3343 624.448 33.1443C624.538 33.9243 624.628 34.5243 624.718 34.9443H619.093C618.973 34.5243 618.853 33.9393 618.733 33.1893C618.643 32.4093 618.568 31.7343 618.508 31.1643L618.283 28.7343V19.9593C618.283 18.8193 617.968 17.9343 617.338 17.3043C616.738 16.6443 615.778 16.1943 614.458 15.9543C613.138 15.6843 611.443 15.5493 609.373 15.5493ZM618.283 25.5393L619.678 27.6993C619.618 28.0893 619.438 28.5993 619.138 29.2293C618.868 29.8593 618.418 30.5343 617.788 31.2543C617.158 31.9743 616.333 32.6493 615.313 33.2793C614.293 33.9093 613.033 34.4193 611.533 34.8093C610.033 35.1993 608.248 35.3943 606.178 35.3943C603.868 35.3943 601.873 35.1243 600.193 34.5843C598.543 34.0443 597.253 33.2493 596.323 32.1993C595.393 31.1193 594.928 29.7843 594.928 28.1943C594.928 26.4243 595.483 24.9843 596.593 23.8743C597.703 22.7643 599.383 21.9393 601.633 21.3993C603.913 20.8293 606.778 20.5443 610.228 20.5443H618.823V24.1443H610.183C607.813 24.1443 605.953 24.2793 604.603 24.5493C603.253 24.7893 602.293 25.1793 601.723 25.7193C601.183 26.2293 600.913 26.8893 600.913 27.6993C600.913 28.5393 601.183 29.2293 601.723 29.7693C602.293 30.2793 603.103 30.6693 604.153 30.9393C605.203 31.1793 606.448 31.2993 607.888 31.2993C609.778 31.2993 611.383 31.0743 612.703 30.6243C614.023 30.1743 615.088 29.6193 615.898 28.9593C616.708 28.2993 617.308 27.6543 617.698 27.0243C618.088 26.3943 618.283 25.8993 618.283 25.5393ZM640.697 12.5343H646.727V34.9443H640.697V12.5343ZM628.952 11.5893H658.607V15.9093H628.952V11.5893ZM669.73 11.5893V34.9443H663.61V11.5893H669.73ZM676.57 30.7593C678.43 30.7593 679.975 30.6693 681.205 30.4893C682.435 30.2793 683.365 29.9043 683.995 29.3643C684.625 28.8243 684.94 28.0593 684.94 27.0693C684.94 26.0793 684.67 25.3143 684.13 24.7743C683.59 24.2343 682.72 23.8743 681.52 23.6943C680.32 23.4843 678.775 23.3793 676.885 23.3793H668.875V19.1493H677.425C682.135 19.1493 685.615 19.7343 687.865 20.9043C690.115 22.0443 691.24 24.0393 691.24 26.8893C691.24 28.8393 690.685 30.4143 689.575 31.6143C688.465 32.7843 686.845 33.6393 684.715 34.1793C682.615 34.6893 680.065 34.9443 677.065 34.9443H668.875V30.7593H676.57Z" fill="white"/>
<path d="M21.0539 74.5893V97.9443H15.0239V74.5893H21.0539ZM29.8289 97.9443H18.7589V93.8493H29.8289C31.6289 93.8493 33.1289 93.8043 34.3289 93.7143C35.5589 93.5943 36.4889 93.3243 37.1189 92.9043C37.7489 92.4843 38.0639 91.8243 38.0639 90.9243C38.0639 90.0543 37.7789 89.4093 37.2089 88.9893C36.6689 88.5393 35.7689 88.2393 34.5089 88.0893C33.2789 87.9393 31.6589 87.8643 29.6489 87.8643H18.7589V84.0843H29.5139C31.8239 84.0843 33.5789 83.9043 34.7789 83.5443C36.0089 83.1843 36.6239 82.4643 36.6239 81.3843C36.6239 80.1543 36.0689 79.4043 34.9589 79.1343C33.8789 78.8343 32.1539 78.6843 29.7839 78.6843H18.8489V74.5893H29.8289C32.8889 74.5893 35.3489 74.7693 37.2089 75.1293C39.0989 75.4893 40.4789 76.1043 41.3489 76.9743C42.2489 77.8143 42.6989 78.9693 42.6989 80.4393C42.6989 82.2993 41.9189 83.6343 40.3589 84.4443C38.8289 85.2243 36.6689 85.7793 33.8789 86.1093V85.3443C37.2689 85.4943 39.8489 86.0193 41.6189 86.9193C43.3889 87.7893 44.2739 89.2443 44.2739 91.2843C44.2739 92.9643 43.7039 94.2993 42.5639 95.2893C41.4539 96.2493 39.8189 96.9393 37.6589 97.3593C35.5289 97.7493 32.9189 97.9443 29.8289 97.9443ZM82.0993 74.6793C85.2193 74.6793 87.9943 75.1143 90.4243 75.9843C92.8543 76.8543 94.7593 78.1443 96.1393 79.8543C97.5193 81.5643 98.2093 83.7243 98.2093 86.3343C98.2093 89.0343 97.4593 91.2843 95.9593 93.0843C94.4593 94.8543 92.3743 96.1893 89.7043 97.0893C87.0343 97.9593 83.9143 98.3943 80.3443 98.3943C76.8943 98.3943 73.8343 97.8843 71.1643 96.8643C68.4943 95.8443 66.3943 94.3143 64.8643 92.2743C63.3343 90.2343 62.5693 87.6693 62.5693 84.5793C62.5693 83.0193 62.6293 81.5493 62.7493 80.1693C62.8693 78.7593 63.0943 77.4243 63.4243 76.1643C63.7543 74.9043 64.2493 73.7343 64.9093 72.6543C65.5993 71.5443 66.4843 70.5543 67.5643 69.6843C68.6743 68.8143 70.0543 68.0493 71.7043 67.3893C72.8743 66.9393 74.0743 66.5943 75.3043 66.3543C76.5643 66.0843 77.8243 65.8743 79.0843 65.7243C80.3743 65.5743 81.6643 65.4843 82.9543 65.4543C84.2743 65.3943 85.5793 65.3493 86.8693 65.3193C88.3993 65.2593 89.7043 65.1693 90.7843 65.0493C91.8643 64.9293 92.7943 64.7943 93.5743 64.6443C94.3543 64.4643 95.0293 64.2393 95.5993 63.9693V68.6943C94.9993 68.9943 94.3243 69.2343 93.5743 69.4143C92.8243 69.5643 91.9243 69.6843 90.8743 69.7743C89.8243 69.8343 88.5343 69.9093 87.0043 69.9993C85.3543 70.0593 83.7493 70.1493 82.1893 70.2693C80.6293 70.3593 79.1443 70.5093 77.7343 70.7193C76.3543 70.8993 75.0643 71.1843 73.8643 71.5743C71.9743 72.3243 70.5493 73.3443 69.5893 74.6343C68.6593 75.9243 68.0293 77.4093 67.6993 79.0893C67.3693 80.7693 67.1743 82.6143 67.1143 84.6243L66.2143 86.0193C66.2743 83.6193 66.9043 81.5793 68.1043 79.8993C69.3343 78.1893 71.1193 76.8993 73.4593 76.0293C75.7993 75.1293 78.6793 74.6793 82.0993 74.6793ZM80.2993 93.9393C82.6693 93.9393 84.7243 93.6993 86.4643 93.2193C88.2043 92.7393 89.5543 91.9443 90.5143 90.8343C91.4743 89.7243 91.9543 88.2543 91.9543 86.4243C91.9543 84.5943 91.4743 83.1393 90.5143 82.0593C89.5843 80.9493 88.2643 80.1543 86.5543 79.6743C84.8443 79.1943 82.8043 78.9543 80.4343 78.9543C78.2143 78.9543 76.2193 79.2243 74.4493 79.7643C72.7093 80.2743 71.3293 81.0843 70.3093 82.1943C69.3193 83.2743 68.8243 84.6543 68.8243 86.3343C68.8243 88.0743 69.3193 89.5143 70.3093 90.6543C71.2993 91.7643 72.6643 92.5893 74.4043 93.1293C76.1443 93.6693 78.1093 93.9393 80.2993 93.9393ZM104.504 97.9443L106.754 94.8393L129.569 74.5893H135.329L133.889 77.0193L110.399 97.9443H104.504ZM110.219 74.5893V93.6243L110.129 97.9443H104.189V74.5893H110.219ZM129.704 74.5893H135.644V97.9443H129.614V78.0993L129.704 74.5893ZM154.351 98.3943C152.491 98.3943 150.796 98.3043 149.266 98.1243C147.766 97.9443 146.461 97.7043 145.351 97.4043C144.241 97.1043 143.311 96.8193 142.561 96.5493V92.1843C143.491 92.5443 144.556 92.8743 145.756 93.1743C146.956 93.4743 148.276 93.7143 149.716 93.8943C151.156 94.0443 152.641 94.1193 154.171 94.1193C156.181 94.1193 157.876 94.0443 159.256 93.8943C160.636 93.7443 161.686 93.4443 162.406 92.9943C163.156 92.5443 163.531 91.8843 163.531 91.0143C163.531 90.1443 163.201 89.4993 162.541 89.0793C161.911 88.6593 160.936 88.3893 159.616 88.2693C158.296 88.1193 156.616 88.0443 154.576 88.0443H149.041V84.0843H154.486C156.256 84.0843 157.711 83.9943 158.851 83.8143C160.021 83.6043 160.891 83.2893 161.461 82.8693C162.031 82.4193 162.316 81.8493 162.316 81.1593C162.316 80.3493 162.001 79.7643 161.371 79.4043C160.741 79.0143 159.841 78.7593 158.671 78.6393C157.501 78.4893 156.061 78.4143 154.351 78.4143C152.071 78.4143 149.971 78.5943 148.051 78.9543C146.131 79.3143 144.481 79.7643 143.101 80.3043V75.9843C143.911 75.6843 144.856 75.3993 145.936 75.1293C147.046 74.8293 148.351 74.5893 149.851 74.4093C151.351 74.2293 153.046 74.1393 154.936 74.1393C157.906 74.1393 160.351 74.3493 162.271 74.7693C164.221 75.1893 165.676 75.8643 166.636 76.7943C167.596 77.6943 168.076 78.9093 168.076 80.4393C168.076 81.5493 167.776 82.4793 167.176 83.2293C166.576 83.9793 165.646 84.5793 164.386 85.0293C163.126 85.4793 161.521 85.8393 159.571 86.1093V85.2993C161.881 85.4493 163.756 85.7643 165.196 86.2443C166.666 86.7243 167.746 87.3693 168.436 88.1793C169.156 88.9593 169.516 89.9493 169.516 91.1493C169.516 92.9793 168.856 94.4193 167.536 95.4693C166.246 96.5193 164.461 97.2693 162.181 97.7193C159.901 98.1693 157.291 98.3943 154.351 98.3943ZM200.602 74.5893H206.722V97.9443H200.602V74.5893ZM182.422 74.5893V97.9443H176.347V74.5893H182.422ZM179.722 83.8593H203.707V88.1793H179.722V83.8593ZM231.892 98.3943C227.452 98.3943 223.807 97.9293 220.957 96.9993C218.137 96.0693 216.052 94.7043 214.702 92.9043C213.382 91.0743 212.722 88.8543 212.722 86.2443C212.722 84.2943 213.127 82.5693 213.937 81.0693C214.747 79.5393 215.902 78.2643 217.402 77.2443C218.932 76.2243 220.762 75.4593 222.892 74.9493C225.052 74.4093 227.482 74.1393 230.182 74.1393C232.792 74.1393 235.132 74.4393 237.202 75.0393C239.302 75.6093 241.042 76.4643 242.422 77.6043C243.802 78.7443 244.747 80.1693 245.257 81.8793C245.767 83.5593 245.767 85.5093 245.257 87.7293H216.187V83.7243H241.612L239.317 85.0743C239.587 83.9043 239.557 82.8993 239.227 82.0593C238.897 81.2193 238.312 80.5293 237.472 79.9893C236.632 79.4493 235.582 79.0443 234.322 78.7743C233.092 78.5043 231.712 78.3693 230.182 78.3693C228.412 78.3693 226.837 78.5193 225.457 78.8193C224.077 79.1193 222.907 79.5993 221.947 80.2593C220.987 80.8893 220.252 81.6993 219.742 82.6893C219.232 83.6793 218.977 84.8643 218.977 86.2443C218.977 88.0143 219.412 89.4843 220.282 90.6543C221.152 91.8243 222.547 92.6793 224.467 93.2193C226.387 93.7593 228.967 94.0293 232.207 94.0293C234.187 94.0293 235.942 93.9243 237.472 93.7143C239.002 93.5043 240.352 93.2343 241.522 92.9043C242.692 92.5743 243.652 92.2293 244.402 91.8693V96.1893C243.712 96.4893 242.827 96.8193 241.747 97.1793C240.667 97.5093 239.317 97.7943 237.697 98.0343C236.107 98.2743 234.172 98.3943 231.892 98.3943ZM267.778 98.3943C263.878 98.3943 260.548 97.9593 257.788 97.0893C255.028 96.1893 252.928 94.8393 251.488 93.0393C250.048 91.2393 249.328 88.9743 249.328 86.2443C249.328 83.6043 250.078 81.3993 251.578 79.6293C253.078 77.8293 255.208 76.4643 257.968 75.5343C260.758 74.6043 264.088 74.1393 267.958 74.1393C269.488 74.1393 270.928 74.2293 272.278 74.4093C273.628 74.5593 274.843 74.7843 275.923 75.0843C277.033 75.3843 277.993 75.7293 278.803 76.1193V80.5293C277.813 80.0793 276.763 79.7193 275.653 79.4493C274.543 79.1493 273.388 78.9243 272.188 78.7743C270.988 78.6243 269.698 78.5493 268.318 78.5493C265.468 78.5493 263.098 78.8193 261.208 79.3593C259.318 79.8993 257.893 80.7243 256.933 81.8343C256.003 82.9443 255.538 84.4143 255.538 86.2443C255.538 88.1343 255.988 89.6493 256.888 90.7893C257.788 91.8993 259.168 92.7093 261.028 93.2193C262.918 93.6993 265.258 93.9393 268.048 93.9393C270.268 93.9393 272.233 93.7743 273.943 93.4443C275.653 93.1143 277.273 92.6493 278.803 92.0493V96.4143C277.963 96.8043 277.003 97.1493 275.923 97.4493C274.873 97.7493 273.673 97.9743 272.323 98.1243C271.003 98.3043 269.488 98.3943 267.778 98.3943ZM283.903 86.4243V81.9243H300.868V86.4243H283.903ZM314.433 74.5893V97.9443H308.403V74.5893H314.433ZM310.158 74.5893H331.533V78.9093H310.158V74.5893ZM337.055 74.5893H342.59L343.04 79.1793L343.085 81.2943L342.32 85.8843L343.13 90.7443V105.909H337.055V74.5893ZM340.745 86.2893V84.8943C340.895 83.3943 341.33 81.9993 342.05 80.7093C342.8 79.3893 343.82 78.2493 345.11 77.2893C346.43 76.3293 348.035 75.5643 349.925 74.9943C351.815 74.4243 353.975 74.1393 356.405 74.1393C359.525 74.1393 362.315 74.5743 364.775 75.4443C367.265 76.2843 369.23 77.6043 370.67 79.4043C372.11 81.1743 372.83 83.4543 372.83 86.2443C372.83 89.0343 372.11 91.3293 370.67 93.1293C369.23 94.9293 367.25 96.2643 364.73 97.1343C362.24 97.9743 359.435 98.3943 356.315 98.3943C353.825 98.3943 351.605 98.0793 349.655 97.4493C347.735 96.7893 346.115 95.9043 344.795 94.7943C343.475 93.6543 342.47 92.3643 341.78 90.9243C341.09 89.4543 340.745 87.9093 340.745 86.2893ZM366.53 86.2443C366.53 84.4743 366.05 83.0343 365.09 81.9243C364.16 80.7843 362.81 79.9443 361.04 79.4043C359.3 78.8343 357.245 78.5493 354.875 78.5493C352.625 78.5493 350.6 78.8343 348.8 79.4043C347.03 79.9743 345.62 80.8293 344.57 81.9693C343.55 83.0793 343.04 84.5043 343.04 86.2443C343.04 87.9543 343.55 89.3943 344.57 90.5643C345.62 91.7043 347.03 92.5593 348.8 93.1293C350.6 93.6693 352.625 93.9393 354.875 93.9393C357.245 93.9393 359.3 93.6693 361.04 93.1293C362.78 92.5893 364.13 91.7643 365.09 90.6543C366.05 89.5143 366.53 88.0443 366.53 86.2443ZM381.517 106.359C380.497 106.359 379.612 106.269 378.862 106.089C378.112 105.939 377.407 105.744 376.747 105.504V100.734C377.377 101.094 378.082 101.379 378.862 101.589C379.642 101.799 380.512 101.904 381.472 101.904C382.582 101.904 383.542 101.799 384.352 101.589C385.192 101.379 385.942 101.064 386.602 100.644C387.292 100.224 387.907 99.6993 388.447 99.0693L374.092 74.5893H380.887L392.362 94.6143H391.147L402.037 74.5893H408.202L395.512 97.3143C394.732 98.7243 393.907 99.9843 393.037 101.094C392.167 102.234 391.192 103.194 390.112 103.974C389.062 104.754 387.832 105.339 386.422 105.729C385.042 106.149 383.407 106.359 381.517 106.359ZM416.501 74.5893H439.856V78.9093H416.501V74.5893ZM419.156 74.5893V97.9443H413.081V74.5893H419.156ZM436.706 74.5893H442.736V97.9443H436.706V74.5893ZM454.557 74.5893H477.912V78.9093H454.557V74.5893ZM457.212 74.5893V97.9443H451.137V74.5893H457.212ZM474.762 74.5893H480.792V97.9443H474.762V74.5893ZM492.347 106.359C491.327 106.359 490.442 106.269 489.692 106.089C488.942 105.939 488.237 105.744 487.577 105.504V100.734C488.207 101.094 488.912 101.379 489.692 101.589C490.472 101.799 491.342 101.904 492.302 101.904C493.412 101.904 494.372 101.799 495.182 101.589C496.022 101.379 496.772 101.064 497.432 100.644C498.122 100.224 498.737 99.6993 499.277 99.0693L484.922 74.5893H491.717L503.192 94.6143H501.977L512.867 74.5893H519.032L506.342 97.3143C505.562 98.7243 504.737 99.9843 503.867 101.094C502.997 102.234 502.022 103.194 500.942 103.974C499.892 104.754 498.662 105.339 497.252 105.729C495.872 106.149 494.237 106.359 492.347 106.359ZM569.894 65.6793H576.284V97.9443H569.894V65.6793ZM538.079 65.6793H544.469V97.9443H538.079V65.6793ZM541.004 70.4943V65.6793H572.234V70.4943H541.004ZM600.823 93.9393C603.073 93.9393 605.068 93.6693 606.808 93.1293C608.548 92.5893 609.913 91.7643 610.903 90.6543C611.923 89.5143 612.433 88.0443 612.433 86.2443C612.433 84.4743 611.923 83.0343 610.903 81.9243C609.913 80.7843 608.548 79.9443 606.808 79.4043C605.068 78.8343 603.073 78.5493 600.823 78.5493C598.663 78.5493 596.713 78.8343 594.973 79.4043C593.233 79.9443 591.853 80.7843 590.833 81.9243C589.813 83.0643 589.303 84.5043 589.303 86.2443C589.303 88.0143 589.813 89.4693 590.833 90.6093C591.853 91.7493 593.233 92.5893 594.973 93.1293C596.713 93.6693 598.663 93.9393 600.823 93.9393ZM600.823 98.3943C597.433 98.3943 594.388 97.9443 591.688 97.0443C589.018 96.1143 586.918 94.7493 585.388 92.9493C583.858 91.1493 583.093 88.9143 583.093 86.2443C583.093 83.6043 583.858 81.3843 585.388 79.5843C586.918 77.7843 589.018 76.4343 591.688 75.5343C594.388 74.6043 597.433 74.1393 600.823 74.1393C604.273 74.1393 607.333 74.6043 610.003 75.5343C612.703 76.4343 614.818 77.7843 616.348 79.5843C617.908 81.3843 618.688 83.6043 618.688 86.2443C618.688 88.9143 617.908 91.1493 616.348 92.9493C614.818 94.7493 612.703 96.1143 610.003 97.0443C607.303 97.9443 604.243 98.3943 600.823 98.3943ZM625.036 97.9443L627.286 94.8393L650.101 74.5893H655.861L654.421 77.0193L630.931 97.9443H625.036ZM630.751 74.5893V93.6243L630.661 97.9443H624.721V74.5893H630.751ZM650.236 74.5893H656.176V97.9443H650.146V78.0993L650.236 74.5893ZM680.689 98.3943C676.789 98.3943 673.459 97.9593 670.699 97.0893C667.939 96.1893 665.839 94.8393 664.399 93.0393C662.959 91.2393 662.239 88.9743 662.239 86.2443C662.239 83.6043 662.989 81.3993 664.489 79.6293C665.989 77.8293 668.119 76.4643 670.879 75.5343C673.669 74.6043 676.999 74.1393 680.869 74.1393C682.399 74.1393 683.839 74.2293 685.189 74.4093C686.539 74.5593 687.754 74.7843 688.834 75.0843C689.944 75.3843 690.904 75.7293 691.714 76.1193V80.5293C690.724 80.0793 689.674 79.7193 688.564 79.4493C687.454 79.1493 686.299 78.9243 685.099 78.7743C683.899 78.6243 682.609 78.5493 681.229 78.5493C678.379 78.5493 676.009 78.8193 674.119 79.3593C672.229 79.8993 670.804 80.7243 669.844 81.8343C668.914 82.9443 668.449 84.4143 668.449 86.2443C668.449 88.1343 668.899 89.6493 669.799 90.7893C670.699 91.8993 672.079 92.7093 673.939 93.2193C675.829 93.6993 678.169 93.9393 680.959 93.9393C683.179 93.9393 685.144 93.7743 686.854 93.4443C688.564 93.1143 690.184 92.6493 691.714 92.0493V96.4143C690.874 96.8043 689.914 97.1493 688.834 97.4493C687.784 97.7493 686.584 97.9743 685.234 98.1243C683.914 98.3043 682.399 98.3943 680.689 98.3943ZM697.758 74.5893H703.833V97.9443H697.758V74.5893ZM727.728 97.9443H719.673L705.723 86.4243L720.078 74.5893H727.323L712.293 86.8293L711.573 84.3993L727.728 97.9443ZM701.853 88.5393V84.2193H710.133V88.5393H701.853ZM744.505 78.5493C742.945 78.5493 741.4 78.6693 739.87 78.9093C738.37 79.1193 736.975 79.3893 735.685 79.7193C734.395 80.0493 733.255 80.4393 732.265 80.8893V76.4343C733.615 75.8343 735.445 75.3093 737.755 74.8593C740.095 74.3793 742.675 74.1393 745.495 74.1393C748.435 74.1393 750.94 74.4243 753.01 74.9943C755.11 75.5343 756.715 76.4043 757.825 77.6043C758.935 78.8043 759.49 80.3793 759.49 82.3293V94.1643C759.49 94.6743 759.52 95.3343 759.58 96.1443C759.67 96.9243 759.76 97.5243 759.85 97.9443H754.225C754.105 97.5243 753.985 96.9393 753.865 96.1893C753.775 95.4093 753.7 94.7343 753.64 94.1643L753.415 91.7343V82.9593C753.415 81.8193 753.1 80.9343 752.47 80.3043C751.87 79.6443 750.91 79.1943 749.59 78.9543C748.27 78.6843 746.575 78.5493 744.505 78.5493ZM753.415 88.5393L754.81 90.6993C754.75 91.0893 754.57 91.5993 754.27 92.2293C754 92.8593 753.55 93.5343 752.92 94.2543C752.29 94.9743 751.465 95.6493 750.445 96.2793C749.425 96.9093 748.165 97.4193 746.665 97.8093C745.165 98.1993 743.38 98.3943 741.31 98.3943C739 98.3943 737.005 98.1243 735.325 97.5843C733.675 97.0443 732.385 96.2493 731.455 95.1993C730.525 94.1193 730.06 92.7843 730.06 91.1943C730.06 89.4243 730.615 87.9843 731.725 86.8743C732.835 85.7643 734.515 84.9393 736.765 84.3993C739.045 83.8293 741.91 83.5443 745.36 83.5443H753.955V87.1443H745.315C742.945 87.1443 741.085 87.2793 739.735 87.5493C738.385 87.7893 737.425 88.1793 736.855 88.7193C736.315 89.2293 736.045 89.8893 736.045 90.6993C736.045 91.5393 736.315 92.2293 736.855 92.7693C737.425 93.2793 738.235 93.6693 739.285 93.9393C740.335 94.1793 741.58 94.2993 743.02 94.2993C744.91 94.2993 746.515 94.0743 747.835 93.6243C749.155 93.1743 750.22 92.6193 751.03 91.9593C751.84 91.2993 752.44 90.6543 752.83 90.0243C753.22 89.3943 753.415 88.8993 753.415 88.5393ZM1.07869 160.944L3.32869 157.839L26.1437 137.589H31.9037L30.4637 140.019L6.97369 160.944H1.07869ZM6.79369 137.589V156.624L6.70369 160.944H0.763692V137.589H6.79369ZM26.2787 137.589H32.2187V160.944H26.1887V141.099L26.2787 137.589ZM71.8894 144.384C74.5594 144.384 76.7344 144.219 78.4144 143.889C80.1244 143.559 81.3994 142.989 82.2394 142.179C83.0794 141.339 83.4994 140.154 83.4994 138.624C83.4994 137.304 83.1094 136.284 82.3294 135.564C81.5794 134.814 80.3944 134.289 78.7744 133.989C77.1544 133.659 75.0244 133.494 72.3844 133.494H59.1094V128.679H72.4294C76.3894 128.679 79.6594 129.009 82.2394 129.669C84.8194 130.299 86.7394 131.334 87.9994 132.774C89.2594 134.184 89.8894 136.089 89.8894 138.489C89.8894 141.099 89.1994 143.184 87.8194 144.744C86.4694 146.304 84.4594 147.429 81.7894 148.119C79.1494 148.809 75.8794 149.154 71.9794 149.154H59.1094V144.384H71.8894ZM54.8344 128.679H61.1794V160.944H54.8344V128.679ZM110.669 161.394C106.229 161.394 102.584 160.929 99.7338 159.999C96.9138 159.069 94.8288 157.704 93.4788 155.904C92.1588 154.074 91.4988 151.854 91.4988 149.244C91.4988 147.294 91.9038 145.569 92.7138 144.069C93.5238 142.539 94.6788 141.264 96.1788 140.244C97.7088 139.224 99.5388 138.459 101.669 137.949C103.829 137.409 106.259 137.139 108.959 137.139C111.569 137.139 113.909 137.439 115.979 138.039C118.079 138.609 119.819 139.464 121.199 140.604C122.579 141.744 123.524 143.169 124.034 144.879C124.544 146.559 124.544 148.509 124.034 150.729H94.9638V146.724H120.389L118.094 148.074C118.364 146.904 118.334 145.899 118.004 145.059C117.674 144.219 117.089 143.529 116.249 142.989C115.409 142.449 114.359 142.044 113.099 141.774C111.869 141.504 110.489 141.369 108.959 141.369C107.189 141.369 105.614 141.519 104.234 141.819C102.854 142.119 101.684 142.599 100.724 143.259C99.7638 143.889 99.0288 144.699 98.5188 145.689C98.0088 146.679 97.7538 147.864 97.7538 149.244C97.7538 151.014 98.1888 152.484 99.0588 153.654C99.9288 154.824 101.324 155.679 103.244 156.219C105.164 156.759 107.744 157.029 110.984 157.029C112.964 157.029 114.719 156.924 116.249 156.714C117.779 156.504 119.129 156.234 120.299 155.904C121.469 155.574 122.429 155.229 123.179 154.869V159.189C122.489 159.489 121.604 159.819 120.524 160.179C119.444 160.509 118.094 160.794 116.474 161.034C114.884 161.274 112.949 161.394 110.669 161.394ZM130.358 137.589H136.433V160.944H130.358V137.589ZM160.328 160.944H152.273L138.323 149.424L152.678 137.589H159.923L144.893 149.829L144.173 147.399L160.328 160.944ZM134.453 151.539V147.219H142.733V151.539H134.453ZM187.757 137.589H193.832V160.944H187.757V137.589ZM170.702 137.589H191.222V141.909H170.702V137.589ZM161.747 156.039C163.247 156.189 164.447 155.994 165.347 155.454C166.277 154.884 167.027 153.924 167.597 152.574C167.897 151.854 168.137 151.029 168.317 150.099C168.527 149.139 168.677 148.059 168.767 146.859C168.887 145.629 168.962 144.249 168.992 142.719C169.022 141.189 169.037 139.479 169.037 137.589H174.662C174.662 139.329 174.632 140.979 174.572 142.539C174.542 144.099 174.467 145.584 174.347 146.994C174.257 148.404 174.092 149.724 173.852 150.954C173.642 152.184 173.357 153.294 172.997 154.284C172.457 155.964 171.722 157.329 170.792 158.379C169.862 159.429 168.662 160.179 167.192 160.629C165.722 161.049 163.907 161.169 161.747 160.989V156.039ZM214.898 141.549C213.338 141.549 211.793 141.669 210.263 141.909C208.763 142.119 207.368 142.389 206.078 142.719C204.788 143.049 203.648 143.439 202.658 143.889V139.434C204.008 138.834 205.838 138.309 208.148 137.859C210.488 137.379 213.068 137.139 215.888 137.139C218.828 137.139 221.333 137.424 223.403 137.994C225.503 138.534 227.108 139.404 228.218 140.604C229.328 141.804 229.883 143.379 229.883 145.329V157.164C229.883 157.674 229.913 158.334 229.973 159.144C230.063 159.924 230.153 160.524 230.243 160.944H224.618C224.498 160.524 224.378 159.939 224.258 159.189C224.168 158.409 224.093 157.734 224.033 157.164L223.808 154.734V145.959C223.808 144.819 223.493 143.934 222.863 143.304C222.263 142.644 221.303 142.194 219.983 141.954C218.663 141.684 216.968 141.549 214.898 141.549ZM223.808 151.539L225.203 153.699C225.143 154.089 224.963 154.599 224.663 155.229C224.393 155.859 223.943 156.534 223.313 157.254C222.683 157.974 221.858 158.649 220.838 159.279C219.818 159.909 218.558 160.419 217.058 160.809C215.558 161.199 213.773 161.394 211.703 161.394C209.393 161.394 207.398 161.124 205.718 160.584C204.068 160.044 202.778 159.249 201.848 158.199C200.918 157.119 200.453 155.784 200.453 154.194C200.453 152.424 201.008 150.984 202.118 149.874C203.228 148.764 204.908 147.939 207.158 147.399C209.438 146.829 212.303 146.544 215.753 146.544H224.348V150.144H215.708C213.338 150.144 211.478 150.279 210.128 150.549C208.778 150.789 207.818 151.179 207.248 151.719C206.708 152.229 206.438 152.889 206.438 153.699C206.438 154.539 206.708 155.229 207.248 155.769C207.818 156.279 208.628 156.669 209.678 156.939C210.728 157.179 211.973 157.299 213.413 157.299C215.303 157.299 216.908 157.074 218.228 156.624C219.548 156.174 220.613 155.619 221.423 154.959C222.233 154.299 222.833 153.654 223.223 153.024C223.613 152.394 223.808 151.899 223.808 151.539ZM239.645 137.589H246.53L259.22 154.869L256.925 158.919H255.035L239.645 137.589ZM255.89 154.419L268.76 137.589H274.97L259.085 158.919H255.71L255.89 154.419ZM237.98 137.589H243.56V160.944H237.98V137.589ZM270.92 137.589H276.95V160.944H270.92V137.589ZM309.652 137.589H315.772V160.944H309.652V137.589ZM291.472 137.589V160.944H285.397V137.589H291.472ZM288.772 146.859H312.757V151.179H288.772V146.859ZM336.667 156.759C338.527 156.759 340.072 156.669 341.302 156.489C342.562 156.279 343.507 155.904 344.137 155.364C344.767 154.824 345.082 154.059 345.082 153.069C345.082 152.079 344.797 151.314 344.227 150.774C343.687 150.234 342.817 149.874 341.617 149.694C340.447 149.484 338.902 149.379 336.982 149.379H329.107V145.149H337.522C342.232 145.149 345.712 145.734 347.962 146.904C350.212 148.044 351.337 150.039 351.337 152.889C351.337 154.839 350.782 156.414 349.672 157.614C348.562 158.784 346.942 159.639 344.812 160.179C342.712 160.689 340.162 160.944 337.162 160.944H329.107V156.759H336.667ZM330.232 137.589V160.944H324.157V137.589H330.232ZM361.867 137.589V160.944H355.837V137.589H361.867ZM367.193 137.589H374.528L384.698 146.859L385.958 148.299L399.458 160.944H392.123L381.278 150.999L380.243 149.919L367.193 137.589ZM398.423 137.589L385.778 149.604L381.998 147.264L392.168 137.589H398.423ZM380.243 147.849L384.023 150.279L372.593 160.944H366.293L380.243 147.849ZM425.563 138.534H431.593V160.944H425.563V138.534ZM413.818 137.589H443.473V141.909H413.818V137.589ZM464.516 161.394C460.076 161.394 456.431 160.929 453.581 159.999C450.761 159.069 448.676 157.704 447.326 155.904C446.006 154.074 445.346 151.854 445.346 149.244C445.346 147.294 445.751 145.569 446.561 144.069C447.371 142.539 448.526 141.264 450.026 140.244C451.556 139.224 453.386 138.459 455.516 137.949C457.676 137.409 460.106 137.139 462.806 137.139C465.416 137.139 467.756 137.439 469.826 138.039C471.926 138.609 473.666 139.464 475.046 140.604C476.426 141.744 477.371 143.169 477.881 144.879C478.391 146.559 478.391 148.509 477.881 150.729H448.811V146.724H474.236L471.941 148.074C472.211 146.904 472.181 145.899 471.851 145.059C471.521 144.219 470.936 143.529 470.096 142.989C469.256 142.449 468.206 142.044 466.946 141.774C465.716 141.504 464.336 141.369 462.806 141.369C461.036 141.369 459.461 141.519 458.081 141.819C456.701 142.119 455.531 142.599 454.571 143.259C453.611 143.889 452.876 144.699 452.366 145.689C451.856 146.679 451.601 147.864 451.601 149.244C451.601 151.014 452.036 152.484 452.906 153.654C453.776 154.824 455.171 155.679 457.091 156.219C459.011 156.759 461.591 157.029 464.831 157.029C466.811 157.029 468.566 156.924 470.096 156.714C471.626 156.504 472.976 156.234 474.146 155.904C475.316 155.574 476.276 155.229 477.026 154.869V159.189C476.336 159.489 475.451 159.819 474.371 160.179C473.291 160.509 471.941 160.794 470.321 161.034C468.731 161.274 466.796 161.394 464.516 161.394ZM480.703 137.589H488.038L498.208 146.859L499.468 148.299L512.968 160.944H505.633L494.788 150.999L493.753 149.919L480.703 137.589ZM511.933 137.589L499.288 149.604L495.508 147.264L505.678 137.589H511.933ZM493.753 147.849L497.533 150.279L486.103 160.944H479.803L493.753 147.849ZM541.288 137.589H547.408V160.944H541.288V137.589ZM523.108 137.589V160.944H517.033V137.589H523.108ZM520.408 146.859H544.393V151.179H520.408V146.859ZM571.138 156.939C573.388 156.939 575.383 156.669 577.123 156.129C578.863 155.589 580.228 154.764 581.218 153.654C582.238 152.514 582.748 151.044 582.748 149.244C582.748 147.474 582.238 146.034 581.218 144.924C580.228 143.784 578.863 142.944 577.123 142.404C575.383 141.834 573.388 141.549 571.138 141.549C568.978 141.549 567.028 141.834 565.288 142.404C563.548 142.944 562.168 143.784 561.148 144.924C560.128 146.064 559.618 147.504 559.618 149.244C559.618 151.014 560.128 152.469 561.148 153.609C562.168 154.749 563.548 155.589 565.288 156.129C567.028 156.669 568.978 156.939 571.138 156.939ZM571.138 161.394C567.748 161.394 564.703 160.944 562.003 160.044C559.333 159.114 557.233 157.749 555.703 155.949C554.173 154.149 553.408 151.914 553.408 149.244C553.408 146.604 554.173 144.384 555.703 142.584C557.233 140.784 559.333 139.434 562.003 138.534C564.703 137.604 567.748 137.139 571.138 137.139C574.588 137.139 577.648 137.604 580.318 138.534C583.018 139.434 585.133 140.784 586.663 142.584C588.223 144.384 589.003 146.604 589.003 149.244C589.003 151.914 588.223 154.149 586.663 155.949C585.133 157.749 583.018 159.114 580.318 160.044C577.618 160.944 574.558 161.394 571.138 161.394ZM616.927 137.589H623.002V160.944H616.927V137.589ZM599.872 137.589H620.392V141.909H599.872V137.589ZM590.917 156.039C592.417 156.189 593.617 155.994 594.517 155.454C595.447 154.884 596.197 153.924 596.767 152.574C597.067 151.854 597.307 151.029 597.487 150.099C597.697 149.139 597.847 148.059 597.937 146.859C598.057 145.629 598.132 144.249 598.162 142.719C598.192 141.189 598.207 139.479 598.207 137.589H603.832C603.832 139.329 603.802 140.979 603.742 142.539C603.712 144.099 603.637 145.584 603.517 146.994C603.427 148.404 603.262 149.724 603.022 150.954C602.812 152.184 602.527 153.294 602.167 154.284C601.627 155.964 600.892 157.329 599.962 158.379C599.032 159.429 597.832 160.179 596.362 160.629C594.892 161.049 593.077 161.169 590.917 160.989V156.039ZM646.768 156.939C649.018 156.939 651.013 156.669 652.753 156.129C654.493 155.589 655.858 154.764 656.848 153.654C657.868 152.514 658.378 151.044 658.378 149.244C658.378 147.474 657.868 146.034 656.848 144.924C655.858 143.784 654.493 142.944 652.753 142.404C651.013 141.834 649.018 141.549 646.768 141.549C644.608 141.549 642.658 141.834 640.918 142.404C639.178 142.944 637.798 143.784 636.778 144.924C635.758 146.064 635.248 147.504 635.248 149.244C635.248 151.014 635.758 152.469 636.778 153.609C637.798 154.749 639.178 155.589 640.918 156.129C642.658 156.669 644.608 156.939 646.768 156.939ZM646.768 161.394C643.378 161.394 640.333 160.944 637.633 160.044C634.963 159.114 632.863 157.749 631.333 155.949C629.803 154.149 629.038 151.914 629.038 149.244C629.038 146.604 629.803 144.384 631.333 142.584C632.863 140.784 634.963 139.434 637.633 138.534C640.333 137.604 643.378 137.139 646.768 137.139C650.218 137.139 653.278 137.604 655.948 138.534C658.648 139.434 660.763 140.784 662.293 142.584C663.853 144.384 664.633 146.604 664.633 149.244C664.633 151.914 663.853 154.149 662.293 155.949C660.763 157.749 658.648 159.114 655.948 160.044C653.248 160.944 650.188 161.394 646.768 161.394ZM676.696 137.589V160.944H670.666V137.589H676.696ZM672.421 137.589H693.796V141.909H672.421V137.589ZM699.633 160.944L701.883 157.839L724.698 137.589H730.458L729.018 140.019L705.528 160.944H699.633ZM705.348 137.589V156.624L705.258 160.944H699.318V137.589H705.348ZM724.833 137.589H730.773V160.944H724.743V141.099L724.833 137.589ZM754.881 134.844C752.661 134.844 750.846 134.544 749.436 133.944C748.056 133.314 747.036 132.504 746.376 131.514C745.746 130.524 745.431 129.459 745.431 128.319H751.056C751.056 129.339 751.401 130.074 752.091 130.524C752.811 130.974 753.741 131.199 754.881 131.199C756.081 131.199 757.011 130.974 757.671 130.524C758.361 130.074 758.706 129.339 758.706 128.319H764.286C764.286 129.459 763.956 130.524 763.296 131.514C762.666 132.504 761.661 133.314 760.281 133.944C758.931 134.544 757.131 134.844 754.881 134.844ZM739.536 160.944L741.786 157.839L764.601 137.589H770.361L768.921 140.019L745.431 160.944H739.536ZM745.251 137.589V156.624L745.161 160.944H739.221V137.589H745.251ZM764.736 137.589H770.676V160.944H764.646V141.099L764.736 137.589ZM782.948 161.259C782.108 161.259 781.388 161.094 780.788 160.764C780.188 160.434 779.708 160.014 779.348 159.504C779.018 158.964 778.853 158.379 778.853 157.749C778.853 157.119 779.018 156.549 779.348 156.039C779.708 155.499 780.188 155.079 780.788 154.779C781.388 154.479 782.108 154.329 782.948 154.329C783.758 154.329 784.463 154.479 785.063 154.779C785.663 155.079 786.128 155.499 786.458 156.039C786.818 156.549 786.998 157.119 786.998 157.749C786.998 158.379 786.818 158.964 786.458 159.504C786.128 160.014 785.663 160.434 785.063 160.764C784.463 161.094 783.758 161.259 782.948 161.259ZM779.843 128.679H786.098L785.288 151.494H780.563L779.843 128.679Z" fill="white" fill-opacity="0.16"/>
</svg>
