<svg width="111" height="46" viewBox="0 0 111 46" fill="none" xmlns="http://www.w3.org/2000/svg">
<g clip-path="url(#clip0_131_90887)">
<path d="M12.6948 17.1036C12.6948 18.2903 12.5682 19.3903 12.3148 20.4036C12.0748 21.4036 11.6948 22.2769 11.1748 23.0236C10.6682 23.7569 10.0148 24.3369 9.21484 24.7636C8.41484 25.1769 7.46818 25.3836 6.37484 25.3836C5.64151 25.3836 4.98818 25.3169 4.41484 25.1836C3.85484 25.0369 3.37484 24.8369 2.97484 24.5836V22.5236C3.48151 22.8436 4.01484 23.0769 4.57484 23.2236C5.14818 23.3703 5.71484 23.4436 6.27484 23.4436C6.88818 23.4436 7.42818 23.3369 7.89484 23.1236C8.37484 22.8969 8.77484 22.5836 9.09484 22.1836C9.42818 21.7703 9.69484 21.2836 9.89484 20.7236C10.0948 20.1636 10.2282 19.5436 10.2948 18.8636C9.84151 19.4236 9.31484 19.8303 8.71484 20.0836C8.12818 20.3369 7.48151 20.4636 6.77484 20.4636C6.13484 20.4636 5.52151 20.3636 4.93484 20.1636C4.36151 19.9636 3.86151 19.6636 3.43484 19.2636C3.00818 18.8636 2.66818 18.3636 2.41484 17.7636C2.16151 17.1636 2.03484 16.4636 2.03484 15.6636C2.03484 14.8769 2.17484 14.1769 2.45484 13.5636C2.74818 12.9369 3.13484 12.4103 3.61484 11.9836C4.09484 11.5436 4.64818 11.2103 5.27484 10.9836C5.91484 10.7569 6.58818 10.6436 7.29484 10.6436C9.04151 10.6436 10.3748 11.1836 11.2948 12.2636C12.2282 13.3436 12.6948 14.9569 12.6948 17.1036ZM7.27484 12.6036C6.90151 12.6036 6.54151 12.6636 6.19484 12.7836C5.86151 12.9036 5.56151 13.0903 5.29484 13.3436C5.04151 13.5969 4.83484 13.9103 4.67484 14.2836C4.52818 14.6569 4.45484 15.0969 4.45484 15.6036C4.45484 16.0969 4.52818 16.5303 4.67484 16.9036C4.82151 17.2636 5.02151 17.5703 5.27484 17.8236C5.52818 18.0636 5.81484 18.2436 6.13484 18.3636C6.46818 18.4836 6.80818 18.5436 7.15484 18.5436C7.55484 18.5436 7.93484 18.4836 8.29484 18.3636C8.65484 18.2436 8.96818 18.0636 9.23484 17.8236C9.50151 17.5703 9.70818 17.2569 9.85484 16.8836C10.0148 16.5103 10.0948 16.0769 10.0948 15.5836C10.0948 14.6236 9.83484 13.8903 9.31484 13.3836C8.79484 12.8636 8.11484 12.6036 7.27484 12.6036ZM20.5158 25.3836C19.6891 25.3836 18.9158 25.2303 18.1958 24.9236C17.4758 24.6036 16.8491 24.1369 16.3158 23.5236C15.7824 22.9103 15.3624 22.1436 15.0558 21.2236C14.7491 20.3036 14.5958 19.2303 14.5958 18.0036C14.5958 16.7903 14.7491 15.7236 15.0558 14.8036C15.3624 13.8836 15.7824 13.1169 16.3158 12.5036C16.8491 11.8903 17.4758 11.4303 18.1958 11.1236C18.9158 10.8169 19.6891 10.6636 20.5158 10.6636C21.3424 10.6636 22.1091 10.8169 22.8158 11.1236C23.5358 11.4303 24.1624 11.8903 24.6958 12.5036C25.2291 13.1036 25.6424 13.8636 25.9358 14.7836C26.2424 15.6903 26.3958 16.7503 26.3958 17.9636C26.3958 19.1769 26.2424 20.2436 25.9358 21.1636C25.6424 22.0836 25.2291 22.8569 24.6958 23.4836C24.1624 24.1103 23.5358 24.5836 22.8158 24.9036C22.1091 25.2236 21.3424 25.3836 20.5158 25.3836ZM20.4958 23.4436C20.9891 23.4436 21.4491 23.3503 21.8758 23.1636C22.3024 22.9636 22.6691 22.6503 22.9758 22.2236C23.2958 21.7969 23.5424 21.2436 23.7158 20.5636C23.9024 19.8703 23.9958 19.0236 23.9958 18.0236C23.9958 17.0236 23.9024 16.1836 23.7158 15.5036C23.5424 14.8103 23.2958 14.2503 22.9758 13.8236C22.6691 13.3836 22.3024 13.0703 21.8758 12.8836C21.4491 12.6836 20.9958 12.5836 20.5158 12.5836C20.0224 12.5836 19.5624 12.6836 19.1358 12.8836C18.7091 13.0703 18.3358 13.3836 18.0158 13.8236C17.7091 14.2503 17.4624 14.8103 17.2758 15.5036C17.1024 16.1836 17.0158 17.0236 17.0158 18.0236C17.0158 19.0236 17.1024 19.8703 17.2758 20.5636C17.4624 21.2436 17.7091 21.7969 18.0158 22.2236C18.3358 22.6503 18.7091 22.9636 19.1358 23.1636C19.5624 23.3503 20.0158 23.4436 20.4958 23.4436ZM42.7431 17.6636L39.6831 24.1836H37.9831L35.1031 17.6036V25.1836H33.0031V14.8036H36.1831L39.0231 21.2436L42.0231 14.8036H45.0631V25.1836H42.7431V17.6636ZM48.5711 21.5036C48.7178 20.8236 48.8111 19.9436 48.8511 18.8636C48.9044 17.7703 48.9311 16.4169 48.9311 14.8036H56.3911V25.1836H54.0711V16.6836H51.0511C51.0244 18.0569 50.9711 19.2703 50.8911 20.3236C50.8111 21.3769 50.6444 22.2703 50.3911 23.0036C50.1511 23.7236 49.7978 24.2769 49.3311 24.6636C48.8778 25.0503 48.2644 25.2436 47.4911 25.2436C47.3844 25.2436 47.2778 25.2369 47.1711 25.2236C47.0778 25.2236 46.9778 25.2169 46.8711 25.2036V23.0436C47.0044 23.0703 47.1044 23.0836 47.1711 23.0836C47.5311 23.0836 47.8178 22.9569 48.0311 22.7036C48.2578 22.4369 48.4378 22.0369 48.5711 21.5036ZM65.7188 20.8036H61.3388V25.1836H59.0188V14.8036H61.3388V18.9236H65.7188V14.8036H68.0388V25.1836H65.7188V20.8036Z" fill="white"/>
<ellipse cx="60.4338" cy="23.481" rx="50.598" ry="17.9201" transform="rotate(-12.9623 60.4338 23.481)" stroke="url(#paint0_linear_131_90887)" stroke-width="0.791367"/>
<g filter="url(#filter0_d_131_90887)">
<path d="M97.5782 35.206L97.0223 32.6396C96.5642 30.5247 95.0436 28.7977 93.0036 28.0755C95.0223 27.2958 96.4934 25.5265 96.8914 23.3993L97.3743 20.8183L97.9302 23.3846C98.3883 25.4996 99.9089 27.2266 101.949 27.9488C99.9301 28.7284 98.4591 30.4978 98.0611 32.6249L97.5782 35.206Z" fill="white"/>
</g>
</g>
<defs>
<filter id="filter0_d_131_90887" x="89.332" y="20.8184" width="16.2891" height="21.7315" filterUnits="userSpaceOnUse" color-interpolation-filters="sRGB">
<feFlood flood-opacity="0" result="BackgroundImageFix"/>
<feColorMatrix in="SourceAlpha" type="matrix" values="0 0 0 0 0 0 0 0 0 0 0 0 0 0 0 0 0 0 127 0" result="hardAlpha"/>
<feOffset dy="3.6719"/>
<feGaussianBlur stdDeviation="1.83595"/>
<feComposite in2="hardAlpha" operator="out"/>
<feColorMatrix type="matrix" values="0 0 0 0 1 0 0 0 0 1 0 0 0 0 1 0 0 0 0.4 0"/>
<feBlend mode="normal" in2="BackgroundImageFix" result="effect1_dropShadow_131_90887"/>
<feBlend mode="normal" in="SourceGraphic" in2="effect1_dropShadow_131_90887" result="shape"/>
</filter>
<linearGradient id="paint0_linear_131_90887" x1="80.4263" y1="39.4405" x2="32.9983" y2="10.7796" gradientUnits="userSpaceOnUse">
<stop stop-color="white"/>
<stop offset="1" stop-color="#4C7999" stop-opacity="0"/>
</linearGradient>
<clipPath id="clip0_131_90887">
<rect width="110" height="45.8993" fill="white" transform="translate(0.824219)"/>
</clipPath>
</defs>
</svg>
