<svg width="111" height="46" viewBox="0 0 111 46" fill="none" xmlns="http://www.w3.org/2000/svg">
<g clip-path="url(#clip0_131_90829)">
<path d="M7.25953 25.1836H4.89953V13.5836L1.89953 16.5236V14.1236L5.21953 10.8436H7.25953V25.1836ZM24.6377 17.6636L21.5777 24.1836H19.8777L16.9977 17.6036V25.1836H14.8977V14.8036H18.0777L20.9177 21.2436L23.9177 14.8036H26.9577V25.1836H24.6377V17.6636ZM30.4656 21.5036C30.6123 20.8236 30.7056 19.9436 30.7456 18.8636C30.799 17.7703 30.8256 16.4169 30.8256 14.8036H38.2856V25.1836H35.9656V16.6836H32.9456C32.919 18.0569 32.8656 19.2703 32.7856 20.3236C32.7056 21.3769 32.539 22.2703 32.2856 23.0036C32.0456 23.7236 31.6923 24.2769 31.2256 24.6636C30.7723 25.0503 30.159 25.2436 29.3856 25.2436C29.279 25.2436 29.1723 25.2369 29.0656 25.2236C28.9723 25.2236 28.8723 25.2169 28.7656 25.2036V23.0436C28.899 23.0703 28.999 23.0836 29.0656 23.0836C29.4256 23.0836 29.7123 22.9569 29.9256 22.7036C30.1523 22.4369 30.3323 22.0369 30.4656 21.5036ZM46.6333 25.3836C45.8466 25.3836 45.1666 25.2103 44.5933 24.8636C44.0333 24.5036 43.5799 24.0236 43.2333 23.4236V28.7236H40.9133V14.8036H43.0333L43.1933 16.6436C43.5399 16.0169 43.9999 15.5236 44.5733 15.1636C45.1466 14.7903 45.8466 14.6036 46.6733 14.6036C47.2866 14.6036 47.8666 14.7169 48.4133 14.9436C48.9733 15.1569 49.4599 15.4903 49.8733 15.9436C50.2866 16.3836 50.6133 16.9436 50.8533 17.6236C51.1066 18.2903 51.2333 19.0769 51.2333 19.9836C51.2333 20.9036 51.1066 21.7036 50.8533 22.3836C50.6133 23.0503 50.2799 23.6103 49.8533 24.0636C49.4399 24.5036 48.9533 24.8369 48.3933 25.0636C47.8333 25.2769 47.2466 25.3836 46.6333 25.3836ZM46.0733 23.4436C46.8999 23.4436 47.5666 23.1636 48.0733 22.6036C48.5933 22.0303 48.8533 21.1569 48.8533 19.9836C48.8533 18.8236 48.5933 17.9569 48.0733 17.3836C47.5666 16.8103 46.9066 16.5236 46.0933 16.5236C45.6799 16.5236 45.2999 16.5969 44.9533 16.7436C44.6066 16.8769 44.2999 17.0903 44.0333 17.3836C43.7799 17.6769 43.5799 18.0436 43.4333 18.4836C43.2866 18.9103 43.2133 19.4103 43.2133 19.9836C43.2133 20.5703 43.2866 21.0836 43.4333 21.5236C43.5799 21.9503 43.7799 22.3103 44.0333 22.6036C44.2866 22.8836 44.5866 23.0969 44.9333 23.2436C45.2933 23.3769 45.6733 23.4436 46.0733 23.4436ZM52.7231 23.3036C53.0298 23.0369 53.2698 22.6703 53.4431 22.2036C53.6298 21.7369 53.7765 21.1569 53.8831 20.4636C53.9898 19.7569 54.0698 18.9369 54.1231 18.0036C54.1765 17.0703 54.2231 16.0036 54.2631 14.8036H61.8631V23.3036H63.4231V28.1436H61.4031L61.2231 25.1836H54.0631L53.8831 28.1436H51.8431V23.3036H52.7231ZM59.5431 23.3036V16.6836H56.2631C56.1965 18.3236 56.0831 19.6836 55.9231 20.7636C55.7765 21.8303 55.5298 22.6769 55.1831 23.3036H59.5431Z" fill="white"/>
<ellipse cx="60.2385" cy="23.481" rx="50.598" ry="17.9201" transform="rotate(-12.9623 60.2385 23.481)" stroke="url(#paint0_linear_131_90829)" stroke-width="0.791367"/>
<g filter="url(#filter0_d_131_90829)">
<path d="M97.3829 35.206L96.827 32.6396C96.3689 30.5247 94.8483 28.7977 92.8083 28.0755C94.827 27.2958 96.2981 25.5265 96.6961 23.3993L97.179 20.8183L97.7349 23.3846C98.193 25.4996 99.7136 27.2266 101.754 27.9488C99.7348 28.7284 98.2638 30.4978 97.8658 32.6249L97.3829 35.206Z" fill="white"/>
</g>
</g>
<defs>
<filter id="filter0_d_131_90829" x="89.1367" y="20.8184" width="16.2891" height="21.7315" filterUnits="userSpaceOnUse" color-interpolation-filters="sRGB">
<feFlood flood-opacity="0" result="BackgroundImageFix"/>
<feColorMatrix in="SourceAlpha" type="matrix" values="0 0 0 0 0 0 0 0 0 0 0 0 0 0 0 0 0 0 127 0" result="hardAlpha"/>
<feOffset dy="3.6719"/>
<feGaussianBlur stdDeviation="1.83595"/>
<feComposite in2="hardAlpha" operator="out"/>
<feColorMatrix type="matrix" values="0 0 0 0 1 0 0 0 0 1 0 0 0 0 1 0 0 0 0.4 0"/>
<feBlend mode="normal" in2="BackgroundImageFix" result="effect1_dropShadow_131_90829"/>
<feBlend mode="normal" in="SourceGraphic" in2="effect1_dropShadow_131_90829" result="shape"/>
</filter>
<linearGradient id="paint0_linear_131_90829" x1="80.231" y1="39.4405" x2="32.8029" y2="10.7796" gradientUnits="userSpaceOnUse">
<stop stop-color="white"/>
<stop offset="1" stop-color="#4C7999" stop-opacity="0"/>
</linearGradient>
<clipPath id="clip0_131_90829">
<rect width="110" height="45.8993" fill="white" transform="translate(0.824219)"/>
</clipPath>
</defs>
</svg>
