<svg width="111" height="47" viewBox="0 0 111 47" fill="none" xmlns="http://www.w3.org/2000/svg">
<g clip-path="url(#clip0_131_90901)">
<path d="M1.59719 20.3514C1.54385 19.8847 1.55719 19.4314 1.63719 18.9914C1.73052 18.5381 1.89719 18.1381 2.13719 17.7914C2.37719 17.4447 2.69719 17.1647 3.09719 16.9514C3.51052 16.7381 4.01052 16.6314 4.59719 16.6314C5.15719 16.6314 5.65052 16.7247 6.07719 16.9114C6.50385 17.0981 6.88385 17.3047 7.21719 17.5314C7.56385 17.7447 7.89052 17.9447 8.19719 18.1314C8.50385 18.3181 8.81719 18.4114 9.13719 18.4114C9.56385 18.4114 9.87719 18.2647 10.0772 17.9714C10.2772 17.6647 10.3705 17.1714 10.3572 16.4914H12.1172C12.1705 16.9581 12.1505 17.4181 12.0572 17.8714C11.9639 18.3114 11.7972 18.7047 11.5572 19.0514C11.3172 19.3981 10.9905 19.6781 10.5772 19.8914C10.1772 20.1047 9.69052 20.2114 9.11719 20.2114C8.55719 20.2114 8.06385 20.1181 7.63719 19.9314C7.21052 19.7447 6.82385 19.5447 6.47719 19.3314C6.13052 19.1047 5.80385 18.8981 5.49719 18.7114C5.20385 18.5247 4.90385 18.4314 4.59719 18.4314C4.17052 18.4314 3.85052 18.5847 3.63719 18.8914C3.43719 19.1847 3.34385 19.6714 3.35719 20.3514H1.59719ZM23.4977 21.0714C23.4977 21.7381 23.371 22.3381 23.1177 22.8714C22.8643 23.3914 22.5043 23.8447 22.0377 24.2314C21.571 24.6047 21.011 24.8914 20.3577 25.0914C19.7043 25.2914 18.9777 25.3914 18.1777 25.3914C17.1777 25.3914 16.3243 25.2781 15.6177 25.0514C14.9243 24.8247 14.3577 24.5447 13.9177 24.2114V21.9714C14.371 22.3447 14.931 22.6847 15.5977 22.9914C16.2643 23.2847 17.0777 23.4314 18.0377 23.4314C18.9977 23.4314 19.7377 23.2181 20.2577 22.7914C20.7777 22.3647 21.0377 21.7781 21.0377 21.0314C21.0377 19.5114 20.051 18.7514 18.0777 18.7514H16.2777V16.7314H18.1577C18.891 16.7314 19.4843 16.5514 19.9377 16.1914C20.391 15.8181 20.6177 15.2914 20.6177 14.6114C20.6177 13.9981 20.3977 13.5181 19.9577 13.1714C19.5177 12.8114 18.8777 12.6314 18.0377 12.6314C17.171 12.6314 16.431 12.7781 15.8177 13.0714C15.2043 13.3514 14.651 13.6981 14.1577 14.1114V11.8914C14.6243 11.5181 15.191 11.2181 15.8577 10.9914C16.5243 10.7647 17.3377 10.6514 18.2977 10.6514C19.0177 10.6514 19.6643 10.7447 20.2377 10.9314C20.8243 11.1181 21.3177 11.3781 21.7177 11.7114C22.131 12.0447 22.4443 12.4447 22.6577 12.9114C22.8843 13.3781 22.9977 13.8914 22.9977 14.4514C22.9977 14.9181 22.9177 15.3314 22.7577 15.6914C22.611 16.0514 22.411 16.3714 22.1577 16.6514C21.9043 16.9181 21.611 17.1381 21.2777 17.3114C20.9443 17.4714 20.5977 17.5847 20.2377 17.6514C20.6643 17.7047 21.071 17.8247 21.4577 18.0114C21.8577 18.1847 22.2043 18.4181 22.4977 18.7114C22.8043 18.9914 23.0443 19.3314 23.2177 19.7314C23.4043 20.1314 23.4977 20.5781 23.4977 21.0714ZM31.09 25.3914C30.2633 25.3914 29.49 25.2381 28.77 24.9314C28.05 24.6114 27.4233 24.1447 26.89 23.5314C26.3567 22.9181 25.9367 22.1514 25.63 21.2314C25.3233 20.3114 25.17 19.2381 25.17 18.0114C25.17 16.7981 25.3233 15.7314 25.63 14.8114C25.9367 13.8914 26.3567 13.1247 26.89 12.5114C27.4233 11.8981 28.05 11.4381 28.77 11.1314C29.49 10.8247 30.2633 10.6714 31.09 10.6714C31.9167 10.6714 32.6833 10.8247 33.39 11.1314C34.11 11.4381 34.7367 11.8981 35.27 12.5114C35.8033 13.1114 36.2167 13.8714 36.51 14.7914C36.8167 15.6981 36.97 16.7581 36.97 17.9714C36.97 19.1847 36.8167 20.2514 36.51 21.1714C36.2167 22.0914 35.8033 22.8647 35.27 23.4914C34.7367 24.1181 34.11 24.5914 33.39 24.9114C32.6833 25.2314 31.9167 25.3914 31.09 25.3914ZM31.07 23.4514C31.5633 23.4514 32.0233 23.3581 32.45 23.1714C32.8767 22.9714 33.2433 22.6581 33.55 22.2314C33.87 21.8047 34.1167 21.2514 34.29 20.5714C34.4767 19.8781 34.57 19.0314 34.57 18.0314C34.57 17.0314 34.4767 16.1914 34.29 15.5114C34.1167 14.8181 33.87 14.2581 33.55 13.8314C33.2433 13.3914 32.8767 13.0781 32.45 12.8914C32.0233 12.6914 31.57 12.5914 31.09 12.5914C30.5967 12.5914 30.1367 12.6914 29.71 12.8914C29.2833 13.0781 28.91 13.3914 28.59 13.8314C28.2833 14.2581 28.0367 14.8181 27.85 15.5114C27.6767 16.1914 27.59 17.0314 27.59 18.0314C27.59 19.0314 27.6767 19.8781 27.85 20.5714C28.0367 21.2514 28.2833 21.8047 28.59 22.2314C28.91 22.6581 29.2833 22.9714 29.71 23.1714C30.1367 23.3581 30.59 23.4514 31.07 23.4514ZM53.3173 17.6714L50.2573 24.1914H48.5573L45.6773 17.6114V25.1914H43.5773V14.8114H46.7573L49.5973 21.2514L52.5973 14.8114H55.6373V25.1914H53.3173V17.6714ZM59.1453 21.5114C59.292 20.8314 59.3853 19.9514 59.4253 18.8714C59.4786 17.7781 59.5053 16.4247 59.5053 14.8114H66.9653V25.1914H64.6453V16.6914H61.6253C61.5986 18.0647 61.5453 19.2781 61.4653 20.3314C61.3853 21.3847 61.2186 22.2781 60.9653 23.0114C60.7253 23.7314 60.372 24.2847 59.9053 24.6714C59.452 25.0581 58.8386 25.2514 58.0653 25.2514C57.9586 25.2514 57.852 25.2447 57.7453 25.2314C57.652 25.2314 57.552 25.2247 57.4453 25.2114V23.0514C57.5786 23.0781 57.6786 23.0914 57.7453 23.0914C58.1053 23.0914 58.392 22.9647 58.6053 22.7114C58.832 22.4447 59.012 22.0447 59.1453 21.5114ZM76.293 20.8114H71.913V25.1914H69.593V14.8114H71.913V18.9314H76.293V14.8114H78.613V25.1914H76.293V20.8114Z" fill="white"/>
<ellipse cx="60.2656" cy="23.5683" rx="50.9647" ry="18.05" transform="rotate(-12.9623 60.2656 23.5683)" stroke="url(#paint0_linear_131_90901)" stroke-width="0.797102"/>
<g filter="url(#filter0_d_131_90901)">
<path d="M97.6786 35.3783L97.1187 32.7934C96.6573 30.6631 95.1257 28.9236 93.0709 28.1962C95.1042 27.4108 96.5859 25.6287 96.9868 23.4861L97.4732 20.8864L98.0331 23.4713C98.4946 25.6016 100.026 27.3411 102.081 28.0685C100.048 28.8538 98.5659 30.636 98.165 32.7786L97.6786 35.3783Z" fill="white"/>
</g>
</g>
<defs>
<filter id="filter0_d_131_90901" x="89.3728" y="20.8862" width="16.4068" height="21.8892" filterUnits="userSpaceOnUse" color-interpolation-filters="sRGB">
<feFlood flood-opacity="0" result="BackgroundImageFix"/>
<feColorMatrix in="SourceAlpha" type="matrix" values="0 0 0 0 0 0 0 0 0 0 0 0 0 0 0 0 0 0 127 0" result="hardAlpha"/>
<feOffset dy="3.69851"/>
<feGaussianBlur stdDeviation="1.84925"/>
<feComposite in2="hardAlpha" operator="out"/>
<feColorMatrix type="matrix" values="0 0 0 0 1 0 0 0 0 1 0 0 0 0 1 0 0 0 0.4 0"/>
<feBlend mode="normal" in2="BackgroundImageFix" result="effect1_dropShadow_131_90901"/>
<feBlend mode="normal" in="SourceGraphic" in2="effect1_dropShadow_131_90901" result="shape"/>
</filter>
<linearGradient id="paint0_linear_131_90901" x1="80.4029" y1="39.6434" x2="32.6312" y2="10.7749" gradientUnits="userSpaceOnUse">
<stop stop-color="white"/>
<stop offset="1" stop-color="#4C7999" stop-opacity="0"/>
</linearGradient>
<clipPath id="clip0_131_90901">
<rect width="110" height="46.2319" fill="white" transform="translate(0.824219)"/>
</clipPath>
</defs>
</svg>
