<svg width="111" height="46" viewBox="0 0 111 46" fill="none" xmlns="http://www.w3.org/2000/svg">
<g clip-path="url(#clip0_131_90855)">
<path d="M10.8309 21.9436V25.1836H8.53094V21.9436H1.85094V20.2036L8.17094 10.8436H10.8309V20.0036H12.6709V21.9436H10.8309ZM8.53094 20.0036V13.5036L4.15094 20.0036H8.53094ZM14.398 27.3836C14.6513 27.1036 14.8846 26.7436 15.098 26.3036C15.3246 25.8769 15.478 25.4903 15.558 25.1436C15.198 25.0503 14.9246 24.8769 14.738 24.6236C14.5513 24.3569 14.458 24.0636 14.458 23.7436C14.458 23.3169 14.598 22.9636 14.878 22.6836C15.158 22.3903 15.5313 22.2436 15.998 22.2436C16.4646 22.2436 16.8446 22.3969 17.138 22.7036C17.4313 22.9969 17.578 23.4236 17.578 23.9836C17.578 24.3169 17.5313 24.6503 17.438 24.9836C17.3446 25.3169 17.2246 25.6303 17.078 25.9236C16.9313 26.2303 16.7646 26.5103 16.578 26.7636C16.4046 27.0169 16.2313 27.2236 16.058 27.3836H14.398ZM28.7152 20.3836C28.7152 21.1303 28.5818 21.8103 28.3152 22.4236C28.0618 23.0369 27.7018 23.5636 27.2352 24.0036C26.7685 24.4436 26.2018 24.7836 25.5352 25.0236C24.8818 25.2636 24.1485 25.3836 23.3352 25.3836C22.4152 25.3836 21.6352 25.2903 20.9952 25.1036C20.3685 24.9036 19.8285 24.6569 19.3752 24.3636V22.1236C19.8418 22.4569 20.3818 22.7569 20.9952 23.0236C21.6085 23.2903 22.3552 23.4236 23.2352 23.4236C24.2085 23.4236 24.9552 23.1503 25.4752 22.6036C26.0085 22.0436 26.2752 21.3303 26.2752 20.4636C26.2752 19.5703 26.0418 18.8903 25.5752 18.4236C25.1218 17.9569 24.4818 17.7236 23.6552 17.7236C23.0952 17.7236 22.6418 17.8103 22.2952 17.9836C21.9485 18.1569 21.6885 18.3503 21.5152 18.5636H19.7152V10.8436H27.9952V12.9036H21.7952V16.5436C22.0485 16.3569 22.3685 16.1903 22.7552 16.0436C23.1418 15.8969 23.6352 15.8236 24.2352 15.8236C24.9018 15.8236 25.5085 15.9236 26.0552 16.1236C26.6018 16.3236 27.0685 16.6169 27.4552 17.0036C27.8552 17.3903 28.1618 17.8703 28.3752 18.4436C28.6018 19.0036 28.7152 19.6503 28.7152 20.3836ZM45.0439 17.6636L41.9839 24.1836H40.2839L37.4039 17.6036V25.1836H35.3039V14.8036H38.4839L41.3239 21.2436L44.3239 14.8036H47.3639V25.1836H45.0439V17.6636ZM50.8719 21.5036C51.0185 20.8236 51.1119 19.9436 51.1519 18.8636C51.2052 17.7703 51.2319 16.4169 51.2319 14.8036H58.6919V25.1836H56.3719V16.6836H53.3519C53.3252 18.0569 53.2719 19.2703 53.1919 20.3236C53.1119 21.3769 52.9452 22.2703 52.6919 23.0036C52.4519 23.7236 52.0985 24.2769 51.6319 24.6636C51.1785 25.0503 50.5652 25.2436 49.7919 25.2436C49.6852 25.2436 49.5785 25.2369 49.4719 25.2236C49.3785 25.2236 49.2785 25.2169 49.1719 25.2036V23.0436C49.3052 23.0703 49.4052 23.0836 49.4719 23.0836C49.8319 23.0836 50.1185 22.9569 50.3319 22.7036C50.5585 22.4369 50.7385 22.0369 50.8719 21.5036ZM67.0395 25.3836C66.2529 25.3836 65.5729 25.2103 64.9995 24.8636C64.4395 24.5036 63.9862 24.0236 63.6395 23.4236V28.7236H61.3195V14.8036H63.4395L63.5995 16.6436C63.9462 16.0169 64.4062 15.5236 64.9795 15.1636C65.5529 14.7903 66.2529 14.6036 67.0795 14.6036C67.6929 14.6036 68.2729 14.7169 68.8195 14.9436C69.3795 15.1569 69.8662 15.4903 70.2795 15.9436C70.6929 16.3836 71.0195 16.9436 71.2595 17.6236C71.5129 18.2903 71.6395 19.0769 71.6395 19.9836C71.6395 20.9036 71.5129 21.7036 71.2595 22.3836C71.0195 23.0503 70.6862 23.6103 70.2595 24.0636C69.8462 24.5036 69.3595 24.8369 68.7995 25.0636C68.2395 25.2769 67.6529 25.3836 67.0395 25.3836ZM66.4795 23.4436C67.3062 23.4436 67.9729 23.1636 68.4795 22.6036C68.9995 22.0303 69.2595 21.1569 69.2595 19.9836C69.2595 18.8236 68.9995 17.9569 68.4795 17.3836C67.9729 16.8103 67.3129 16.5236 66.4995 16.5236C66.0862 16.5236 65.7062 16.5969 65.3595 16.7436C65.0129 16.8769 64.7062 17.0903 64.4395 17.3836C64.1862 17.6769 63.9862 18.0436 63.8395 18.4836C63.6929 18.9103 63.6195 19.4103 63.6195 19.9836C63.6195 20.5703 63.6929 21.0836 63.8395 21.5236C63.9862 21.9503 64.1862 22.3103 64.4395 22.6036C64.6929 22.8836 64.9929 23.0969 65.3395 23.2436C65.6995 23.3769 66.0795 23.4436 66.4795 23.4436ZM73.1294 23.3036C73.436 23.0369 73.676 22.6703 73.8494 22.2036C74.036 21.7369 74.1827 21.1569 74.2894 20.4636C74.396 19.7569 74.476 18.9369 74.5294 18.0036C74.5827 17.0703 74.6294 16.0036 74.6694 14.8036H82.2694V23.3036H83.8294V28.1436H81.8094L81.6294 25.1836H74.4694L74.2894 28.1436H72.2494V23.3036H73.1294ZM79.9494 23.3036V16.6836H76.6694C76.6027 18.3236 76.4894 19.6836 76.3294 20.7636C76.1827 21.8303 75.936 22.6769 75.5894 23.3036H79.9494Z" fill="white"/>
<ellipse cx="60.4338" cy="23.481" rx="50.598" ry="17.9201" transform="rotate(-12.9623 60.4338 23.481)" stroke="url(#paint0_linear_131_90855)" stroke-width="0.791367"/>
<g filter="url(#filter0_d_131_90855)">
<path d="M97.5782 35.206L97.0223 32.6396C96.5642 30.5247 95.0436 28.7977 93.0036 28.0755C95.0223 27.2958 96.4934 25.5265 96.8914 23.3993L97.3743 20.8183L97.9302 23.3846C98.3883 25.4996 99.9089 27.2266 101.949 27.9488C99.9301 28.7284 98.4591 30.4978 98.0611 32.6249L97.5782 35.206Z" fill="white"/>
</g>
</g>
<defs>
<filter id="filter0_d_131_90855" x="89.332" y="20.8184" width="16.2891" height="21.7315" filterUnits="userSpaceOnUse" color-interpolation-filters="sRGB">
<feFlood flood-opacity="0" result="BackgroundImageFix"/>
<feColorMatrix in="SourceAlpha" type="matrix" values="0 0 0 0 0 0 0 0 0 0 0 0 0 0 0 0 0 0 127 0" result="hardAlpha"/>
<feOffset dy="3.6719"/>
<feGaussianBlur stdDeviation="1.83595"/>
<feComposite in2="hardAlpha" operator="out"/>
<feColorMatrix type="matrix" values="0 0 0 0 1 0 0 0 0 1 0 0 0 0 1 0 0 0 0.4 0"/>
<feBlend mode="normal" in2="BackgroundImageFix" result="effect1_dropShadow_131_90855"/>
<feBlend mode="normal" in="SourceGraphic" in2="effect1_dropShadow_131_90855" result="shape"/>
</filter>
<linearGradient id="paint0_linear_131_90855" x1="80.4263" y1="39.4405" x2="32.9983" y2="10.7796" gradientUnits="userSpaceOnUse">
<stop stop-color="white"/>
<stop offset="1" stop-color="#4C7999" stop-opacity="0"/>
</linearGradient>
<clipPath id="clip0_131_90855">
<rect width="110" height="45.8993" fill="white" transform="translate(0.824219)"/>
</clipPath>
</defs>
</svg>
