<svg width="111" height="47" viewBox="0 0 111 47" fill="none" xmlns="http://www.w3.org/2000/svg">
<g clip-path="url(#clip0_131_90861)">
<path d="M9.79328 20.5633C9.79328 21.3099 9.65995 21.9899 9.39328 22.6033C9.13995 23.2166 8.77995 23.7433 8.31328 24.1833C7.84661 24.6233 7.27995 24.9633 6.61328 25.2033C5.95995 25.4433 5.22662 25.5633 4.41328 25.5633C3.49328 25.5633 2.71328 25.4699 2.07328 25.2833C1.44661 25.0833 0.906615 24.8366 0.453281 24.5433V22.3033C0.919948 22.6366 1.45995 22.9366 2.07328 23.2033C2.68661 23.4699 3.43328 23.6033 4.31328 23.6033C5.28662 23.6033 6.03328 23.3299 6.55328 22.7833C7.08661 22.2233 7.35328 21.5099 7.35328 20.6433C7.35328 19.7499 7.11995 19.0699 6.65328 18.6033C6.19995 18.1366 5.55995 17.9033 4.73328 17.9033C4.17328 17.9033 3.71995 17.9899 3.37328 18.1633C3.02661 18.3366 2.76661 18.5299 2.59328 18.7433H0.793281V11.0233H9.07328V13.0833H2.87328V16.7233C3.12661 16.5366 3.44661 16.3699 3.83328 16.2233C4.21995 16.0766 4.71328 16.0033 5.31328 16.0033C5.97995 16.0033 6.58661 16.1033 7.13328 16.3033C7.67995 16.5033 8.14661 16.7966 8.53328 17.1833C8.93328 17.5699 9.23995 18.0499 9.45328 18.6233C9.67995 19.1833 9.79328 19.8299 9.79328 20.5633ZM20.3075 22.1233V25.3633H18.0075V22.1233H11.3275V20.3833L17.6475 11.0233H20.3075V20.1833H22.1475V22.1233H20.3075ZM18.0075 20.1833V13.6833L13.6275 20.1833H18.0075ZM38.3291 17.8433L35.2691 24.3633H33.5691L30.6891 17.7833V25.3633H28.5891V14.9833H31.7691L34.6091 21.4233L37.6091 14.9833H40.6491V25.3633H38.3291V17.8433ZM44.157 21.6833C44.3037 21.0033 44.397 20.1233 44.437 19.0433C44.4904 17.9499 44.517 16.5966 44.517 14.9833H51.977V25.3633H49.657V16.8633H46.637C46.6104 18.2366 46.557 19.4499 46.477 20.5033C46.397 21.5566 46.2304 22.4499 45.977 23.1833C45.737 23.9033 45.3837 24.4566 44.917 24.8433C44.4637 25.2299 43.8504 25.4233 43.077 25.4233C42.9704 25.4233 42.8637 25.4166 42.757 25.4033C42.6637 25.4033 42.5637 25.3966 42.457 25.3833V23.2233C42.5904 23.2499 42.6904 23.2633 42.757 23.2633C43.117 23.2633 43.4037 23.1366 43.617 22.8833C43.8437 22.6166 44.0237 22.2166 44.157 21.6833ZM61.3047 20.9833H56.9247V25.3633H54.6047V14.9833H56.9247V19.1033H61.3047V14.9833H63.6247V25.3633H61.3047V20.9833Z" fill="white"/>
<ellipse cx="59.7006" cy="23.8242" rx="51.3367" ry="18.1817" transform="rotate(-12.9623 59.7006 23.8242)" stroke="url(#paint0_linear_131_90861)" stroke-width="0.80292"/>
<g filter="url(#filter0_d_131_90861)">
<path d="M97.384 35.7206L96.82 33.1168C96.3552 30.9709 94.8124 29.2187 92.7427 28.486C94.7908 27.695 96.2833 25.8998 96.6872 23.7416L97.1771 21.1229L97.7411 23.7267C98.2059 25.8725 99.7487 27.6247 101.818 28.3574C99.7703 29.1485 98.2778 30.9437 97.874 33.1018L97.384 35.7206Z" fill="white"/>
</g>
</g>
<defs>
<filter id="filter0_d_131_90861" x="89.0167" y="21.123" width="16.5272" height="22.0487" filterUnits="userSpaceOnUse" color-interpolation-filters="sRGB">
<feFlood flood-opacity="0" result="BackgroundImageFix"/>
<feColorMatrix in="SourceAlpha" type="matrix" values="0 0 0 0 0 0 0 0 0 0 0 0 0 0 0 0 0 0 127 0" result="hardAlpha"/>
<feOffset dy="3.72551"/>
<feGaussianBlur stdDeviation="1.86275"/>
<feComposite in2="hardAlpha" operator="out"/>
<feColorMatrix type="matrix" values="0 0 0 0 1 0 0 0 0 1 0 0 0 0 1 0 0 0 0.4 0"/>
<feBlend mode="normal" in2="BackgroundImageFix" result="effect1_dropShadow_131_90861"/>
<feBlend mode="normal" in="SourceGraphic" in2="effect1_dropShadow_131_90861" result="shape"/>
</filter>
<linearGradient id="paint0_linear_131_90861" x1="79.9849" y1="40.0166" x2="31.8645" y2="10.9374" gradientUnits="userSpaceOnUse">
<stop stop-color="white"/>
<stop offset="1" stop-color="#4C7999" stop-opacity="0"/>
</linearGradient>
<clipPath id="clip0_131_90861">
<rect width="110" height="46.5693" fill="white" transform="translate(0.824219)"/>
</clipPath>
</defs>
</svg>
