<svg width="111" height="47" viewBox="0 0 111 47" fill="none" xmlns="http://www.w3.org/2000/svg">
<g clip-path="url(#clip0_131_90843)">
<path d="M4.15328 25.3633H1.65328L7.25328 13.0833H0.453281V11.0233H9.83328V12.6433L4.15328 25.3633ZM20.6917 20.5633C20.6917 21.3099 20.5584 21.9899 20.2917 22.6033C20.0384 23.2166 19.6784 23.7433 19.2117 24.1833C18.7451 24.6233 18.1784 24.9633 17.5117 25.2033C16.8584 25.4433 16.1251 25.5633 15.3117 25.5633C14.3917 25.5633 13.6117 25.4699 12.9717 25.2833C12.3451 25.0833 11.8051 24.8366 11.3517 24.5433V22.3033C11.8184 22.6366 12.3584 22.9366 12.9717 23.2033C13.5851 23.4699 14.3317 23.6033 15.2117 23.6033C16.1851 23.6033 16.9317 23.3299 17.4517 22.7833C17.9851 22.2233 18.2517 21.5099 18.2517 20.6433C18.2517 19.7499 18.0184 19.0699 17.5517 18.6033C17.0984 18.1366 16.4584 17.9033 15.6317 17.9033C15.0717 17.9033 14.6184 17.9899 14.2717 18.1633C13.9251 18.3366 13.6651 18.5299 13.4917 18.7433H11.6917V11.0233H19.9717V13.0833H13.7717V16.7233C14.0251 16.5366 14.3451 16.3699 14.7317 16.2233C15.1184 16.0766 15.6117 16.0033 16.2117 16.0033C16.8784 16.0033 17.4851 16.1033 18.0317 16.3033C18.5784 16.5033 19.0451 16.7966 19.4317 17.1833C19.8317 17.5699 20.1384 18.0499 20.3517 18.6233C20.5784 19.1833 20.6917 19.8299 20.6917 20.5633ZM37.0205 17.8433L33.9605 24.3633H32.2605L29.3805 17.7833V25.3633H27.2805V14.9833H30.4605L33.3005 21.4233L36.3005 14.9833H39.3405V25.3633H37.0205V17.8433ZM42.8484 21.6833C42.9951 21.0033 43.0884 20.1233 43.1284 19.0433C43.1818 17.9499 43.2084 16.5966 43.2084 14.9833H50.6684V25.3633H48.3484V16.8633H45.3284C45.3018 18.2366 45.2484 19.4499 45.1684 20.5033C45.0884 21.5566 44.9218 22.4499 44.6684 23.1833C44.4284 23.9033 44.0751 24.4566 43.6084 24.8433C43.1551 25.2299 42.5418 25.4233 41.7684 25.4233C41.6618 25.4233 41.5551 25.4166 41.4484 25.4033C41.3551 25.4033 41.2551 25.3966 41.1484 25.3833V23.2233C41.2818 23.2499 41.3818 23.2633 41.4484 23.2633C41.8084 23.2633 42.0951 23.1366 42.3084 22.8833C42.5351 22.6166 42.7151 22.2166 42.8484 21.6833ZM59.9961 20.9833H55.6161V25.3633H53.2961V14.9833H55.6161V19.1033H59.9961V14.9833H62.3161V25.3633H59.9961V20.9833Z" fill="white"/>
<ellipse cx="59.7006" cy="23.8242" rx="51.3367" ry="18.1817" transform="rotate(-12.9623 59.7006 23.8242)" stroke="url(#paint0_linear_131_90843)" stroke-width="0.80292"/>
<g filter="url(#filter0_d_131_90843)">
<path d="M97.384 35.7206L96.82 33.1168C96.3552 30.9709 94.8124 29.2187 92.7427 28.486C94.7908 27.695 96.2833 25.8998 96.6872 23.7416L97.1771 21.1229L97.7411 23.7267C98.2059 25.8725 99.7487 27.6247 101.818 28.3574C99.7703 29.1485 98.2778 30.9437 97.874 33.1018L97.384 35.7206Z" fill="white"/>
</g>
</g>
<defs>
<filter id="filter0_d_131_90843" x="89.0167" y="21.123" width="16.5272" height="22.0487" filterUnits="userSpaceOnUse" color-interpolation-filters="sRGB">
<feFlood flood-opacity="0" result="BackgroundImageFix"/>
<feColorMatrix in="SourceAlpha" type="matrix" values="0 0 0 0 0 0 0 0 0 0 0 0 0 0 0 0 0 0 127 0" result="hardAlpha"/>
<feOffset dy="3.72551"/>
<feGaussianBlur stdDeviation="1.86275"/>
<feComposite in2="hardAlpha" operator="out"/>
<feColorMatrix type="matrix" values="0 0 0 0 1 0 0 0 0 1 0 0 0 0 1 0 0 0 0.4 0"/>
<feBlend mode="normal" in2="BackgroundImageFix" result="effect1_dropShadow_131_90843"/>
<feBlend mode="normal" in="SourceGraphic" in2="effect1_dropShadow_131_90843" result="shape"/>
</filter>
<linearGradient id="paint0_linear_131_90843" x1="79.9849" y1="40.0166" x2="31.8645" y2="10.9374" gradientUnits="userSpaceOnUse">
<stop stop-color="white"/>
<stop offset="1" stop-color="#4C7999" stop-opacity="0"/>
</linearGradient>
<clipPath id="clip0_131_90843">
<rect width="110" height="46.5693" fill="white" transform="translate(0.824219)"/>
</clipPath>
</defs>
</svg>
