<svg width="111" height="47" viewBox="0 0 111 47" fill="none" xmlns="http://www.w3.org/2000/svg">
<g clip-path="url(#clip0_131_90849)">
<path d="M9.75406 25.4453H0.334063V23.1453C1.56073 22.1986 2.6074 21.3653 3.47406 20.6453C4.34073 19.9253 5.0474 19.2653 5.59406 18.6653C6.15406 18.052 6.56073 17.4786 6.81406 16.9453C7.0674 16.412 7.19406 15.852 7.19406 15.2653C7.19406 14.5453 6.97406 13.972 6.53406 13.5453C6.1074 13.1186 5.49406 12.9053 4.69406 12.9053C3.93406 12.9053 3.22073 13.072 2.55406 13.4053C1.90073 13.7386 1.29406 14.1786 0.734062 14.7253V12.4253C1.2674 11.9586 1.8674 11.592 2.53406 11.3253C3.20073 11.0453 4.00073 10.9053 4.93406 10.9053C5.6674 10.9053 6.32073 11.0053 6.89406 11.2053C7.48073 11.4053 7.98073 11.692 8.39406 12.0653C8.8074 12.4253 9.12073 12.872 9.33406 13.4053C9.56073 13.9253 9.67406 14.512 9.67406 15.1653C9.67406 15.8986 9.5274 16.5853 9.23406 17.2253C8.94073 17.8653 8.5074 18.5053 7.93406 19.1453C7.37406 19.7853 6.6674 20.452 5.81406 21.1453C4.97406 21.8253 4.00073 22.5786 2.89406 23.4053H9.75406V25.4453ZM21.6088 21.5253C21.6088 22.1653 21.4754 22.7453 21.2088 23.2653C20.9554 23.772 20.5954 24.2053 20.1288 24.5653C19.6754 24.912 19.1354 25.1786 18.5088 25.3653C17.8821 25.552 17.2021 25.6453 16.4688 25.6453C15.7221 25.6453 15.0288 25.5586 14.3888 25.3853C13.7621 25.1986 13.2154 24.932 12.7488 24.5853C12.2954 24.2253 11.9421 23.7986 11.6888 23.3053C11.4354 22.7986 11.3088 22.2253 11.3088 21.5853C11.3088 20.6786 11.5554 19.9186 12.0488 19.3053C12.5421 18.6786 13.2088 18.212 14.0488 17.9053C13.3688 17.6386 12.8221 17.232 12.4088 16.6853C12.0088 16.1386 11.8088 15.4653 11.8088 14.6653C11.8088 14.0653 11.9221 13.532 12.1488 13.0653C12.3888 12.5986 12.7154 12.212 13.1288 11.9053C13.5421 11.5853 14.0354 11.3453 14.6088 11.1853C15.1821 11.012 15.8021 10.9253 16.4688 10.9253C17.1221 10.9253 17.7354 11.0053 18.3088 11.1653C18.8821 11.3253 19.3754 11.5586 19.7888 11.8653C20.2021 12.172 20.5288 12.5586 20.7688 13.0253C21.0088 13.492 21.1288 14.0253 21.1288 14.6253C21.1288 15.4386 20.9221 16.1186 20.5088 16.6653C20.1088 17.212 19.5621 17.6253 18.8688 17.9053C19.7088 18.1986 20.3754 18.652 20.8688 19.2653C21.3621 19.8653 21.6088 20.6186 21.6088 21.5253ZM16.4688 17.0053C17.1621 17.0053 17.7221 16.8253 18.1488 16.4653C18.5888 16.1053 18.8088 15.592 18.8088 14.9253C18.8088 14.272 18.5888 13.7653 18.1488 13.4053C17.7221 13.032 17.1621 12.8453 16.4688 12.8453C15.7888 12.8453 15.2288 13.032 14.7888 13.4053C14.3488 13.7653 14.1288 14.272 14.1288 14.9253C14.1288 15.592 14.3488 16.1053 14.7888 16.4653C15.2288 16.8253 15.7888 17.0053 16.4688 17.0053ZM16.4688 23.7053C17.2688 23.7053 17.9221 23.4986 18.4288 23.0853C18.9488 22.6586 19.2088 22.0453 19.2088 21.2453C19.2088 20.4453 18.9488 19.832 18.4288 19.4053C17.9221 18.9786 17.2688 18.7653 16.4688 18.7653C15.6554 18.7653 14.9888 18.9786 14.4688 19.4053C13.9488 19.832 13.6888 20.4453 13.6888 21.2453C13.6888 22.0453 13.9488 22.6586 14.4688 23.0853C14.9888 23.4986 15.6554 23.7053 16.4688 23.7053ZM33.5228 21.5253C33.5228 22.1653 33.3895 22.7453 33.1228 23.2653C32.8695 23.772 32.5095 24.2053 32.0428 24.5653C31.5895 24.912 31.0495 25.1786 30.4228 25.3653C29.7961 25.552 29.1161 25.6453 28.3828 25.6453C27.6361 25.6453 26.9428 25.5586 26.3028 25.3853C25.6761 25.1986 25.1295 24.932 24.6628 24.5853C24.2095 24.2253 23.8561 23.7986 23.6028 23.3053C23.3495 22.7986 23.2228 22.2253 23.2228 21.5853C23.2228 20.6786 23.4695 19.9186 23.9628 19.3053C24.4561 18.6786 25.1228 18.212 25.9628 17.9053C25.2828 17.6386 24.7361 17.232 24.3228 16.6853C23.9228 16.1386 23.7228 15.4653 23.7228 14.6653C23.7228 14.0653 23.8361 13.532 24.0628 13.0653C24.3028 12.5986 24.6295 12.212 25.0428 11.9053C25.4561 11.5853 25.9495 11.3453 26.5228 11.1853C27.0961 11.012 27.7161 10.9253 28.3828 10.9253C29.0361 10.9253 29.6495 11.0053 30.2228 11.1653C30.7961 11.3253 31.2895 11.5586 31.7028 11.8653C32.1161 12.172 32.4428 12.5586 32.6828 13.0253C32.9228 13.492 33.0428 14.0253 33.0428 14.6253C33.0428 15.4386 32.8361 16.1186 32.4228 16.6653C32.0228 17.212 31.4761 17.6253 30.7828 17.9053C31.6228 18.1986 32.2895 18.652 32.7828 19.2653C33.2761 19.8653 33.5228 20.6186 33.5228 21.5253ZM28.3828 17.0053C29.0761 17.0053 29.6361 16.8253 30.0628 16.4653C30.5028 16.1053 30.7228 15.592 30.7228 14.9253C30.7228 14.272 30.5028 13.7653 30.0628 13.4053C29.6361 13.032 29.0761 12.8453 28.3828 12.8453C27.7028 12.8453 27.1428 13.032 26.7028 13.4053C26.2628 13.7653 26.0428 14.272 26.0428 14.9253C26.0428 15.592 26.2628 16.1053 26.7028 16.4653C27.1428 16.8253 27.7028 17.0053 28.3828 17.0053ZM28.3828 23.7053C29.1828 23.7053 29.8361 23.4986 30.3428 23.0853C30.8628 22.6586 31.1228 22.0453 31.1228 21.2453C31.1228 20.4453 30.8628 19.832 30.3428 19.4053C29.8361 18.9786 29.1828 18.7653 28.3828 18.7653C27.5695 18.7653 26.9028 18.9786 26.3828 19.4053C25.8628 19.832 25.6028 20.4453 25.6028 21.2453C25.6028 22.0453 25.8628 22.6586 26.3828 23.0853C26.9028 23.4986 27.5695 23.7053 28.3828 23.7053ZM49.7705 17.9253L46.7105 24.4453H45.0105L42.1305 17.8653V25.4453H40.0305V15.0653H43.2105L46.0505 21.5053L49.0505 15.0653H52.0905V25.4453H49.7705V17.9253ZM55.5984 21.7653C55.7451 21.0853 55.8384 20.2053 55.8784 19.1253C55.9318 18.032 55.9584 16.6786 55.9584 15.0653H63.4184V25.4453H61.0984V16.9453H58.0784C58.0518 18.3186 57.9984 19.532 57.9184 20.5853C57.8384 21.6386 57.6718 22.532 57.4184 23.2653C57.1784 23.9853 56.8251 24.5386 56.3584 24.9253C55.9051 25.312 55.2918 25.5053 54.5184 25.5053C54.4118 25.5053 54.3051 25.4986 54.1984 25.4853C54.1051 25.4853 54.0051 25.4786 53.8984 25.4653V23.3053C54.0318 23.332 54.1318 23.3453 54.1984 23.3453C54.5584 23.3453 54.8451 23.2186 55.0584 22.9653C55.2851 22.6986 55.4651 22.2986 55.5984 21.7653ZM72.7461 21.0653H68.3661V25.4453H66.0461V15.0653H68.3661V19.1853H72.7461V15.0653H75.0661V25.4453H72.7461V21.0653Z" fill="white"/>
<ellipse cx="59.5014" cy="23.9062" rx="51.3367" ry="18.1817" transform="rotate(-12.9623 59.5014 23.9062)" stroke="url(#paint0_linear_131_90849)" stroke-width="0.80292"/>
<g filter="url(#filter0_d_131_90849)">
<path d="M97.1887 35.8026L96.6247 33.1988C96.1599 31.0529 94.6171 29.3008 92.5473 28.568C94.5955 27.777 96.088 25.9818 96.4918 23.8236L96.9818 21.2049L97.5458 23.8087C98.0106 25.9545 99.5534 27.7067 101.623 28.4394C99.575 29.2305 98.0825 31.0257 97.6786 33.1839L97.1887 35.8026Z" fill="white"/>
</g>
</g>
<defs>
<filter id="filter0_d_131_90849" x="88.8214" y="21.2051" width="16.5272" height="22.0487" filterUnits="userSpaceOnUse" color-interpolation-filters="sRGB">
<feFlood flood-opacity="0" result="BackgroundImageFix"/>
<feColorMatrix in="SourceAlpha" type="matrix" values="0 0 0 0 0 0 0 0 0 0 0 0 0 0 0 0 0 0 127 0" result="hardAlpha"/>
<feOffset dy="3.72551"/>
<feGaussianBlur stdDeviation="1.86275"/>
<feComposite in2="hardAlpha" operator="out"/>
<feColorMatrix type="matrix" values="0 0 0 0 1 0 0 0 0 1 0 0 0 0 1 0 0 0 0.4 0"/>
<feBlend mode="normal" in2="BackgroundImageFix" result="effect1_dropShadow_131_90849"/>
<feBlend mode="normal" in="SourceGraphic" in2="effect1_dropShadow_131_90849" result="shape"/>
</filter>
<linearGradient id="paint0_linear_131_90849" x1="79.7857" y1="40.0986" x2="31.6653" y2="11.0194" gradientUnits="userSpaceOnUse">
<stop stop-color="white"/>
<stop offset="1" stop-color="#4C7999" stop-opacity="0"/>
</linearGradient>
<clipPath id="clip0_131_90849">
<rect width="110" height="46.5693" fill="white" transform="translate(0.824219)"/>
</clipPath>
</defs>
</svg>
