<svg width="111" height="46" viewBox="0 0 111 46" fill="none" xmlns="http://www.w3.org/2000/svg">
<g clip-path="url(#clip0_131_90875)">
<path d="M12.6909 17.1036C12.6909 18.2903 12.5643 19.3903 12.3109 20.4036C12.0709 21.4036 11.6909 22.2769 11.1709 23.0236C10.6643 23.7569 10.0109 24.3369 9.21094 24.7636C8.41094 25.1769 7.46427 25.3836 6.37094 25.3836C5.6376 25.3836 4.98427 25.3169 4.41094 25.1836C3.85094 25.0369 3.37094 24.8369 2.97094 24.5836V22.5236C3.4776 22.8436 4.01094 23.0769 4.57094 23.2236C5.14427 23.3703 5.71094 23.4436 6.27094 23.4436C6.88427 23.4436 7.42427 23.3369 7.89094 23.1236C8.37094 22.8969 8.77094 22.5836 9.09094 22.1836C9.42427 21.7703 9.69094 21.2836 9.89094 20.7236C10.0909 20.1636 10.2243 19.5436 10.2909 18.8636C9.8376 19.4236 9.31094 19.8303 8.71094 20.0836C8.12427 20.3369 7.4776 20.4636 6.77094 20.4636C6.13094 20.4636 5.5176 20.3636 4.93094 20.1636C4.3576 19.9636 3.8576 19.6636 3.43094 19.2636C3.00427 18.8636 2.66427 18.3636 2.41094 17.7636C2.1576 17.1636 2.03094 16.4636 2.03094 15.6636C2.03094 14.8769 2.17094 14.1769 2.45094 13.5636C2.74427 12.9369 3.13094 12.4103 3.61094 11.9836C4.09094 11.5436 4.64427 11.2103 5.27094 10.9836C5.91094 10.7569 6.58427 10.6436 7.29094 10.6436C9.0376 10.6436 10.3709 11.1836 11.2909 12.2636C12.2243 13.3436 12.6909 14.9569 12.6909 17.1036ZM7.27094 12.6036C6.8976 12.6036 6.5376 12.6636 6.19094 12.7836C5.8576 12.9036 5.5576 13.0903 5.29094 13.3436C5.0376 13.5969 4.83094 13.9103 4.67094 14.2836C4.52427 14.6569 4.45094 15.0969 4.45094 15.6036C4.45094 16.0969 4.52427 16.5303 4.67094 16.9036C4.8176 17.2636 5.0176 17.5703 5.27094 17.8236C5.52427 18.0636 5.81094 18.2436 6.13094 18.3636C6.46427 18.4836 6.80427 18.5436 7.15094 18.5436C7.55094 18.5436 7.93094 18.4836 8.29094 18.3636C8.65094 18.2436 8.96427 18.0636 9.23094 17.8236C9.4976 17.5703 9.70427 17.2569 9.85094 16.8836C10.0109 16.5103 10.0909 16.0769 10.0909 15.5836C10.0909 14.6236 9.83094 13.8903 9.31094 13.3836C8.79094 12.8636 8.11094 12.6036 7.27094 12.6036ZM13.6753 27.3836C13.9286 27.1036 14.162 26.7436 14.3753 26.3036C14.602 25.8769 14.7553 25.4903 14.8353 25.1436C14.4753 25.0503 14.202 24.8769 14.0153 24.6236C13.8286 24.3569 13.7353 24.0636 13.7353 23.7436C13.7353 23.3169 13.8753 22.9636 14.1553 22.6836C14.4353 22.3903 14.8086 22.2436 15.2753 22.2436C15.742 22.2436 16.122 22.3969 16.4153 22.7036C16.7086 22.9969 16.8553 23.4236 16.8553 23.9836C16.8553 24.3169 16.8086 24.6503 16.7153 24.9836C16.622 25.3169 16.502 25.6303 16.3553 25.9236C16.2086 26.2303 16.042 26.5103 15.8553 26.7636C15.682 27.0169 15.5086 27.2236 15.3353 27.3836H13.6753ZM29.1205 20.3836C29.1205 21.1703 28.9738 21.8769 28.6805 22.5036C28.4005 23.1169 28.0205 23.6369 27.5405 24.0636C27.0605 24.4903 26.5005 24.8169 25.8605 25.0436C25.2338 25.2703 24.5738 25.3836 23.8805 25.3836C22.1205 25.3836 20.7805 24.8503 19.8605 23.7836C18.9405 22.7036 18.4805 21.0636 18.4805 18.8636C18.4805 17.7036 18.6005 16.6236 18.8405 15.6236C19.0938 14.6103 19.4738 13.7369 19.9805 13.0036C20.4871 12.2703 21.1338 11.6969 21.9205 11.2836C22.7205 10.8569 23.6738 10.6436 24.7805 10.6436C25.5405 10.6436 26.1938 10.7169 26.7405 10.8636C27.3005 11.0103 27.7805 11.2036 28.1805 11.4436V13.5036C27.6738 13.1836 27.1338 12.9569 26.5605 12.8236C26.0005 12.6769 25.4405 12.6036 24.8805 12.6036C24.2671 12.6036 23.7205 12.7169 23.2405 12.9436C22.7738 13.1569 22.3738 13.4703 22.0405 13.8836C21.7071 14.2836 21.4405 14.7636 21.2405 15.3236C21.0405 15.8836 20.9071 16.5036 20.8405 17.1836C21.2938 16.6236 21.8138 16.2169 22.4005 15.9636C23.0005 15.7103 23.6605 15.5836 24.3805 15.5836C25.0205 15.5836 25.6271 15.6836 26.2005 15.8836C26.7738 16.0703 27.2738 16.3636 27.7005 16.7636C28.1405 17.1636 28.4871 17.6636 28.7405 18.2636C28.9938 18.8636 29.1205 19.5703 29.1205 20.3836ZM23.8605 23.4436C24.2338 23.4436 24.5871 23.3836 24.9205 23.2636C25.2671 23.1303 25.5671 22.9436 25.8205 22.7036C26.0871 22.4503 26.2938 22.1369 26.4405 21.7636C26.6005 21.3769 26.6805 20.9303 26.6805 20.4236C26.6805 19.9303 26.6071 19.5036 26.4605 19.1436C26.3138 18.7703 26.1138 18.4636 25.8605 18.2236C25.6071 17.9703 25.3205 17.7836 25.0005 17.6636C24.6805 17.5436 24.3471 17.4836 24.0005 17.4836C23.6005 17.4836 23.2205 17.5436 22.8605 17.6636C22.5005 17.7836 22.1871 17.9703 21.9205 18.2236C21.6538 18.4769 21.4405 18.7903 21.2805 19.1636C21.1338 19.5369 21.0605 19.9703 21.0605 20.4636C21.0605 20.9303 21.1271 21.3503 21.2605 21.7236C21.3938 22.0836 21.5871 22.3969 21.8405 22.6636C22.0938 22.9169 22.3871 23.1103 22.7205 23.2436C23.0671 23.3769 23.4471 23.4436 23.8605 23.4436ZM45.4345 17.6636L42.3745 24.1836H40.6745L37.7945 17.6036V25.1836H35.6945V14.8036H38.8745L41.7145 21.2436L44.7145 14.8036H47.7545V25.1836H45.4345V17.6636ZM51.2625 21.5036C51.4092 20.8236 51.5025 19.9436 51.5425 18.8636C51.5958 17.7703 51.6225 16.4169 51.6225 14.8036H59.0825V25.1836H56.7625V16.6836H53.7425C53.7158 18.0569 53.6625 19.2703 53.5825 20.3236C53.5025 21.3769 53.3358 22.2703 53.0825 23.0036C52.8425 23.7236 52.4892 24.2769 52.0225 24.6636C51.5692 25.0503 50.9558 25.2436 50.1825 25.2436C50.0758 25.2436 49.9692 25.2369 49.8625 25.2236C49.7692 25.2236 49.6692 25.2169 49.5625 25.2036V23.0436C49.6958 23.0703 49.7958 23.0836 49.8625 23.0836C50.2225 23.0836 50.5092 22.9569 50.7225 22.7036C50.9492 22.4369 51.1292 22.0369 51.2625 21.5036ZM68.4102 20.8036H64.0302V25.1836H61.7102V14.8036H64.0302V18.9236H68.4102V14.8036H70.7302V25.1836H68.4102V20.8036Z" fill="white"/>
<ellipse cx="60.4338" cy="23.481" rx="50.598" ry="17.9201" transform="rotate(-12.9623 60.4338 23.481)" stroke="url(#paint0_linear_131_90875)" stroke-width="0.791367"/>
<g filter="url(#filter0_d_131_90875)">
<path d="M97.5782 35.206L97.0223 32.6396C96.5642 30.5247 95.0436 28.7977 93.0036 28.0755C95.0223 27.2958 96.4934 25.5265 96.8914 23.3993L97.3743 20.8183L97.9302 23.3846C98.3883 25.4996 99.9089 27.2266 101.949 27.9488C99.9301 28.7284 98.4591 30.4978 98.0611 32.6249L97.5782 35.206Z" fill="white"/>
</g>
</g>
<defs>
<filter id="filter0_d_131_90875" x="89.332" y="20.8184" width="16.2891" height="21.7315" filterUnits="userSpaceOnUse" color-interpolation-filters="sRGB">
<feFlood flood-opacity="0" result="BackgroundImageFix"/>
<feColorMatrix in="SourceAlpha" type="matrix" values="0 0 0 0 0 0 0 0 0 0 0 0 0 0 0 0 0 0 127 0" result="hardAlpha"/>
<feOffset dy="3.6719"/>
<feGaussianBlur stdDeviation="1.83595"/>
<feComposite in2="hardAlpha" operator="out"/>
<feColorMatrix type="matrix" values="0 0 0 0 1 0 0 0 0 1 0 0 0 0 1 0 0 0 0.4 0"/>
<feBlend mode="normal" in2="BackgroundImageFix" result="effect1_dropShadow_131_90875"/>
<feBlend mode="normal" in="SourceGraphic" in2="effect1_dropShadow_131_90875" result="shape"/>
</filter>
<linearGradient id="paint0_linear_131_90875" x1="80.4263" y1="39.4405" x2="32.9983" y2="10.7796" gradientUnits="userSpaceOnUse">
<stop stop-color="white"/>
<stop offset="1" stop-color="#4C7999" stop-opacity="0"/>
</linearGradient>
<clipPath id="clip0_131_90875">
<rect width="110" height="45.8993" fill="white" transform="translate(0.824219)"/>
</clipPath>
</defs>
</svg>
