<svg width="111" height="47" viewBox="0 0 111 47" fill="none" xmlns="http://www.w3.org/2000/svg">
<g clip-path="url(#clip0_131_90869)">
<path d="M11.4525 20.4773C11.4525 21.264 11.3058 21.9707 11.0125 22.5973C10.7325 23.2107 10.3525 23.7307 9.8725 24.1573C9.3925 24.584 8.8325 24.9107 8.1925 25.1373C7.56583 25.364 6.90583 25.4773 6.2125 25.4773C4.4525 25.4773 3.1125 24.944 2.1925 23.8773C1.2725 22.7973 0.8125 21.1573 0.8125 18.9573C0.8125 17.7973 0.9325 16.7173 1.1725 15.7173C1.42583 14.704 1.80583 13.8307 2.3125 13.0973C2.81917 12.364 3.46583 11.7907 4.2525 11.3773C5.0525 10.9507 6.00583 10.7373 7.1125 10.7373C7.8725 10.7373 8.52583 10.8107 9.0725 10.9573C9.6325 11.104 10.1125 11.2973 10.5125 11.5373V13.5973C10.0058 13.2773 9.46583 13.0507 8.8925 12.9173C8.3325 12.7707 7.7725 12.6973 7.2125 12.6973C6.59917 12.6973 6.0525 12.8107 5.5725 13.0373C5.10583 13.2507 4.70583 13.564 4.3725 13.9773C4.03917 14.3773 3.7725 14.8573 3.5725 15.4173C3.3725 15.9773 3.23917 16.5973 3.1725 17.2773C3.62583 16.7173 4.14583 16.3107 4.7325 16.0573C5.3325 15.804 5.9925 15.6773 6.7125 15.6773C7.3525 15.6773 7.95917 15.7773 8.5325 15.9773C9.10583 16.164 9.60583 16.4573 10.0325 16.8573C10.4725 17.2573 10.8192 17.7573 11.0725 18.3573C11.3258 18.9573 11.4525 19.664 11.4525 20.4773ZM6.1925 23.5373C6.56583 23.5373 6.91917 23.4773 7.2525 23.3573C7.59917 23.224 7.89917 23.0373 8.1525 22.7973C8.41917 22.544 8.62583 22.2307 8.7725 21.8573C8.9325 21.4707 9.0125 21.024 9.0125 20.5173C9.0125 20.024 8.93917 19.5973 8.7925 19.2373C8.64583 18.864 8.44583 18.5573 8.1925 18.3173C7.93917 18.064 7.6525 17.8773 7.3325 17.7573C7.0125 17.6373 6.67917 17.5773 6.3325 17.5773C5.9325 17.5773 5.5525 17.6373 5.1925 17.7573C4.8325 17.8773 4.51917 18.064 4.2525 18.3173C3.98583 18.5707 3.7725 18.884 3.6125 19.2573C3.46583 19.6307 3.3925 20.064 3.3925 20.5573C3.3925 21.024 3.45917 21.444 3.5925 21.8173C3.72583 22.1773 3.91917 22.4907 4.1725 22.7573C4.42583 23.0107 4.71917 23.204 5.0525 23.3373C5.39917 23.4707 5.77917 23.5373 6.1925 23.5373ZM18.2205 25.2773H15.8605V13.6773L12.8605 16.6173V14.2173L16.1805 10.9373H18.2205V25.2773ZM21.1441 27.4773C21.3974 27.1973 21.6307 26.8373 21.8441 26.3973C22.0707 25.9707 22.2241 25.584 22.3041 25.2373C21.9441 25.144 21.6707 24.9707 21.4841 24.7173C21.2974 24.4507 21.2041 24.1573 21.2041 23.8373C21.2041 23.4107 21.3441 23.0573 21.6241 22.7773C21.9041 22.484 22.2774 22.3373 22.7441 22.3373C23.2107 22.3373 23.5907 22.4907 23.8841 22.7973C24.1774 23.0907 24.3241 23.5173 24.3241 24.0773C24.3241 24.4107 24.2774 24.744 24.1841 25.0773C24.0907 25.4107 23.9707 25.724 23.8241 26.0173C23.6774 26.324 23.5107 26.604 23.3241 26.8573C23.1507 27.1107 22.9774 27.3173 22.8041 27.4773H21.1441ZM35.4613 20.4773C35.4613 21.224 35.3279 21.904 35.0613 22.5173C34.8079 23.1307 34.4479 23.6573 33.9813 24.0973C33.5146 24.5373 32.9479 24.8773 32.2813 25.1173C31.6279 25.3573 30.8946 25.4773 30.0813 25.4773C29.1613 25.4773 28.3813 25.384 27.7413 25.1973C27.1146 24.9973 26.5746 24.7507 26.1213 24.4573V22.2173C26.5879 22.5507 27.1279 22.8507 27.7413 23.1173C28.3546 23.384 29.1013 23.5173 29.9813 23.5173C30.9546 23.5173 31.7013 23.244 32.2213 22.6973C32.7546 22.1373 33.0213 21.424 33.0213 20.5573C33.0213 19.664 32.7879 18.984 32.3213 18.5173C31.8679 18.0507 31.2279 17.8173 30.4013 17.8173C29.8413 17.8173 29.3879 17.904 29.0413 18.0773C28.6946 18.2507 28.4346 18.444 28.2613 18.6573H26.4613V10.9373H34.7413V12.9973H28.5413V16.6373C28.7946 16.4507 29.1146 16.284 29.5013 16.1373C29.8879 15.9907 30.3813 15.9173 30.9813 15.9173C31.6479 15.9173 32.2546 16.0173 32.8013 16.2173C33.3479 16.4173 33.8146 16.7107 34.2013 17.0973C34.6013 17.484 34.9079 17.964 35.1213 18.5373C35.3479 19.0973 35.4613 19.744 35.4613 20.4773ZM51.79 17.7573L48.73 24.2773H47.03L44.15 17.6973V25.2773H42.05V14.8973H45.23L48.07 21.3373L51.07 14.8973H54.11V25.2773H51.79V17.7573ZM57.618 21.5973C57.7646 20.9173 57.858 20.0373 57.898 18.9573C57.9513 17.864 57.978 16.5107 57.978 14.8973H65.438V25.2773H63.118V16.7773H60.098C60.0713 18.1507 60.018 19.364 59.938 20.4173C59.858 21.4707 59.6913 22.364 59.438 23.0973C59.198 23.8173 58.8446 24.3707 58.378 24.7573C57.9246 25.144 57.3113 25.3373 56.538 25.3373C56.4313 25.3373 56.3246 25.3307 56.218 25.3173C56.1246 25.3173 56.0246 25.3107 55.918 25.2973V23.1373C56.0513 23.164 56.1513 23.1773 56.218 23.1773C56.578 23.1773 56.8646 23.0507 57.078 22.7973C57.3046 22.5307 57.4846 22.1307 57.618 21.5973ZM74.7656 20.8973H70.3856V25.2773H68.0656V14.8973H70.3856V19.0173H74.7656V14.8973H77.0856V25.2773H74.7656V20.8973Z" fill="white"/>
<ellipse cx="59.8959" cy="23.7402" rx="51.3367" ry="18.1817" transform="rotate(-12.9623 59.8959 23.7402)" stroke="url(#paint0_linear_131_90869)" stroke-width="0.80292"/>
<g filter="url(#filter0_d_131_90869)">
<path d="M97.5832 35.6346L97.0192 33.0308C96.5544 30.885 95.0116 29.1328 92.9419 28.4001C94.99 27.609 96.4826 25.8138 96.8864 23.6556L97.3764 21.0369L97.9403 23.6407C98.4051 25.7866 99.9479 27.5388 102.018 28.2715C99.9695 29.0625 98.477 30.8577 98.0732 33.0159L97.5832 35.6346Z" fill="white"/>
</g>
</g>
<defs>
<filter id="filter0_d_131_90869" x="89.2159" y="21.0371" width="16.5272" height="22.0487" filterUnits="userSpaceOnUse" color-interpolation-filters="sRGB">
<feFlood flood-opacity="0" result="BackgroundImageFix"/>
<feColorMatrix in="SourceAlpha" type="matrix" values="0 0 0 0 0 0 0 0 0 0 0 0 0 0 0 0 0 0 127 0" result="hardAlpha"/>
<feOffset dy="3.72551"/>
<feGaussianBlur stdDeviation="1.86275"/>
<feComposite in2="hardAlpha" operator="out"/>
<feColorMatrix type="matrix" values="0 0 0 0 1 0 0 0 0 1 0 0 0 0 1 0 0 0 0.4 0"/>
<feBlend mode="normal" in2="BackgroundImageFix" result="effect1_dropShadow_131_90869"/>
<feBlend mode="normal" in="SourceGraphic" in2="effect1_dropShadow_131_90869" result="shape"/>
</filter>
<linearGradient id="paint0_linear_131_90869" x1="80.1802" y1="39.9326" x2="32.0599" y2="10.8534" gradientUnits="userSpaceOnUse">
<stop stop-color="white"/>
<stop offset="1" stop-color="#4C7999" stop-opacity="0"/>
</linearGradient>
<clipPath id="clip0_131_90869">
<rect width="110" height="46.5693" fill="white" transform="translate(0.824219)"/>
</clipPath>
</defs>
</svg>
