<svg width="111" height="47" viewBox="0 0 111 47" fill="none" xmlns="http://www.w3.org/2000/svg">
<g clip-path="url(#clip0_131_90907)">
<path d="M1.57328 21.4714L8.15328 18.4514L1.57328 15.4314V13.4914L10.0533 17.3714V19.5114L1.57328 23.3914V21.4714ZM21.3648 21.0714C21.3648 21.7381 21.2382 22.3381 20.9848 22.8714C20.7315 23.3914 20.3715 23.8447 19.9048 24.2314C19.4382 24.6047 18.8782 24.8914 18.2248 25.0914C17.5715 25.2914 16.8448 25.3914 16.0448 25.3914C15.0448 25.3914 14.1915 25.2781 13.4848 25.0514C12.7915 24.8247 12.2248 24.5447 11.7848 24.2114V21.9714C12.2382 22.3447 12.7982 22.6847 13.4648 22.9914C14.1315 23.2847 14.9448 23.4314 15.9048 23.4314C16.8648 23.4314 17.6048 23.2181 18.1248 22.7914C18.6448 22.3647 18.9048 21.7781 18.9048 21.0314C18.9048 19.5114 17.9182 18.7514 15.9448 18.7514H14.1448V16.7314H16.0248C16.7582 16.7314 17.3515 16.5514 17.8048 16.1914C18.2582 15.8181 18.4848 15.2914 18.4848 14.6114C18.4848 13.9981 18.2648 13.5181 17.8248 13.1714C17.3848 12.8114 16.7448 12.6314 15.9048 12.6314C15.0382 12.6314 14.2982 12.7781 13.6848 13.0714C13.0715 13.3514 12.5182 13.6981 12.0248 14.1114V11.8914C12.4915 11.5181 13.0582 11.2181 13.7248 10.9914C14.3915 10.7647 15.2048 10.6514 16.1648 10.6514C16.8848 10.6514 17.5315 10.7447 18.1048 10.9314C18.6915 11.1181 19.1848 11.3781 19.5848 11.7114C19.9982 12.0447 20.3115 12.4447 20.5248 12.9114C20.7515 13.3781 20.8648 13.8914 20.8648 14.4514C20.8648 14.9181 20.7848 15.3314 20.6248 15.6914C20.4782 16.0514 20.2782 16.3714 20.0248 16.6514C19.7715 16.9181 19.4782 17.1381 19.1448 17.3114C18.8115 17.4714 18.4648 17.5847 18.1048 17.6514C18.5315 17.7047 18.9382 17.8247 19.3248 18.0114C19.7248 18.1847 20.0715 18.4181 20.3648 18.7114C20.6715 18.9914 20.9115 19.3314 21.0848 19.7314C21.2715 20.1314 21.3648 20.5781 21.3648 21.0714ZM28.9572 25.3914C28.1305 25.3914 27.3572 25.2381 26.6372 24.9314C25.9172 24.6114 25.2905 24.1447 24.7572 23.5314C24.2239 22.9181 23.8039 22.1514 23.4972 21.2314C23.1905 20.3114 23.0372 19.2381 23.0372 18.0114C23.0372 16.7981 23.1905 15.7314 23.4972 14.8114C23.8039 13.8914 24.2239 13.1247 24.7572 12.5114C25.2905 11.8981 25.9172 11.4381 26.6372 11.1314C27.3572 10.8247 28.1305 10.6714 28.9572 10.6714C29.7839 10.6714 30.5505 10.8247 31.2572 11.1314C31.9772 11.4381 32.6039 11.8981 33.1372 12.5114C33.6705 13.1114 34.0839 13.8714 34.3772 14.7914C34.6839 15.6981 34.8372 16.7581 34.8372 17.9714C34.8372 19.1847 34.6839 20.2514 34.3772 21.1714C34.0839 22.0914 33.6705 22.8647 33.1372 23.4914C32.6039 24.1181 31.9772 24.5914 31.2572 24.9114C30.5505 25.2314 29.7839 25.3914 28.9572 25.3914ZM28.9372 23.4514C29.4305 23.4514 29.8905 23.3581 30.3172 23.1714C30.7439 22.9714 31.1105 22.6581 31.4172 22.2314C31.7372 21.8047 31.9839 21.2514 32.1572 20.5714C32.3439 19.8781 32.4372 19.0314 32.4372 18.0314C32.4372 17.0314 32.3439 16.1914 32.1572 15.5114C31.9839 14.8181 31.7372 14.2581 31.4172 13.8314C31.1105 13.3914 30.7439 13.0781 30.3172 12.8914C29.8905 12.6914 29.4372 12.5914 28.9572 12.5914C28.4639 12.5914 28.0039 12.6914 27.5772 12.8914C27.1505 13.0781 26.7772 13.3914 26.4572 13.8314C26.1505 14.2581 25.9039 14.8181 25.7172 15.5114C25.5439 16.1914 25.4572 17.0314 25.4572 18.0314C25.4572 19.0314 25.5439 19.8781 25.7172 20.5714C25.9039 21.2514 26.1505 21.8047 26.4572 22.2314C26.7772 22.6581 27.1505 22.9714 27.5772 23.1714C28.0039 23.3581 28.4572 23.4514 28.9372 23.4514ZM42.59 25.3914C41.7633 25.3914 40.99 25.2381 40.27 24.9314C39.55 24.6114 38.9233 24.1447 38.39 23.5314C37.8567 22.9181 37.4367 22.1514 37.13 21.2314C36.8233 20.3114 36.67 19.2381 36.67 18.0114C36.67 16.7981 36.8233 15.7314 37.13 14.8114C37.4367 13.8914 37.8567 13.1247 38.39 12.5114C38.9233 11.8981 39.55 11.4381 40.27 11.1314C40.99 10.8247 41.7633 10.6714 42.59 10.6714C43.4167 10.6714 44.1833 10.8247 44.89 11.1314C45.61 11.4381 46.2367 11.8981 46.77 12.5114C47.3033 13.1114 47.7167 13.8714 48.01 14.7914C48.3167 15.6981 48.47 16.7581 48.47 17.9714C48.47 19.1847 48.3167 20.2514 48.01 21.1714C47.7167 22.0914 47.3033 22.8647 46.77 23.4914C46.2367 24.1181 45.61 24.5914 44.89 24.9114C44.1833 25.2314 43.4167 25.3914 42.59 25.3914ZM42.57 23.4514C43.0633 23.4514 43.5233 23.3581 43.95 23.1714C44.3767 22.9714 44.7433 22.6581 45.05 22.2314C45.37 21.8047 45.6167 21.2514 45.79 20.5714C45.9767 19.8781 46.07 19.0314 46.07 18.0314C46.07 17.0314 45.9767 16.1914 45.79 15.5114C45.6167 14.8181 45.37 14.2581 45.05 13.8314C44.7433 13.3914 44.3767 13.0781 43.95 12.8914C43.5233 12.6914 43.07 12.5914 42.59 12.5914C42.0967 12.5914 41.6367 12.6914 41.21 12.8914C40.7833 13.0781 40.41 13.3914 40.09 13.8314C39.7833 14.2581 39.5367 14.8181 39.35 15.5114C39.1767 16.1914 39.09 17.0314 39.09 18.0314C39.09 19.0314 39.1767 19.8781 39.35 20.5714C39.5367 21.2514 39.7833 21.8047 40.09 22.2314C40.41 22.6581 40.7833 22.9714 41.21 23.1714C41.6367 23.3581 42.09 23.4514 42.57 23.4514ZM59.7173 16.6914V25.1914H57.3973V16.6914H54.2573V14.8114H62.9173V16.6914H59.7173ZM72.9267 21.6114C72.9267 22.2114 72.8134 22.7381 72.5867 23.1914C72.3734 23.6447 72.0734 24.0181 71.6867 24.3114C71.3001 24.6047 70.8401 24.8247 70.3067 24.9714C69.7734 25.1181 69.1867 25.1914 68.5467 25.1914H64.6867V14.8114H67.0067V18.1714H68.6267C69.9867 18.1714 71.0401 18.4514 71.7867 19.0114C72.5467 19.5714 72.9267 20.4381 72.9267 21.6114ZM76.4267 25.1914H74.1067V14.8114H76.4267V25.1914ZM67.0067 20.0114V23.3714H68.3667C69.0067 23.3714 69.5267 23.2447 69.9267 22.9914C70.3401 22.7247 70.5467 22.2914 70.5467 21.6914C70.5467 21.0914 70.3667 20.6647 70.0067 20.4114C69.6467 20.1447 69.1267 20.0114 68.4467 20.0114H67.0067ZM83.8027 25.3914C82.9627 25.3914 82.2093 25.2714 81.5427 25.0314C80.876 24.7781 80.3093 24.4247 79.8427 23.9714C79.376 23.5047 79.016 22.9381 78.7627 22.2714C78.5093 21.6047 78.3827 20.8447 78.3827 19.9914C78.3827 19.1514 78.5093 18.3981 78.7627 17.7314C79.016 17.0647 79.376 16.5047 79.8427 16.0514C80.3093 15.5847 80.8827 15.2314 81.5627 14.9914C82.2427 14.7381 83.0027 14.6114 83.8427 14.6114C84.5627 14.6114 85.1893 14.6914 85.7227 14.8514C86.2693 15.0114 86.7027 15.2114 87.0227 15.4514V17.3714C86.6093 17.1047 86.156 16.8981 85.6627 16.7514C85.1827 16.6047 84.6227 16.5314 83.9827 16.5314C81.836 16.5314 80.7627 17.6847 80.7627 19.9914C80.7627 22.2981 81.816 23.4514 83.9227 23.4514C84.6027 23.4514 85.1827 23.3781 85.6627 23.2314C86.156 23.0714 86.6093 22.8714 87.0227 22.6314V24.5514C86.676 24.7781 86.2427 24.9781 85.7227 25.1514C85.2027 25.3114 84.5627 25.3914 83.8027 25.3914Z" fill="white"/>
<ellipse cx="60.2656" cy="23.5683" rx="50.9647" ry="18.05" transform="rotate(-12.9623 60.2656 23.5683)" stroke="url(#paint0_linear_131_90907)" stroke-width="0.797102"/>
<g filter="url(#filter0_d_131_90907)">
<path d="M97.6786 35.3783L97.1187 32.7934C96.6573 30.6631 95.1257 28.9236 93.0709 28.1962C95.1042 27.4108 96.5859 25.6287 96.9868 23.4861L97.4732 20.8864L98.0331 23.4713C98.4946 25.6016 100.026 27.3411 102.081 28.0685C100.048 28.8538 98.5659 30.636 98.165 32.7786L97.6786 35.3783Z" fill="white"/>
</g>
</g>
<defs>
<filter id="filter0_d_131_90907" x="89.3728" y="20.8862" width="16.4068" height="21.8892" filterUnits="userSpaceOnUse" color-interpolation-filters="sRGB">
<feFlood flood-opacity="0" result="BackgroundImageFix"/>
<feColorMatrix in="SourceAlpha" type="matrix" values="0 0 0 0 0 0 0 0 0 0 0 0 0 0 0 0 0 0 127 0" result="hardAlpha"/>
<feOffset dy="3.69851"/>
<feGaussianBlur stdDeviation="1.84925"/>
<feComposite in2="hardAlpha" operator="out"/>
<feColorMatrix type="matrix" values="0 0 0 0 1 0 0 0 0 1 0 0 0 0 1 0 0 0 0.4 0"/>
<feBlend mode="normal" in2="BackgroundImageFix" result="effect1_dropShadow_131_90907"/>
<feBlend mode="normal" in="SourceGraphic" in2="effect1_dropShadow_131_90907" result="shape"/>
</filter>
<linearGradient id="paint0_linear_131_90907" x1="80.4029" y1="39.6434" x2="32.6312" y2="10.7749" gradientUnits="userSpaceOnUse">
<stop stop-color="white"/>
<stop offset="1" stop-color="#4C7999" stop-opacity="0"/>
</linearGradient>
<clipPath id="clip0_131_90907">
<rect width="110" height="46.2319" fill="white" transform="translate(0.824219)"/>
</clipPath>
</defs>
</svg>
