<svg width="111" height="46" viewBox="0 0 111 46" fill="none" xmlns="http://www.w3.org/2000/svg">
<g clip-path="url(#clip0_131_90836)">
<path d="M7.25953 25.1836H4.89953V13.5836L1.89953 16.5236V14.1236L5.21953 10.8436H7.25953V25.1836ZM16.0431 25.3836C15.2165 25.3836 14.4431 25.2303 13.7231 24.9236C13.0031 24.6036 12.3765 24.1369 11.8431 23.5236C11.3098 22.9103 10.8898 22.1436 10.5831 21.2236C10.2765 20.3036 10.1231 19.2303 10.1231 18.0036C10.1231 16.7903 10.2765 15.7236 10.5831 14.8036C10.8898 13.8836 11.3098 13.1169 11.8431 12.5036C12.3765 11.8903 13.0031 11.4303 13.7231 11.1236C14.4431 10.8169 15.2165 10.6636 16.0431 10.6636C16.8698 10.6636 17.6365 10.8169 18.3431 11.1236C19.0631 11.4303 19.6898 11.8903 20.2231 12.5036C20.7565 13.1036 21.1698 13.8636 21.4631 14.7836C21.7698 15.6903 21.9231 16.7503 21.9231 17.9636C21.9231 19.1769 21.7698 20.2436 21.4631 21.1636C21.1698 22.0836 20.7565 22.8569 20.2231 23.4836C19.6898 24.1103 19.0631 24.5836 18.3431 24.9036C17.6365 25.2236 16.8698 25.3836 16.0431 25.3836ZM16.0231 23.4436C16.5165 23.4436 16.9765 23.3503 17.4031 23.1636C17.8298 22.9636 18.1965 22.6503 18.5031 22.2236C18.8231 21.7969 19.0698 21.2436 19.2431 20.5636C19.4298 19.8703 19.5231 19.0236 19.5231 18.0236C19.5231 17.0236 19.4298 16.1836 19.2431 15.5036C19.0698 14.8103 18.8231 14.2503 18.5031 13.8236C18.1965 13.3836 17.8298 13.0703 17.4031 12.8836C16.9765 12.6836 16.5231 12.5836 16.0431 12.5836C15.5498 12.5836 15.0898 12.6836 14.6631 12.8836C14.2365 13.0703 13.8631 13.3836 13.5431 13.8236C13.2365 14.2503 12.9898 14.8103 12.8031 15.5036C12.6298 16.1836 12.5431 17.0236 12.5431 18.0236C12.5431 19.0236 12.6298 19.8703 12.8031 20.5636C12.9898 21.2436 13.2365 21.7969 13.5431 22.2236C13.8631 22.6503 14.2365 22.9636 14.6631 23.1636C15.0898 23.3503 15.5431 23.4436 16.0231 23.4436ZM29.6759 25.3836C28.8493 25.3836 28.0759 25.2303 27.3559 24.9236C26.6359 24.6036 26.0093 24.1369 25.4759 23.5236C24.9426 22.9103 24.5226 22.1436 24.2159 21.2236C23.9093 20.3036 23.7559 19.2303 23.7559 18.0036C23.7559 16.7903 23.9093 15.7236 24.2159 14.8036C24.5226 13.8836 24.9426 13.1169 25.4759 12.5036C26.0093 11.8903 26.6359 11.4303 27.3559 11.1236C28.0759 10.8169 28.8493 10.6636 29.6759 10.6636C30.5026 10.6636 31.2693 10.8169 31.9759 11.1236C32.6959 11.4303 33.3226 11.8903 33.8559 12.5036C34.3893 13.1036 34.8026 13.8636 35.0959 14.7836C35.4026 15.6903 35.5559 16.7503 35.5559 17.9636C35.5559 19.1769 35.4026 20.2436 35.0959 21.1636C34.8026 22.0836 34.3893 22.8569 33.8559 23.4836C33.3226 24.1103 32.6959 24.5836 31.9759 24.9036C31.2693 25.2236 30.5026 25.3836 29.6759 25.3836ZM29.6559 23.4436C30.1493 23.4436 30.6093 23.3503 31.0359 23.1636C31.4626 22.9636 31.8293 22.6503 32.1359 22.2236C32.4559 21.7969 32.7026 21.2436 32.8759 20.5636C33.0626 19.8703 33.1559 19.0236 33.1559 18.0236C33.1559 17.0236 33.0626 16.1836 32.8759 15.5036C32.7026 14.8103 32.4559 14.2503 32.1359 13.8236C31.8293 13.3836 31.4626 13.0703 31.0359 12.8836C30.6093 12.6836 30.1559 12.5836 29.6759 12.5836C29.1826 12.5836 28.7226 12.6836 28.2959 12.8836C27.8693 13.0703 27.4959 13.3836 27.1759 13.8236C26.8693 14.2503 26.6226 14.8103 26.4359 15.5036C26.2626 16.1836 26.1759 17.0236 26.1759 18.0236C26.1759 19.0236 26.2626 19.8703 26.4359 20.5636C26.6226 21.2436 26.8693 21.7969 27.1759 22.2236C27.4959 22.6503 27.8693 22.9636 28.2959 23.1636C28.7226 23.3503 29.1759 23.4436 29.6559 23.4436ZM51.9033 17.6636L48.8433 24.1836H47.1433L44.2633 17.6036V25.1836H42.1633V14.8036H45.3433L48.1833 21.2436L51.1833 14.8036H54.2233V25.1836H51.9033V17.6636ZM57.7313 21.5036C57.8779 20.8236 57.9713 19.9436 58.0113 18.8636C58.0646 17.7703 58.0913 16.4169 58.0913 14.8036H65.5513V25.1836H63.2313V16.6836H60.2113C60.1846 18.0569 60.1313 19.2703 60.0513 20.3236C59.9713 21.3769 59.8046 22.2703 59.5513 23.0036C59.3113 23.7236 58.9579 24.2769 58.4913 24.6636C58.0379 25.0503 57.4246 25.2436 56.6513 25.2436C56.5446 25.2436 56.4379 25.2369 56.3313 25.2236C56.2379 25.2236 56.1379 25.2169 56.0313 25.2036V23.0436C56.1646 23.0703 56.2646 23.0836 56.3313 23.0836C56.6913 23.0836 56.9779 22.9569 57.1913 22.7036C57.4179 22.4369 57.5979 22.0369 57.7313 21.5036ZM74.8789 20.8036H70.4989V25.1836H68.1789V14.8036H70.4989V18.9236H74.8789V14.8036H77.1989V25.1836H74.8789V20.8036Z" fill="white"/>
<ellipse cx="60.2424" cy="23.481" rx="50.598" ry="17.9201" transform="rotate(-12.9623 60.2424 23.481)" stroke="url(#paint0_linear_131_90836)" stroke-width="0.791367"/>
<g filter="url(#filter0_d_131_90836)">
<path d="M97.3829 35.206L96.827 32.6396C96.3689 30.5247 94.8483 28.7977 92.8083 28.0755C94.827 27.2958 96.2981 25.5265 96.6961 23.3993L97.179 20.8183L97.7349 23.3846C98.193 25.4996 99.7136 27.2266 101.754 27.9488C99.7348 28.7284 98.2638 30.4978 97.8658 32.6249L97.3829 35.206Z" fill="white"/>
</g>
</g>
<defs>
<filter id="filter0_d_131_90836" x="89.1367" y="20.8184" width="16.2891" height="21.7315" filterUnits="userSpaceOnUse" color-interpolation-filters="sRGB">
<feFlood flood-opacity="0" result="BackgroundImageFix"/>
<feColorMatrix in="SourceAlpha" type="matrix" values="0 0 0 0 0 0 0 0 0 0 0 0 0 0 0 0 0 0 127 0" result="hardAlpha"/>
<feOffset dy="3.6719"/>
<feGaussianBlur stdDeviation="1.83595"/>
<feComposite in2="hardAlpha" operator="out"/>
<feColorMatrix type="matrix" values="0 0 0 0 1 0 0 0 0 1 0 0 0 0 1 0 0 0 0.4 0"/>
<feBlend mode="normal" in2="BackgroundImageFix" result="effect1_dropShadow_131_90836"/>
<feBlend mode="normal" in="SourceGraphic" in2="effect1_dropShadow_131_90836" result="shape"/>
</filter>
<linearGradient id="paint0_linear_131_90836" x1="80.2349" y1="39.4405" x2="32.8069" y2="10.7796" gradientUnits="userSpaceOnUse">
<stop stop-color="white"/>
<stop offset="1" stop-color="#4C7999" stop-opacity="0"/>
</linearGradient>
<clipPath id="clip0_131_90836">
<rect width="110" height="45.8993" fill="white" transform="translate(0.824219)"/>
</clipPath>
</defs>
</svg>
