<svg width="111" height="47" viewBox="0 0 111 47" fill="none" xmlns="http://www.w3.org/2000/svg">
<g clip-path="url(#clip0_131_90895)">
<path d="M0.374063 21.7253L6.95406 18.7053L0.374063 15.6853V13.7453L8.85406 17.6253V19.7653L0.374063 23.6453V21.7253ZM20.1656 21.3253C20.1656 21.992 20.039 22.592 19.7856 23.1253C19.5323 23.6453 19.1723 24.0986 18.7056 24.4853C18.239 24.8586 17.679 25.1453 17.0256 25.3453C16.3723 25.5453 15.6456 25.6453 14.8456 25.6453C13.8456 25.6453 12.9923 25.532 12.2856 25.3053C11.5923 25.0786 11.0256 24.7986 10.5856 24.4653V22.2253C11.039 22.5986 11.599 22.9386 12.2656 23.2453C12.9323 23.5386 13.7456 23.6853 14.7056 23.6853C15.6656 23.6853 16.4056 23.472 16.9256 23.0453C17.4456 22.6186 17.7056 22.032 17.7056 21.2853C17.7056 19.7653 16.719 19.0053 14.7456 19.0053H12.9456V16.9853H14.8256C15.559 16.9853 16.1523 16.8053 16.6056 16.4453C17.059 16.072 17.2856 15.5453 17.2856 14.8653C17.2856 14.252 17.0656 13.772 16.6256 13.4253C16.1856 13.0653 15.5456 12.8853 14.7056 12.8853C13.839 12.8853 13.099 13.032 12.4856 13.3253C11.8723 13.6053 11.319 13.952 10.8256 14.3653V12.1453C11.2923 11.772 11.859 11.472 12.5256 11.2453C13.1923 11.0186 14.0056 10.9053 14.9656 10.9053C15.6856 10.9053 16.3323 10.9986 16.9056 11.1853C17.4923 11.372 17.9856 11.632 18.3856 11.9653C18.799 12.2986 19.1123 12.6986 19.3256 13.1653C19.5523 13.632 19.6656 14.1453 19.6656 14.7053C19.6656 15.172 19.5856 15.5853 19.4256 15.9453C19.279 16.3053 19.079 16.6253 18.8256 16.9053C18.5723 17.172 18.279 17.392 17.9456 17.5653C17.6123 17.7253 17.2656 17.8386 16.9056 17.9053C17.3323 17.9586 17.739 18.0786 18.1256 18.2653C18.5256 18.4386 18.8723 18.672 19.1656 18.9653C19.4723 19.2453 19.7123 19.5853 19.8856 19.9853C20.0723 20.3853 20.1656 20.832 20.1656 21.3253ZM31.9994 21.5253C31.9994 22.1653 31.866 22.7453 31.5994 23.2653C31.346 23.772 30.986 24.2053 30.5194 24.5653C30.066 24.912 29.526 25.1786 28.8994 25.3653C28.2727 25.552 27.5927 25.6453 26.8594 25.6453C26.1127 25.6453 25.4194 25.5586 24.7794 25.3853C24.1527 25.1986 23.606 24.932 23.1394 24.5853C22.686 24.2253 22.3327 23.7986 22.0794 23.3053C21.826 22.7986 21.6994 22.2253 21.6994 21.5853C21.6994 20.6786 21.946 19.9186 22.4394 19.3053C22.9327 18.6786 23.5994 18.212 24.4394 17.9053C23.7594 17.6386 23.2127 17.232 22.7994 16.6853C22.3994 16.1386 22.1994 15.4653 22.1994 14.6653C22.1994 14.0653 22.3127 13.532 22.5394 13.0653C22.7794 12.5986 23.106 12.212 23.5194 11.9053C23.9327 11.5853 24.426 11.3453 24.9994 11.1853C25.5727 11.012 26.1927 10.9253 26.8594 10.9253C27.5127 10.9253 28.126 11.0053 28.6994 11.1653C29.2727 11.3253 29.766 11.5586 30.1794 11.8653C30.5927 12.172 30.9194 12.5586 31.1594 13.0253C31.3994 13.492 31.5194 14.0253 31.5194 14.6253C31.5194 15.4386 31.3127 16.1186 30.8994 16.6653C30.4994 17.212 29.9527 17.6253 29.2594 17.9053C30.0994 18.1986 30.766 18.652 31.2594 19.2653C31.7527 19.8653 31.9994 20.6186 31.9994 21.5253ZM26.8594 17.0053C27.5527 17.0053 28.1127 16.8253 28.5394 16.4653C28.9794 16.1053 29.1994 15.592 29.1994 14.9253C29.1994 14.272 28.9794 13.7653 28.5394 13.4053C28.1127 13.032 27.5527 12.8453 26.8594 12.8453C26.1794 12.8453 25.6194 13.032 25.1794 13.4053C24.7394 13.7653 24.5194 14.272 24.5194 14.9253C24.5194 15.592 24.7394 16.1053 25.1794 16.4653C25.6194 16.8253 26.1794 17.0053 26.8594 17.0053ZM26.8594 23.7053C27.6594 23.7053 28.3127 23.4986 28.8194 23.0853C29.3394 22.6586 29.5994 22.0453 29.5994 21.2453C29.5994 20.4453 29.3394 19.832 28.8194 19.4053C28.3127 18.9786 27.6594 18.7653 26.8594 18.7653C26.046 18.7653 25.3794 18.9786 24.8594 19.4053C24.3394 19.832 24.0794 20.4453 24.0794 21.2453C24.0794 22.0453 24.3394 22.6586 24.8594 23.0853C25.3794 23.4986 26.046 23.7053 26.8594 23.7053ZM48.247 17.9253L45.187 24.4453H43.487L40.607 17.8653V25.4453H38.507V15.0653H41.687L44.527 21.5053L47.527 15.0653H50.567V25.4453H48.247V17.9253ZM54.075 21.7653C54.2217 21.0853 54.315 20.2053 54.355 19.1253C54.4083 18.032 54.435 16.6786 54.435 15.0653H61.895V25.4453H59.575V16.9453H56.555C56.5283 18.3186 56.475 19.532 56.395 20.5853C56.315 21.6386 56.1483 22.532 55.895 23.2653C55.655 23.9853 55.3017 24.5386 54.835 24.9253C54.3817 25.312 53.7683 25.5053 52.995 25.5053C52.8883 25.5053 52.7817 25.4986 52.675 25.4853C52.5817 25.4853 52.4817 25.4786 52.375 25.4653V23.3053C52.5083 23.332 52.6083 23.3453 52.675 23.3453C53.035 23.3453 53.3217 23.2186 53.535 22.9653C53.7617 22.6986 53.9417 22.2986 54.075 21.7653ZM71.2227 21.0653H66.8427V25.4453H64.5227V15.0653H66.8427V19.1853H71.2227V15.0653H73.5427V25.4453H71.2227V21.0653Z" fill="white"/>
<ellipse cx="59.5014" cy="23.9062" rx="51.3367" ry="18.1817" transform="rotate(-12.9623 59.5014 23.9062)" stroke="url(#paint0_linear_131_90895)" stroke-width="0.80292"/>
<g filter="url(#filter0_d_131_90895)">
<path d="M97.1887 35.8026L96.6247 33.1988C96.1599 31.0529 94.6171 29.3008 92.5473 28.568C94.5955 27.777 96.088 25.9818 96.4918 23.8236L96.9818 21.2049L97.5458 23.8087C98.0106 25.9545 99.5534 27.7067 101.623 28.4394C99.575 29.2305 98.0825 31.0257 97.6786 33.1839L97.1887 35.8026Z" fill="white"/>
</g>
</g>
<defs>
<filter id="filter0_d_131_90895" x="88.8214" y="21.2051" width="16.5272" height="22.0487" filterUnits="userSpaceOnUse" color-interpolation-filters="sRGB">
<feFlood flood-opacity="0" result="BackgroundImageFix"/>
<feColorMatrix in="SourceAlpha" type="matrix" values="0 0 0 0 0 0 0 0 0 0 0 0 0 0 0 0 0 0 127 0" result="hardAlpha"/>
<feOffset dy="3.72551"/>
<feGaussianBlur stdDeviation="1.86275"/>
<feComposite in2="hardAlpha" operator="out"/>
<feColorMatrix type="matrix" values="0 0 0 0 1 0 0 0 0 1 0 0 0 0 1 0 0 0 0.4 0"/>
<feBlend mode="normal" in2="BackgroundImageFix" result="effect1_dropShadow_131_90895"/>
<feBlend mode="normal" in="SourceGraphic" in2="effect1_dropShadow_131_90895" result="shape"/>
</filter>
<linearGradient id="paint0_linear_131_90895" x1="79.7857" y1="40.0986" x2="31.6653" y2="11.0194" gradientUnits="userSpaceOnUse">
<stop stop-color="white"/>
<stop offset="1" stop-color="#4C7999" stop-opacity="0"/>
</linearGradient>
<clipPath id="clip0_131_90895">
<rect width="110" height="46.5693" fill="white" transform="translate(0.824219)"/>
</clipPath>
</defs>
</svg>
