<svg width="111" height="46" viewBox="0 0 111 46" fill="none" xmlns="http://www.w3.org/2000/svg">
<g clip-path="url(#clip0_131_90815)">
<path d="M11.3595 25.1836H1.93953V22.8836C3.1662 21.9369 4.21286 21.1036 5.07953 20.3836C5.9462 19.6636 6.65286 19.0036 7.19953 18.4036C7.75953 17.7903 8.1662 17.2169 8.41953 16.6836C8.67286 16.1503 8.79953 15.5903 8.79953 15.0036C8.79953 14.2836 8.57953 13.7103 8.13953 13.2836C7.71286 12.8569 7.09953 12.6436 6.29953 12.6436C5.53953 12.6436 4.8262 12.8103 4.15953 13.1436C3.5062 13.4769 2.89953 13.9169 2.33953 14.4636V12.1636C2.87286 11.6969 3.47286 11.3303 4.13953 11.0636C4.8062 10.7836 5.6062 10.6436 6.53953 10.6436C7.27287 10.6436 7.9262 10.7436 8.49953 10.9436C9.0862 11.1436 9.5862 11.4303 9.99953 11.8036C10.4129 12.1636 10.7262 12.6103 10.9395 13.1436C11.1662 13.6636 11.2795 14.2503 11.2795 14.9036C11.2795 15.6369 11.1329 16.3236 10.8395 16.9636C10.5462 17.6036 10.1129 18.2436 9.53953 18.8836C8.97953 19.5236 8.27286 20.1903 7.41953 20.8836C6.57953 21.5636 5.6062 22.3169 4.49953 23.1436H11.3595V25.1836ZM12.725 18.0636H17.625V20.0436H12.725V18.0636ZM28.9292 24.4236C28.7826 24.5169 28.6026 24.6236 28.3892 24.7436C28.1759 24.8503 27.9226 24.9503 27.6292 25.0436C27.3359 25.1369 26.9959 25.2169 26.6092 25.2836C26.2226 25.3503 25.7826 25.3836 25.2892 25.3836C23.3826 25.3836 21.9559 24.9103 21.0092 23.9636C20.0759 23.0169 19.6092 21.6903 19.6092 19.9836C19.6092 19.1436 19.7359 18.3903 19.9892 17.7236C20.2426 17.0569 20.5959 16.4969 21.0492 16.0436C21.5026 15.5769 22.0426 15.2236 22.6692 14.9836C23.2959 14.7303 23.9826 14.6036 24.7292 14.6036C25.5026 14.6036 26.1959 14.7303 26.8092 14.9836C27.4359 15.2369 27.9492 15.6169 28.3492 16.1236C28.7492 16.6303 29.0226 17.2569 29.1692 18.0036C29.3292 18.7503 29.3359 19.6236 29.1892 20.6236H22.0092C22.1026 21.5703 22.4159 22.2836 22.9492 22.7636C23.4826 23.2303 24.3159 23.4636 25.4492 23.4636C26.2759 23.4636 26.9626 23.3636 27.5092 23.1636C28.0692 22.9503 28.5426 22.7303 28.9292 22.5036V24.4236ZM24.7292 16.4436C24.0492 16.4436 23.4759 16.6503 23.0092 17.0636C22.5426 17.4769 22.2359 18.0903 22.0892 18.9036H26.9692C26.9959 18.0636 26.8092 17.4436 26.4092 17.0436C26.0092 16.6436 25.4492 16.4436 24.7292 16.4436ZM45.4775 17.6636L42.4175 24.1836H40.7175L37.8375 17.6036V25.1836H35.7375V14.8036H38.9175L41.7575 21.2436L44.7575 14.8036H47.7975V25.1836H45.4775V17.6636ZM59.0855 24.4236C58.9388 24.5169 58.7588 24.6236 58.5455 24.7436C58.3321 24.8503 58.0788 24.9503 57.7855 25.0436C57.4921 25.1369 57.1521 25.2169 56.7655 25.2836C56.3788 25.3503 55.9388 25.3836 55.4455 25.3836C53.5388 25.3836 52.1121 24.9103 51.1655 23.9636C50.2321 23.0169 49.7655 21.6903 49.7655 19.9836C49.7655 19.1436 49.8921 18.3903 50.1455 17.7236C50.3988 17.0569 50.7521 16.4969 51.2055 16.0436C51.6588 15.5769 52.1988 15.2236 52.8255 14.9836C53.4521 14.7303 54.1388 14.6036 54.8855 14.6036C55.6588 14.6036 56.3521 14.7303 56.9655 14.9836C57.5921 15.2369 58.1055 15.6169 58.5055 16.1236C58.9055 16.6303 59.1788 17.2569 59.3255 18.0036C59.4855 18.7503 59.4921 19.6236 59.3455 20.6236H52.1655C52.2588 21.5703 52.5721 22.2836 53.1055 22.7636C53.6388 23.2303 54.4721 23.4636 55.6055 23.4636C56.4321 23.4636 57.1188 23.3636 57.6655 23.1636C58.2255 22.9503 58.6988 22.7303 59.0855 22.5036V24.4236ZM54.8855 16.4436C54.2055 16.4436 53.6321 16.6503 53.1655 17.0636C52.6988 17.4769 52.3921 18.0903 52.2455 18.9036H57.1255C57.1521 18.0636 56.9655 17.4436 56.5655 17.0436C56.1655 16.6436 55.6055 16.4436 54.8855 16.4436ZM66.2792 25.3836C65.4392 25.3836 64.6859 25.2636 64.0192 25.0236C63.3526 24.7703 62.7859 24.4169 62.3192 23.9636C61.8526 23.4969 61.4926 22.9303 61.2392 22.2636C60.9859 21.5969 60.8592 20.8369 60.8592 19.9836C60.8592 19.1436 60.9859 18.3903 61.2392 17.7236C61.4926 17.0569 61.8526 16.4969 62.3192 16.0436C62.7859 15.5769 63.3592 15.2236 64.0392 14.9836C64.7192 14.7303 65.4792 14.6036 66.3192 14.6036C67.0392 14.6036 67.6659 14.6836 68.1992 14.8436C68.7459 15.0036 69.1792 15.2036 69.4992 15.4436V17.3636C69.0859 17.0969 68.6326 16.8903 68.1392 16.7436C67.6592 16.5969 67.0992 16.5236 66.4592 16.5236C64.3126 16.5236 63.2392 17.6769 63.2392 19.9836C63.2392 22.2903 64.2926 23.4436 66.3992 23.4436C67.0792 23.4436 67.6592 23.3703 68.1392 23.2236C68.6326 23.0636 69.0859 22.8636 69.4992 22.6236V24.5436C69.1526 24.7703 68.7192 24.9703 68.1992 25.1436C67.6792 25.3036 67.0392 25.3836 66.2792 25.3836ZM76.2759 16.6836V25.1836H73.9559V16.6836H70.8159V14.8036H79.4759V16.6836H76.2759ZM85.4914 25.3836C84.7581 25.3836 84.0781 25.2636 83.4514 25.0236C82.8247 24.7836 82.2781 24.4369 81.8114 23.9836C81.3581 23.5169 80.9981 22.9503 80.7314 22.2836C80.4781 21.6169 80.3514 20.8503 80.3514 19.9836C80.3514 19.1169 80.4781 18.3503 80.7314 17.6836C80.9981 17.0169 81.3581 16.4569 81.8114 16.0036C82.2781 15.5369 82.8247 15.1903 83.4514 14.9636C84.0781 14.7236 84.7581 14.6036 85.4914 14.6036C86.2247 14.6036 86.9047 14.7236 87.5314 14.9636C88.1581 15.1903 88.7047 15.5369 89.1714 16.0036C89.6381 16.4569 90.0047 17.0169 90.2714 17.6836C90.5381 18.3503 90.6714 19.1169 90.6714 19.9836C90.6714 20.8503 90.5381 21.6169 90.2714 22.2836C90.0047 22.9503 89.6381 23.5169 89.1714 23.9836C88.7047 24.4369 88.1581 24.7836 87.5314 25.0236C86.9047 25.2636 86.2247 25.3836 85.4914 25.3836ZM85.4914 23.4436C86.2914 23.4436 86.9514 23.1636 87.4714 22.6036C88.0047 22.0436 88.2714 21.1703 88.2714 19.9836C88.2714 18.8103 88.0047 17.9436 87.4714 17.3836C86.9514 16.8103 86.2914 16.5236 85.4914 16.5236C84.7047 16.5236 84.0447 16.8103 83.5114 17.3836C82.9914 17.9436 82.7314 18.8103 82.7314 19.9836C82.7314 21.1703 82.9914 22.0436 83.5114 22.6036C84.0447 23.1636 84.7047 23.4436 85.4914 23.4436Z" fill="white"/>
<ellipse cx="60.2385" cy="23.481" rx="50.598" ry="17.9201" transform="rotate(-12.9623 60.2385 23.481)" stroke="url(#paint0_linear_131_90815)" stroke-width="0.791367"/>
<g filter="url(#filter0_d_131_90815)">
<path d="M97.3829 35.206L96.827 32.6396C96.3689 30.5247 94.8483 28.7977 92.8083 28.0755C94.827 27.2958 96.2981 25.5265 96.6961 23.3993L97.179 20.8183L97.7349 23.3846C98.193 25.4996 99.7136 27.2266 101.754 27.9488C99.7348 28.7284 98.2638 30.4978 97.8658 32.6249L97.3829 35.206Z" fill="white"/>
</g>
</g>
<defs>
<filter id="filter0_d_131_90815" x="89.1367" y="20.8184" width="16.2891" height="21.7315" filterUnits="userSpaceOnUse" color-interpolation-filters="sRGB">
<feFlood flood-opacity="0" result="BackgroundImageFix"/>
<feColorMatrix in="SourceAlpha" type="matrix" values="0 0 0 0 0 0 0 0 0 0 0 0 0 0 0 0 0 0 127 0" result="hardAlpha"/>
<feOffset dy="3.6719"/>
<feGaussianBlur stdDeviation="1.83595"/>
<feComposite in2="hardAlpha" operator="out"/>
<feColorMatrix type="matrix" values="0 0 0 0 1 0 0 0 0 1 0 0 0 0 1 0 0 0 0.4 0"/>
<feBlend mode="normal" in2="BackgroundImageFix" result="effect1_dropShadow_131_90815"/>
<feBlend mode="normal" in="SourceGraphic" in2="effect1_dropShadow_131_90815" result="shape"/>
</filter>
<linearGradient id="paint0_linear_131_90815" x1="80.231" y1="39.4405" x2="32.8029" y2="10.7796" gradientUnits="userSpaceOnUse">
<stop stop-color="white"/>
<stop offset="1" stop-color="#4C7999" stop-opacity="0"/>
</linearGradient>
<clipPath id="clip0_131_90815">
<rect width="110" height="45.8993" fill="white" transform="translate(0.824219)"/>
</clipPath>
</defs>
</svg>
