<svg width="111" height="46" viewBox="0 0 111 46" fill="none" xmlns="http://www.w3.org/2000/svg">
<g clip-path="url(#clip0_131_90913)">
<path d="M10.8348 21.9436V25.1836H8.53484V21.9436H1.85484V20.2036L8.17484 10.8436H10.8348V20.0036H12.6748V21.9436H10.8348ZM8.53484 20.0036V13.5036L4.15484 20.0036H8.53484ZM20.2619 25.3836C19.4352 25.3836 18.6619 25.2303 17.9419 24.9236C17.2219 24.6036 16.5952 24.1369 16.0619 23.5236C15.5285 22.9103 15.1085 22.1436 14.8019 21.2236C14.4952 20.3036 14.3419 19.2303 14.3419 18.0036C14.3419 16.7903 14.4952 15.7236 14.8019 14.8036C15.1085 13.8836 15.5285 13.1169 16.0619 12.5036C16.5952 11.8903 17.2219 11.4303 17.9419 11.1236C18.6619 10.8169 19.4352 10.6636 20.2619 10.6636C21.0885 10.6636 21.8552 10.8169 22.5619 11.1236C23.2819 11.4303 23.9085 11.8903 24.4419 12.5036C24.9752 13.1036 25.3885 13.8636 25.6819 14.7836C25.9885 15.6903 26.1419 16.7503 26.1419 17.9636C26.1419 19.1769 25.9885 20.2436 25.6819 21.1636C25.3885 22.0836 24.9752 22.8569 24.4419 23.4836C23.9085 24.1103 23.2819 24.5836 22.5619 24.9036C21.8552 25.2236 21.0885 25.3836 20.2619 25.3836ZM20.2419 23.4436C20.7352 23.4436 21.1952 23.3503 21.6219 23.1636C22.0485 22.9636 22.4152 22.6503 22.7219 22.2236C23.0419 21.7969 23.2885 21.2436 23.4619 20.5636C23.6485 19.8703 23.7419 19.0236 23.7419 18.0236C23.7419 17.0236 23.6485 16.1836 23.4619 15.5036C23.2885 14.8103 23.0419 14.2503 22.7219 13.8236C22.4152 13.3836 22.0485 13.0703 21.6219 12.8836C21.1952 12.6836 20.7419 12.5836 20.2619 12.5836C19.7685 12.5836 19.3085 12.6836 18.8819 12.8836C18.4552 13.0703 18.0819 13.3836 17.7619 13.8236C17.4552 14.2503 17.2085 14.8103 17.0219 15.5036C16.8485 16.1836 16.7619 17.0236 16.7619 18.0236C16.7619 19.0236 16.8485 19.8703 17.0219 20.5636C17.2085 21.2436 17.4552 21.7969 17.7619 22.2236C18.0819 22.6503 18.4552 22.9636 18.8819 23.1636C19.3085 23.3503 19.7619 23.4436 20.2419 23.4436ZM33.8947 25.3836C33.068 25.3836 32.2947 25.2303 31.5747 24.9236C30.8547 24.6036 30.228 24.1369 29.6947 23.5236C29.1614 22.9103 28.7414 22.1436 28.4347 21.2236C28.128 20.3036 27.9747 19.2303 27.9747 18.0036C27.9747 16.7903 28.128 15.7236 28.4347 14.8036C28.7414 13.8836 29.1614 13.1169 29.6947 12.5036C30.228 11.8903 30.8547 11.4303 31.5747 11.1236C32.2947 10.8169 33.068 10.6636 33.8947 10.6636C34.7214 10.6636 35.488 10.8169 36.1947 11.1236C36.9147 11.4303 37.5414 11.8903 38.0747 12.5036C38.608 13.1036 39.0214 13.8636 39.3147 14.7836C39.6214 15.6903 39.7747 16.7503 39.7747 17.9636C39.7747 19.1769 39.6214 20.2436 39.3147 21.1636C39.0214 22.0836 38.608 22.8569 38.0747 23.4836C37.5414 24.1103 36.9147 24.5836 36.1947 24.9036C35.488 25.2236 34.7214 25.3836 33.8947 25.3836ZM33.8747 23.4436C34.368 23.4436 34.828 23.3503 35.2547 23.1636C35.6814 22.9636 36.048 22.6503 36.3547 22.2236C36.6747 21.7969 36.9214 21.2436 37.0947 20.5636C37.2814 19.8703 37.3747 19.0236 37.3747 18.0236C37.3747 17.0236 37.2814 16.1836 37.0947 15.5036C36.9214 14.8103 36.6747 14.2503 36.3547 13.8236C36.048 13.3836 35.6814 13.0703 35.2547 12.8836C34.828 12.6836 34.3747 12.5836 33.8947 12.5836C33.4014 12.5836 32.9414 12.6836 32.5147 12.8836C32.088 13.0703 31.7147 13.3836 31.3947 13.8236C31.088 14.2503 30.8414 14.8103 30.6547 15.5036C30.4814 16.1836 30.3947 17.0236 30.3947 18.0236C30.3947 19.0236 30.4814 19.8703 30.6547 20.5636C30.8414 21.2436 31.088 21.7969 31.3947 22.2236C31.7147 22.6503 32.088 22.9636 32.5147 23.1636C32.9414 23.3503 33.3947 23.4436 33.8747 23.4436ZM56.122 17.6636L53.062 24.1836H51.362L48.482 17.6036V25.1836H46.382V14.8036H49.562L52.402 21.2436L55.402 14.8036H58.442V25.1836H56.122V17.6636Z" fill="white"/>
<ellipse cx="60.4338" cy="23.481" rx="50.598" ry="17.9201" transform="rotate(-12.9623 60.4338 23.481)" stroke="url(#paint0_linear_131_90913)" stroke-width="0.791367"/>
<g filter="url(#filter0_d_131_90913)">
<path d="M97.5782 35.206L97.0223 32.6396C96.5642 30.5247 95.0436 28.7977 93.0036 28.0755C95.0223 27.2958 96.4934 25.5265 96.8914 23.3993L97.3743 20.8183L97.9302 23.3846C98.3883 25.4996 99.9089 27.2266 101.949 27.9488C99.9301 28.7284 98.4591 30.4978 98.0611 32.6249L97.5782 35.206Z" fill="white"/>
</g>
</g>
<defs>
<filter id="filter0_d_131_90913" x="89.332" y="20.8184" width="16.2891" height="21.7315" filterUnits="userSpaceOnUse" color-interpolation-filters="sRGB">
<feFlood flood-opacity="0" result="BackgroundImageFix"/>
<feColorMatrix in="SourceAlpha" type="matrix" values="0 0 0 0 0 0 0 0 0 0 0 0 0 0 0 0 0 0 127 0" result="hardAlpha"/>
<feOffset dy="3.6719"/>
<feGaussianBlur stdDeviation="1.83595"/>
<feComposite in2="hardAlpha" operator="out"/>
<feColorMatrix type="matrix" values="0 0 0 0 1 0 0 0 0 1 0 0 0 0 1 0 0 0 0.4 0"/>
<feBlend mode="normal" in2="BackgroundImageFix" result="effect1_dropShadow_131_90913"/>
<feBlend mode="normal" in="SourceGraphic" in2="effect1_dropShadow_131_90913" result="shape"/>
</filter>
<linearGradient id="paint0_linear_131_90913" x1="80.4263" y1="39.4405" x2="32.9983" y2="10.7796" gradientUnits="userSpaceOnUse">
<stop stop-color="white"/>
<stop offset="1" stop-color="#4C7999" stop-opacity="0"/>
</linearGradient>
<clipPath id="clip0_131_90913">
<rect width="110" height="45.8993" fill="white" transform="translate(0.824219)"/>
</clipPath>
</defs>
</svg>
