<svg width="111" height="46" viewBox="0 0 111 46" fill="none" xmlns="http://www.w3.org/2000/svg">
<g clip-path="url(#clip0_131_90822)">
<path d="M12.1595 21.2636C12.1595 21.9036 12.0262 22.4836 11.7595 23.0036C11.5062 23.5103 11.1462 23.9436 10.6795 24.3036C10.2262 24.6503 9.6862 24.9169 9.05953 25.1036C8.43286 25.2903 7.75286 25.3836 7.01953 25.3836C6.27286 25.3836 5.57953 25.2969 4.93953 25.1236C4.31286 24.9369 3.7662 24.6703 3.29953 24.3236C2.8462 23.9636 2.49286 23.5369 2.23953 23.0436C1.9862 22.5369 1.85953 21.9636 1.85953 21.3236C1.85953 20.4169 2.1062 19.6569 2.59953 19.0436C3.09286 18.4169 3.75953 17.9503 4.59953 17.6436C3.91953 17.3769 3.37286 16.9703 2.95953 16.4236C2.55953 15.8769 2.35953 15.2036 2.35953 14.4036C2.35953 13.8036 2.47286 13.2703 2.69953 12.8036C2.93953 12.3369 3.2662 11.9503 3.67953 11.6436C4.09286 11.3236 4.5862 11.0836 5.15953 10.9236C5.73286 10.7503 6.35286 10.6636 7.01953 10.6636C7.67286 10.6636 8.2862 10.7436 8.85953 10.9036C9.43287 11.0636 9.9262 11.2969 10.3395 11.6036C10.7529 11.9103 11.0795 12.2969 11.3195 12.7636C11.5595 13.2303 11.6795 13.7636 11.6795 14.3636C11.6795 15.1769 11.4729 15.8569 11.0595 16.4036C10.6595 16.9503 10.1129 17.3636 9.41953 17.6436C10.2595 17.9369 10.9262 18.3903 11.4195 19.0036C11.9129 19.6036 12.1595 20.3569 12.1595 21.2636ZM7.01953 16.7436C7.71287 16.7436 8.27286 16.5636 8.69953 16.2036C9.13953 15.8436 9.35953 15.3303 9.35953 14.6636C9.35953 14.0103 9.13953 13.5036 8.69953 13.1436C8.27286 12.7703 7.71287 12.5836 7.01953 12.5836C6.33953 12.5836 5.77953 12.7703 5.33953 13.1436C4.89953 13.5036 4.67953 14.0103 4.67953 14.6636C4.67953 15.3303 4.89953 15.8436 5.33953 16.2036C5.77953 16.5636 6.33953 16.7436 7.01953 16.7436ZM7.01953 23.4436C7.81953 23.4436 8.47286 23.2369 8.97953 22.8236C9.49953 22.3969 9.75953 21.7836 9.75953 20.9836C9.75953 20.1836 9.49953 19.5703 8.97953 19.1436C8.47286 18.7169 7.81953 18.5036 7.01953 18.5036C6.2062 18.5036 5.53953 18.7169 5.01953 19.1436C4.49953 19.5703 4.23953 20.1836 4.23953 20.9836C4.23953 21.7836 4.49953 22.3969 5.01953 22.8236C5.53953 23.2369 6.2062 23.4436 7.01953 23.4436ZM23.4472 25.3836C22.6072 25.3836 21.8539 25.2636 21.1872 25.0236C20.5205 24.7703 19.9539 24.4169 19.4872 23.9636C19.0205 23.4969 18.6605 22.9303 18.4072 22.2636C18.1539 21.5969 18.0272 20.8369 18.0272 19.9836C18.0272 19.1436 18.1539 18.3903 18.4072 17.7236C18.6605 17.0569 19.0205 16.4969 19.4872 16.0436C19.9539 15.5769 20.5272 15.2236 21.2072 14.9836C21.8872 14.7303 22.6472 14.6036 23.4872 14.6036C24.2072 14.6036 24.8339 14.6836 25.3672 14.8436C25.9139 15.0036 26.3472 15.2036 26.6672 15.4436V17.3636C26.2539 17.0969 25.8005 16.8903 25.3072 16.7436C24.8272 16.5969 24.2672 16.5236 23.6272 16.5236C21.4805 16.5236 20.4072 17.6769 20.4072 19.9836C20.4072 22.2903 21.4605 23.4436 23.5672 23.4436C24.2472 23.4436 24.8272 23.3703 25.3072 23.2236C25.8005 23.0636 26.2539 22.8636 26.6672 22.6236V24.5436C26.3205 24.7703 25.8872 24.9703 25.3672 25.1436C24.8472 25.3036 24.2072 25.3836 23.4472 25.3836ZM33.4439 16.6836V25.1836H31.1239V16.6836H27.9839V14.8036H36.6439V16.6836H33.4439ZM44.1333 25.3836C43.3466 25.3836 42.6666 25.2103 42.0933 24.8636C41.5333 24.5036 41.0799 24.0236 40.7333 23.4236V28.7236H38.4133V14.8036H40.5333L40.6933 16.6436C41.0399 16.0169 41.4999 15.5236 42.0733 15.1636C42.6466 14.7903 43.3466 14.6036 44.1733 14.6036C44.7866 14.6036 45.3666 14.7169 45.9133 14.9436C46.4733 15.1569 46.9599 15.4903 47.3733 15.9436C47.7866 16.3836 48.1133 16.9436 48.3533 17.6236C48.6066 18.2903 48.7333 19.0769 48.7333 19.9836C48.7333 20.9036 48.6066 21.7036 48.3533 22.3836C48.1133 23.0503 47.7799 23.6103 47.3533 24.0636C46.9399 24.5036 46.4533 24.8369 45.8933 25.0636C45.3333 25.2769 44.7466 25.3836 44.1333 25.3836ZM43.5733 23.4436C44.3999 23.4436 45.0666 23.1636 45.5733 22.6036C46.0933 22.0303 46.3533 21.1569 46.3533 19.9836C46.3533 18.8236 46.0933 17.9569 45.5733 17.3836C45.0666 16.8103 44.4066 16.5236 43.5933 16.5236C43.1799 16.5236 42.7999 16.5969 42.4533 16.7436C42.1066 16.8769 41.7999 17.0903 41.5333 17.3836C41.2799 17.6769 41.0799 18.0436 40.9333 18.4836C40.7866 18.9103 40.7133 19.4103 40.7133 19.9836C40.7133 20.5703 40.7866 21.0836 40.9333 21.5236C41.0799 21.9503 41.2799 22.3103 41.5333 22.6036C41.7866 22.8836 42.0866 23.0969 42.4333 23.2436C42.7933 23.3769 43.1733 23.4436 43.5733 23.4436ZM56.5808 23.3636C56.4741 23.6036 56.3274 23.8436 56.1408 24.0836C55.9674 24.3236 55.7474 24.5436 55.4808 24.7436C55.2274 24.9303 54.9208 25.0836 54.5608 25.2036C54.2008 25.3236 53.7808 25.3836 53.3008 25.3836C52.8474 25.3836 52.4274 25.3169 52.0408 25.1836C51.6541 25.0636 51.3141 24.8769 51.0208 24.6236C50.7408 24.3703 50.5141 24.0569 50.3408 23.6836C50.1808 23.2969 50.1008 22.8569 50.1008 22.3636C50.1008 21.2303 50.5208 20.3836 51.3608 19.8236C52.2008 19.2503 53.3874 18.9636 54.9208 18.9636H56.5008V18.3236C56.5008 17.6436 56.3274 17.1769 55.9808 16.9236C55.6341 16.6569 55.0608 16.5236 54.2608 16.5236C53.5808 16.5236 52.9408 16.6236 52.3408 16.8236C51.7541 17.0103 51.2341 17.2303 50.7808 17.4836V15.5436C51.1941 15.3169 51.7408 15.1036 52.4208 14.9036C53.1008 14.7036 53.8408 14.6036 54.6408 14.6036C55.9741 14.6036 57.0008 14.8836 57.7208 15.4436C58.4541 15.9903 58.8208 16.8703 58.8208 18.0836V23.5036C58.8208 23.6236 58.8208 23.7636 58.8208 23.9236C58.8341 24.0703 58.8408 24.2236 58.8408 24.3836C58.8541 24.5436 58.8674 24.6969 58.8808 24.8436C58.8941 24.9769 58.9074 25.0903 58.9208 25.1836H56.7808C56.7408 24.9969 56.7008 24.7369 56.6608 24.4036C56.6341 24.0703 56.6141 23.7703 56.6008 23.5036L56.5808 23.3636ZM53.9408 23.5836C54.4341 23.5836 54.8408 23.4836 55.1608 23.2836C55.4941 23.0703 55.7608 22.8303 55.9608 22.5636C56.1608 22.2836 56.3008 22.0103 56.3808 21.7436C56.4608 21.4769 56.5008 21.2903 56.5008 21.1836V20.4836H55.0608C54.1408 20.4836 53.4674 20.6303 53.0408 20.9236C52.6141 21.2036 52.4008 21.6036 52.4008 22.1236C52.4008 22.5769 52.5274 22.9369 52.7808 23.2036C53.0474 23.4569 53.4341 23.5836 53.9408 23.5836ZM68.0234 20.8036H63.6434V25.1836H61.3234V14.8036H63.6434V18.9236H68.0234V14.8036H70.3434V25.1836H68.0234V20.8036Z" fill="white"/>
<ellipse cx="60.2385" cy="23.481" rx="50.598" ry="17.9201" transform="rotate(-12.9623 60.2385 23.481)" stroke="url(#paint0_linear_131_90822)" stroke-width="0.791367"/>
<g filter="url(#filter0_d_131_90822)">
<path d="M97.3829 35.2079L96.827 32.6416C96.3689 30.5266 94.8483 28.7996 92.8083 28.0775C94.827 27.2978 96.2981 25.5284 96.6961 23.4013L97.179 20.8203L97.7349 23.3866C98.193 25.5016 99.7136 27.2285 101.754 27.9507C99.7348 28.7304 98.2638 30.4998 97.8658 32.6269L97.3829 35.2079Z" fill="white"/>
</g>
</g>
<defs>
<filter id="filter0_d_131_90822" x="89.1367" y="20.8203" width="16.2891" height="21.7315" filterUnits="userSpaceOnUse" color-interpolation-filters="sRGB">
<feFlood flood-opacity="0" result="BackgroundImageFix"/>
<feColorMatrix in="SourceAlpha" type="matrix" values="0 0 0 0 0 0 0 0 0 0 0 0 0 0 0 0 0 0 127 0" result="hardAlpha"/>
<feOffset dy="3.6719"/>
<feGaussianBlur stdDeviation="1.83595"/>
<feComposite in2="hardAlpha" operator="out"/>
<feColorMatrix type="matrix" values="0 0 0 0 1 0 0 0 0 1 0 0 0 0 1 0 0 0 0.4 0"/>
<feBlend mode="normal" in2="BackgroundImageFix" result="effect1_dropShadow_131_90822"/>
<feBlend mode="normal" in="SourceGraphic" in2="effect1_dropShadow_131_90822" result="shape"/>
</filter>
<linearGradient id="paint0_linear_131_90822" x1="80.231" y1="39.4405" x2="32.8029" y2="10.7796" gradientUnits="userSpaceOnUse">
<stop stop-color="white"/>
<stop offset="1" stop-color="#4C7999" stop-opacity="0"/>
</linearGradient>
<clipPath id="clip0_131_90822">
<rect width="110" height="45.8993" fill="white" transform="translate(0.824219)"/>
</clipPath>
</defs>
</svg>
