<svg width="111" height="46" viewBox="0 0 111 46" fill="none" xmlns="http://www.w3.org/2000/svg">
<g clip-path="url(#clip0_131_90881)">
<path d="M12.6909 17.1036C12.6909 18.2903 12.5643 19.3903 12.3109 20.4036C12.0709 21.4036 11.6909 22.2769 11.1709 23.0236C10.6643 23.7569 10.0109 24.3369 9.21094 24.7636C8.41094 25.1769 7.46427 25.3836 6.37094 25.3836C5.6376 25.3836 4.98427 25.3169 4.41094 25.1836C3.85094 25.0369 3.37094 24.8369 2.97094 24.5836V22.5236C3.4776 22.8436 4.01094 23.0769 4.57094 23.2236C5.14427 23.3703 5.71094 23.4436 6.27094 23.4436C6.88427 23.4436 7.42427 23.3369 7.89094 23.1236C8.37094 22.8969 8.77094 22.5836 9.09094 22.1836C9.42427 21.7703 9.69094 21.2836 9.89094 20.7236C10.0909 20.1636 10.2243 19.5436 10.2909 18.8636C9.8376 19.4236 9.31094 19.8303 8.71094 20.0836C8.12427 20.3369 7.4776 20.4636 6.77094 20.4636C6.13094 20.4636 5.5176 20.3636 4.93094 20.1636C4.3576 19.9636 3.8576 19.6636 3.43094 19.2636C3.00427 18.8636 2.66427 18.3636 2.41094 17.7636C2.1576 17.1636 2.03094 16.4636 2.03094 15.6636C2.03094 14.8769 2.17094 14.1769 2.45094 13.5636C2.74427 12.9369 3.13094 12.4103 3.61094 11.9836C4.09094 11.5436 4.64427 11.2103 5.27094 10.9836C5.91094 10.7569 6.58427 10.6436 7.29094 10.6436C9.0376 10.6436 10.3709 11.1836 11.2909 12.2636C12.2243 13.3436 12.6909 14.9569 12.6909 17.1036ZM7.27094 12.6036C6.8976 12.6036 6.5376 12.6636 6.19094 12.7836C5.8576 12.9036 5.5576 13.0903 5.29094 13.3436C5.0376 13.5969 4.83094 13.9103 4.67094 14.2836C4.52427 14.6569 4.45094 15.0969 4.45094 15.6036C4.45094 16.0969 4.52427 16.5303 4.67094 16.9036C4.8176 17.2636 5.0176 17.5703 5.27094 17.8236C5.52427 18.0636 5.81094 18.2436 6.13094 18.3636C6.46427 18.4836 6.80427 18.5436 7.15094 18.5436C7.55094 18.5436 7.93094 18.4836 8.29094 18.3636C8.65094 18.2436 8.96427 18.0636 9.23094 17.8236C9.4976 17.5703 9.70427 17.2569 9.85094 16.8836C10.0109 16.5103 10.0909 16.0769 10.0909 15.5836C10.0909 14.6236 9.83094 13.8903 9.31094 13.3836C8.79094 12.8636 8.11094 12.6036 7.27094 12.6036ZM20.5119 25.3836C19.6852 25.3836 18.9119 25.2303 18.1919 24.9236C17.4719 24.6036 16.8452 24.1369 16.3119 23.5236C15.7785 22.9103 15.3585 22.1436 15.0519 21.2236C14.7452 20.3036 14.5919 19.2303 14.5919 18.0036C14.5919 16.7903 14.7452 15.7236 15.0519 14.8036C15.3585 13.8836 15.7785 13.1169 16.3119 12.5036C16.8452 11.8903 17.4719 11.4303 18.1919 11.1236C18.9119 10.8169 19.6852 10.6636 20.5119 10.6636C21.3385 10.6636 22.1052 10.8169 22.8119 11.1236C23.5319 11.4303 24.1585 11.8903 24.6919 12.5036C25.2252 13.1036 25.6385 13.8636 25.9319 14.7836C26.2385 15.6903 26.3919 16.7503 26.3919 17.9636C26.3919 19.1769 26.2385 20.2436 25.9319 21.1636C25.6385 22.0836 25.2252 22.8569 24.6919 23.4836C24.1585 24.1103 23.5319 24.5836 22.8119 24.9036C22.1052 25.2236 21.3385 25.3836 20.5119 25.3836ZM20.4919 23.4436C20.9852 23.4436 21.4452 23.3503 21.8719 23.1636C22.2985 22.9636 22.6652 22.6503 22.9719 22.2236C23.2919 21.7969 23.5385 21.2436 23.7119 20.5636C23.8985 19.8703 23.9919 19.0236 23.9919 18.0236C23.9919 17.0236 23.8985 16.1836 23.7119 15.5036C23.5385 14.8103 23.2919 14.2503 22.9719 13.8236C22.6652 13.3836 22.2985 13.0703 21.8719 12.8836C21.4452 12.6836 20.9919 12.5836 20.5119 12.5836C20.0185 12.5836 19.5585 12.6836 19.1319 12.8836C18.7052 13.0703 18.3319 13.3836 18.0119 13.8236C17.7052 14.2503 17.4585 14.8103 17.2719 15.5036C17.0985 16.1836 17.0119 17.0236 17.0119 18.0236C17.0119 19.0236 17.0985 19.8703 17.2719 20.5636C17.4585 21.2436 17.7052 21.7969 18.0119 22.2236C18.3319 22.6503 18.7052 22.9636 19.1319 23.1636C19.5585 23.3503 20.0119 23.4436 20.4919 23.4436ZM30.8247 25.3036L38.8647 10.7436H40.8847L32.8647 25.3036H30.8247ZM34.6447 14.7636C34.6447 15.4036 34.5514 15.9703 34.3647 16.4636C34.1914 16.9569 33.9447 17.3769 33.6247 17.7236C33.318 18.0569 32.9514 18.3103 32.5247 18.4836C32.098 18.6569 31.638 18.7436 31.1447 18.7436C30.638 18.7436 30.1714 18.6636 29.7447 18.5036C29.3314 18.3303 28.9647 18.0836 28.6447 17.7636C28.338 17.4303 28.098 17.0236 27.9247 16.5436C27.7514 16.0503 27.6647 15.4836 27.6647 14.8436C27.6647 14.2036 27.7514 13.6369 27.9247 13.1436C28.098 12.6503 28.338 12.2369 28.6447 11.9036C28.9647 11.5569 29.3314 11.2969 29.7447 11.1236C30.1714 10.9369 30.638 10.8436 31.1447 10.8436C31.638 10.8436 32.098 10.9303 32.5247 11.1036C32.9514 11.2636 33.318 11.5103 33.6247 11.8436C33.9447 12.1769 34.1914 12.5903 34.3647 13.0836C34.5514 13.5636 34.6447 14.1236 34.6447 14.7636ZM29.6447 14.8036C29.6447 15.6836 29.778 16.3036 30.0447 16.6636C30.3114 17.0236 30.678 17.2036 31.1447 17.2036C31.6114 17.2036 31.978 17.0236 32.2447 16.6636C32.5247 16.3036 32.6647 15.6836 32.6647 14.8036C32.6647 13.9236 32.5247 13.3036 32.2447 12.9436C31.9647 12.5836 31.598 12.4036 31.1447 12.4036C30.6914 12.4036 30.3247 12.5836 30.0447 12.9436C29.778 13.3036 29.6447 13.9236 29.6447 14.8036ZM44.0647 21.2036C44.0647 21.8436 43.9714 22.4103 43.7847 22.9036C43.6114 23.3969 43.3647 23.8169 43.0447 24.1636C42.738 24.4969 42.3714 24.7503 41.9447 24.9236C41.5314 25.0969 41.078 25.1836 40.5847 25.1836C40.078 25.1836 39.6114 25.1036 39.1847 24.9436C38.758 24.7703 38.3914 24.5236 38.0847 24.2036C37.778 23.8703 37.538 23.4636 37.3647 22.9836C37.1914 22.4903 37.1047 21.9236 37.1047 21.2836C37.1047 20.6436 37.1914 20.0769 37.3647 19.5836C37.538 19.0769 37.778 18.6569 38.0847 18.3236C38.3914 17.9903 38.758 17.7369 39.1847 17.5636C39.6114 17.3903 40.078 17.3036 40.5847 17.3036C41.078 17.3036 41.5314 17.3903 41.9447 17.5636C42.3714 17.7236 42.738 17.9703 43.0447 18.3036C43.3647 18.6236 43.6114 19.0303 43.7847 19.5236C43.9714 20.0036 44.0647 20.5636 44.0647 21.2036ZM40.5847 18.8436C40.118 18.8436 39.7514 19.0236 39.4847 19.3836C39.218 19.7436 39.0847 20.3636 39.0847 21.2436C39.0847 22.1236 39.218 22.7436 39.4847 23.1036C39.7514 23.4636 40.118 23.6436 40.5847 23.6436C41.0514 23.6436 41.418 23.4636 41.6847 23.1036C41.9647 22.7436 42.1047 22.1236 42.1047 21.2436C42.1047 20.3636 41.9647 19.7436 41.6847 19.3836C41.4047 19.0236 41.038 18.8436 40.5847 18.8436Z" fill="white"/>
<ellipse cx="60.4338" cy="23.481" rx="50.598" ry="17.9201" transform="rotate(-12.9623 60.4338 23.481)" stroke="url(#paint0_linear_131_90881)" stroke-width="0.791367"/>
<g filter="url(#filter0_d_131_90881)">
<path d="M97.5782 35.206L97.0223 32.6396C96.5642 30.5247 95.0436 28.7977 93.0036 28.0755C95.0223 27.2958 96.4934 25.5265 96.8914 23.3993L97.3743 20.8183L97.9302 23.3846C98.3883 25.4996 99.9089 27.2266 101.949 27.9488C99.9301 28.7284 98.4591 30.4978 98.0611 32.6249L97.5782 35.206Z" fill="white"/>
</g>
</g>
<defs>
<filter id="filter0_d_131_90881" x="89.332" y="20.8184" width="16.2891" height="21.7315" filterUnits="userSpaceOnUse" color-interpolation-filters="sRGB">
<feFlood flood-opacity="0" result="BackgroundImageFix"/>
<feColorMatrix in="SourceAlpha" type="matrix" values="0 0 0 0 0 0 0 0 0 0 0 0 0 0 0 0 0 0 127 0" result="hardAlpha"/>
<feOffset dy="3.6719"/>
<feGaussianBlur stdDeviation="1.83595"/>
<feComposite in2="hardAlpha" operator="out"/>
<feColorMatrix type="matrix" values="0 0 0 0 1 0 0 0 0 1 0 0 0 0 1 0 0 0 0.4 0"/>
<feBlend mode="normal" in2="BackgroundImageFix" result="effect1_dropShadow_131_90881"/>
<feBlend mode="normal" in="SourceGraphic" in2="effect1_dropShadow_131_90881" result="shape"/>
</filter>
<linearGradient id="paint0_linear_131_90881" x1="80.4263" y1="39.4405" x2="32.9983" y2="10.7796" gradientUnits="userSpaceOnUse">
<stop stop-color="white"/>
<stop offset="1" stop-color="#4C7999" stop-opacity="0"/>
</linearGradient>
<clipPath id="clip0_131_90881">
<rect width="110" height="45.8993" fill="white" transform="translate(0.824219)"/>
</clipPath>
</defs>
</svg>
